{"glyphs":{"0":{"ha":760,"x_min":51,"x_max":708,"o":"m 382 -18 q 211 26 286 -18 q 94 148 136 69 q 51 328 51 226 q 94 503 51 426 q 212 622 136 579 q 383 664 288 664 q 552 621 478 664 q 667 501 626 578 q 708 324 708 424 q 667 146 708 224 q 551 25 625 68 q 382 -18 476 -18 m 399 1 q 556 83 504 1 q 607 307 607 164 q 575 496 607 419 q 489 609 543 572 q 368 646 435 646 q 207 560 265 646 q 149 338 149 475 q 179 164 149 240 q 267 44 210 88 q 399 1 324 1 z "},"1":{"ha":478,"x_min":60,"x_max":424,"o":"m 74 0 q 69 8 69 0 q 74 17 69 17 q 158 24 131 17 q 195 51 185 32 q 206 113 206 71 l 206 489 q 199 561 206 540 q 169 582 192 582 q 74 550 144 582 l 72 550 q 63 557 65 550 q 65 565 60 564 l 275 664 q 279 665 276 665 q 285 662 282 665 q 288 654 288 658 l 288 113 q 297 50 288 69 q 333 24 306 31 q 421 17 361 17 q 424 8 424 17 q 421 0 424 0 q 350 1 375 0 l 247 3 l 146 1 q 74 0 119 0 z "},"2":{"ha":624,"x_min":47,"x_max":572,"o":"m 51 17 q 269 213 190 132 q 385 358 349 293 q 422 488 422 424 q 384 598 422 557 q 275 639 346 639 q 85 465 138 639 q 79 463 85 463 q 71 465 75 463 q 68 468 67 467 l 122 679 q 131 681 124 682 q 138 676 139 679 q 136 660 136 669 q 160 635 136 635 q 203 644 174 635 q 260 661 235 656 q 319 667 286 667 q 462 619 408 667 q 515 496 515 572 q 478 379 515 436 q 373 260 442 322 q 158 78 304 197 q 155 71 153 74 q 164 68 157 68 q 421 72 351 68 q 518 94 490 76 q 557 158 546 113 q 565 160 558 161 q 572 157 572 160 l 554 15 q 551 5 554 10 q 542 0 547 0 l 61 0 q 51 6 54 0 q 51 17 47 11 z "},"3":{"ha":617,"x_min":38,"x_max":538,"o":"m 269 293 q 378 385 349 344 q 407 479 407 426 q 365 590 407 547 q 244 633 324 633 q 126 594 172 633 q 56 465 81 556 q 49 463 56 463 q 41 465 44 463 q 39 468 38 467 l 93 679 q 99 681 93 681 q 110 676 113 681 q 107 658 107 663 q 114 638 107 644 q 131 632 121 632 q 179 644 144 632 q 244 663 218 657 q 303 668 269 668 q 442 626 386 668 q 497 514 497 583 q 449 401 497 456 q 293 286 401 347 l 269 293 m 67 -201 q 353 -74 267 -157 q 439 103 439 10 q 395 223 439 172 q 269 274 351 274 q 171 256 208 274 l 168 254 q 160 260 163 254 q 161 268 157 265 q 226 294 185 283 q 315 304 268 304 q 478 251 418 304 q 538 118 538 197 q 419 -76 538 15 q 72 -218 301 -167 q 65 -211 67 -219 q 67 -201 63 -203 z "},"4":{"ha":667,"x_min":17,"x_max":606,"o":"m 31 11 q 20 17 24 11 q 21 28 17 22 l 461 667 q 471 669 464 669 q 485 660 485 669 l 485 -178 q 474 -197 485 -193 l 415 -226 q 407 -229 410 -229 q 401 -218 401 -229 l 401 547 l 444 585 l 92 63 q 91 56 89 58 q 99 53 93 53 q 542 60 319 53 l 600 61 q 606 35 606 61 q 603 13 606 24 q 599 1 601 1 q 370 9 493 7 q 31 11 247 11 z "},"5":{"ha":601,"x_min":79,"x_max":528,"o":"m 108 386 q 420 325 321 386 q 519 154 519 264 q 420 -40 519 47 q 94 -219 321 -126 l 93 -219 q 84 -213 88 -219 q 86 -204 81 -207 q 349 -41 274 -122 q 425 131 425 40 q 340 290 425 233 q 94 346 254 346 q 83 351 88 346 q 81 363 79 356 l 125 610 q 128 622 126 619 q 143 625 131 624 q 401 654 335 646 q 485 672 467 663 q 511 701 504 681 q 521 705 514 706 q 526 699 528 704 l 499 596 q 485 575 493 579 q 460 571 478 571 l 165 564 q 144 544 146 564 l 110 353 l 108 386 z "},"6":{"ha":696,"x_min":68,"x_max":643,"o":"m 454 408 q 596 357 549 408 q 643 231 643 306 q 604 107 643 164 q 498 16 565 50 q 353 -18 431 -18 q 207 26 272 -18 q 105 151 142 71 q 68 333 68 232 q 124 565 68 456 q 288 749 179 674 q 546 844 396 825 q 553 839 551 846 q 550 831 554 832 q 338 735 424 806 q 208 566 251 664 q 165 361 165 468 q 194 188 165 269 q 274 58 222 107 q 393 8 326 8 q 505 59 464 8 q 546 194 546 110 q 510 323 546 276 q 404 369 474 369 q 335 355 367 369 q 265 306 303 340 q 261 304 264 304 q 253 308 257 304 q 250 315 249 313 q 338 385 285 361 q 454 408 392 408 z "},"7":{"ha":661,"x_min":49,"x_max":611,"o":"m 296 -143 q 267 -176 285 -167 l 178 -219 q 171 -217 175 -221 q 168 -210 167 -212 l 553 569 q 546 579 557 579 q 224 574 313 579 q 109 551 136 568 q 67 485 82 533 q 61 481 67 481 q 53 483 57 481 q 50 488 49 485 l 99 688 q 108 690 100 690 q 115 686 117 689 q 114 672 114 681 q 127 654 114 658 q 181 650 140 650 l 597 650 q 608 644 604 650 q 608 632 611 638 l 296 -143 z "},"8":{"ha":793,"x_min":85,"x_max":708,"o":"m 418 504 q 503 565 472 525 q 533 660 533 604 q 488 774 533 728 q 367 821 442 821 q 276 792 310 821 q 243 711 243 763 q 272 631 243 665 q 341 571 300 596 q 456 511 382 546 q 587 442 536 474 q 673 364 638 411 q 708 250 708 317 q 664 113 708 175 q 545 17 619 51 q 383 -18 471 -18 q 228 17 296 -18 q 122 111 160 53 q 85 236 85 169 q 125 366 85 306 q 228 469 165 426 q 358 533 290 513 l 367 521 q 179 275 179 446 q 210 143 179 204 q 297 45 240 82 q 424 8 353 8 q 563 60 510 8 q 615 199 615 113 q 581 315 615 267 q 498 394 547 363 q 369 461 449 425 q 257 519 299 494 q 188 581 215 544 q 160 667 160 617 q 197 764 160 724 q 291 825 233 804 q 410 846 349 846 q 563 801 506 846 q 621 692 621 757 q 565 573 621 625 q 426 496 508 521 l 418 504 z "},"9":{"ha":696,"x_min":54,"x_max":618,"o":"m 231 242 q 99 299 144 242 q 54 432 54 357 q 91 553 54 499 q 191 638 128 607 q 329 668 254 668 q 477 624 411 668 q 581 499 543 579 q 618 318 618 419 q 560 78 618 193 q 392 -115 503 -36 q 131 -214 282 -193 l 129 -214 q 124 -208 125 -214 q 126 -200 122 -201 q 344 -99 254 -174 q 477 78 433 -25 q 521 290 521 181 q 492 463 521 382 q 412 592 464 543 q 293 642 360 642 q 190 597 226 642 q 154 467 154 551 q 187 333 154 385 q 281 281 219 281 q 351 294 319 281 q 421 343 382 308 q 425 344 422 344 q 433 340 429 344 q 436 333 438 336 q 347 265 400 289 q 231 242 294 242 z "}," ":{"ha":325,"x_min":0,"x_max":0,"o":""},"A":{"ha":975,"x_min":-6,"x_max":976,"o":"m 317 489 l 603 489 l 613 460 l 296 460 l 317 489 m 971 17 q 976 8 976 17 q 971 0 976 0 q 889 3 944 0 q 808 6 833 6 q 731 3 778 6 q 663 0 686 0 q 657 8 657 0 q 663 17 657 17 q 738 26 715 17 q 761 61 761 36 q 744 119 761 82 l 436 771 l 471 814 l 201 176 q 182 99 182 129 q 318 17 182 17 q 325 8 325 17 q 318 0 325 0 q 246 3 293 0 q 154 6 193 6 q 71 3 118 6 q 1 0 29 0 q -6 8 -6 0 q 1 17 -6 17 q 67 31 40 17 q 119 83 94 46 q 172 189 143 119 l 465 881 q 475 885 468 885 q 483 881 482 885 l 811 190 q 892 52 858 88 q 971 17 925 17 z "},"Á":{"ha":975,"x_min":-6,"x_max":976,"o":"m 317 489 l 603 489 l 613 460 l 296 460 l 317 489 m 971 17 q 976 8 976 17 q 971 0 976 0 q 889 3 944 0 q 808 6 833 6 q 731 3 778 6 q 663 0 686 0 q 657 8 657 0 q 663 17 657 17 q 738 26 715 17 q 761 61 761 36 q 744 119 761 82 l 436 771 l 471 814 l 201 176 q 182 99 182 129 q 318 17 182 17 q 325 8 325 17 q 318 0 325 0 q 246 3 293 0 q 154 6 193 6 q 71 3 118 6 q 1 0 29 0 q -6 8 -6 0 q 1 17 -6 17 q 67 31 40 17 q 119 83 94 46 q 172 189 143 119 l 465 881 q 475 885 468 885 q 483 881 482 885 l 811 190 q 892 52 858 88 q 971 17 925 17 m 336 942 q 329 948 331 942 q 332 957 328 954 q 483 1044 403 993 q 558 1089 533 1075 q 591 1083 564 1092 q 638 1063 618 1074 q 647 1050 658 1051 q 490 1003 561 1029 q 339 943 418 978 l 336 942 z "},"Ă":{"ha":975,"x_min":-6,"x_max":976,"o":"m 317 489 l 603 489 l 613 460 l 296 460 l 317 489 m 971 17 q 976 8 976 17 q 971 0 976 0 q 889 3 944 0 q 808 6 833 6 q 731 3 778 6 q 663 0 686 0 q 657 8 657 0 q 663 17 657 17 q 738 26 715 17 q 761 61 761 36 q 744 119 761 82 l 436 771 l 471 814 l 201 176 q 182 99 182 129 q 318 17 182 17 q 325 8 325 17 q 318 0 325 0 q 246 3 293 0 q 154 6 193 6 q 71 3 118 6 q 1 0 29 0 q -6 8 -6 0 q 1 17 -6 17 q 67 31 40 17 q 119 83 94 46 q 172 189 143 119 l 465 881 q 475 885 468 885 q 483 881 482 885 l 811 190 q 892 52 858 88 q 971 17 925 17 m 474 958 q 378 997 415 958 q 331 1107 342 1036 q 337 1113 329 1113 q 346 1111 344 1114 q 392 1046 356 1074 q 474 1018 429 1018 q 553 1046 517 1018 q 600 1111 590 1074 q 606 1114 600 1114 q 613 1112 610 1114 q 615 1107 617 1110 q 569 997 606 1036 q 474 958 533 958 z "},"Ắ":{"ha":975,"x_min":-6,"x_max":976,"o":"m 317 489 l 603 489 l 613 460 l 296 460 l 317 489 m 971 17 q 976 8 976 17 q 971 0 976 0 q 889 3 944 0 q 808 6 833 6 q 731 3 778 6 q 663 0 686 0 q 657 8 657 0 q 663 17 657 17 q 738 26 715 17 q 761 61 761 36 q 744 119 761 82 l 436 771 l 471 814 l 201 176 q 182 99 182 129 q 318 17 182 17 q 325 8 325 17 q 318 0 325 0 q 246 3 293 0 q 154 6 193 6 q 71 3 118 6 q 1 0 29 0 q -6 8 -6 0 q 1 17 -6 17 q 67 31 40 17 q 119 83 94 46 q 172 189 143 119 l 465 881 q 475 885 468 885 q 483 881 482 885 l 811 190 q 892 52 858 88 q 971 17 925 17 m 474 943 q 378 981 414 943 q 331 1092 342 1019 q 337 1097 329 1096 q 346 1094 344 1099 q 392 1030 356 1057 q 474 1003 429 1003 q 553 1030 517 1003 q 600 1094 590 1057 q 609 1097 601 1099 q 615 1092 617 1096 q 569 981 604 1019 q 474 943 533 943 m 399 1079 q 394 1078 397 1078 q 388 1083 390 1078 q 389 1090 386 1088 q 494 1225 443 1150 q 526 1222 499 1231 q 574 1201 553 1213 q 585 1186 596 1189 q 399 1079 494 1150 z "},"Ặ":{"ha":975,"x_min":-6,"x_max":976,"o":"m 317 489 l 603 489 l 613 460 l 296 460 l 317 489 m 971 17 q 976 8 976 17 q 971 0 976 0 q 889 3 944 0 q 808 6 833 6 q 731 3 778 6 q 663 0 686 0 q 657 8 657 0 q 663 17 657 17 q 738 26 715 17 q 761 61 761 36 q 744 119 761 82 l 436 771 l 471 814 l 201 176 q 182 99 182 129 q 318 17 182 17 q 325 8 325 17 q 318 0 325 0 q 246 3 293 0 q 154 6 193 6 q 71 3 118 6 q 1 0 29 0 q -6 8 -6 0 q 1 17 -6 17 q 67 31 40 17 q 119 83 94 46 q 172 189 143 119 l 465 881 q 475 885 468 885 q 483 881 482 885 l 811 190 q 892 52 858 88 q 971 17 925 17 m 490 -264 q 445 -249 461 -264 q 429 -206 429 -233 q 445 -162 429 -178 q 490 -147 461 -147 q 533 -162 518 -147 q 549 -206 549 -178 q 533 -249 549 -233 q 490 -264 518 -264 m 474 958 q 378 997 415 958 q 331 1107 342 1036 q 337 1113 329 1113 q 346 1111 344 1114 q 392 1046 356 1074 q 474 1018 429 1018 q 553 1046 517 1018 q 600 1111 590 1074 q 606 1114 600 1114 q 613 1112 610 1114 q 615 1107 617 1110 q 569 997 606 1036 q 474 958 533 958 z "},"Ằ":{"ha":975,"x_min":-6,"x_max":976,"o":"m 317 489 l 603 489 l 613 460 l 296 460 l 317 489 m 971 17 q 976 8 976 17 q 971 0 976 0 q 889 3 944 0 q 808 6 833 6 q 731 3 778 6 q 663 0 686 0 q 657 8 657 0 q 663 17 657 17 q 738 26 715 17 q 761 61 761 36 q 744 119 761 82 l 436 771 l 471 814 l 201 176 q 182 99 182 129 q 318 17 182 17 q 325 8 325 17 q 318 0 325 0 q 246 3 293 0 q 154 6 193 6 q 71 3 118 6 q 1 0 29 0 q -6 8 -6 0 q 1 17 -6 17 q 67 31 40 17 q 119 83 94 46 q 172 189 143 119 l 465 881 q 475 885 468 885 q 483 881 482 885 l 811 190 q 892 52 858 88 q 971 17 925 17 m 474 943 q 378 981 414 943 q 331 1092 342 1019 q 337 1097 329 1096 q 346 1094 344 1099 q 392 1030 356 1057 q 474 1003 429 1003 q 553 1030 517 1003 q 600 1094 590 1057 q 609 1097 601 1099 q 615 1092 617 1096 q 569 981 604 1019 q 474 943 533 943 m 544 1079 q 453 1140 496 1115 q 360 1186 411 1165 q 370 1201 349 1189 q 419 1222 392 1213 q 450 1225 446 1231 q 554 1092 496 1158 l 557 1086 q 553 1080 557 1082 q 544 1079 549 1078 z "},"Ẳ":{"ha":975,"x_min":-6,"x_max":976,"o":"m 317 489 l 603 489 l 613 460 l 296 460 l 317 489 m 971 17 q 976 8 976 17 q 971 0 976 0 q 889 3 944 0 q 808 6 833 6 q 731 3 778 6 q 663 0 686 0 q 657 8 657 0 q 663 17 657 17 q 738 26 715 17 q 761 61 761 36 q 744 119 761 82 l 436 771 l 471 814 l 201 176 q 182 99 182 129 q 318 17 182 17 q 325 8 325 17 q 318 0 325 0 q 246 3 293 0 q 154 6 193 6 q 71 3 118 6 q 1 0 29 0 q -6 8 -6 0 q 1 17 -6 17 q 67 31 40 17 q 119 83 94 46 q 172 189 143 119 l 465 881 q 475 885 468 885 q 483 881 482 885 l 811 190 q 892 52 858 88 q 971 17 925 17 m 474 943 q 378 981 414 943 q 331 1092 342 1019 q 337 1097 329 1096 q 346 1094 344 1099 q 392 1030 356 1057 q 474 1003 429 1003 q 553 1030 517 1003 q 600 1094 590 1057 q 609 1097 601 1099 q 615 1092 617 1096 q 569 981 604 1019 q 474 943 533 943 m 456 1019 q 453 1038 453 1026 q 472 1089 453 1056 q 493 1142 493 1121 q 478 1174 493 1163 q 446 1185 464 1185 q 413 1178 429 1185 l 411 1178 q 403 1183 407 1178 q 403 1189 399 1188 q 447 1208 424 1201 q 486 1215 469 1215 q 535 1197 517 1215 q 553 1156 553 1179 q 541 1120 553 1136 q 508 1085 529 1104 q 476 1050 486 1064 q 471 1019 467 1036 q 465 1016 474 1017 q 456 1019 457 1015 z "},"Ẵ":{"ha":975,"x_min":-6,"x_max":976,"o":"m 317 489 l 603 489 l 613 460 l 296 460 l 317 489 m 971 17 q 976 8 976 17 q 971 0 976 0 q 889 3 944 0 q 808 6 833 6 q 731 3 778 6 q 663 0 686 0 q 657 8 657 0 q 663 17 657 17 q 738 26 715 17 q 761 61 761 36 q 744 119 761 82 l 436 771 l 471 814 l 201 176 q 182 99 182 129 q 318 17 182 17 q 325 8 325 17 q 318 0 325 0 q 246 3 293 0 q 154 6 193 6 q 71 3 118 6 q 1 0 29 0 q -6 8 -6 0 q 1 17 -6 17 q 67 31 40 17 q 119 83 94 46 q 172 189 143 119 l 465 881 q 475 885 468 885 q 483 881 482 885 l 811 190 q 892 52 858 88 q 971 17 925 17 m 478 931 q 383 969 419 931 q 335 1079 346 1008 q 340 1085 333 1085 q 350 1083 347 1086 q 397 1018 360 1046 q 478 990 433 990 q 558 1018 521 990 q 604 1083 594 1046 q 610 1086 604 1086 q 617 1084 614 1086 q 619 1079 621 1082 q 572 969 608 1007 q 478 931 536 931 m 582 1160 q 619 1169 606 1160 q 650 1197 633 1179 l 651 1197 q 659 1194 656 1197 q 660 1188 663 1190 q 600 1119 624 1138 q 550 1101 576 1101 q 465 1118 521 1101 q 430 1128 460 1119 q 368 1136 400 1136 q 335 1129 347 1136 q 315 1113 324 1122 q 300 1099 306 1103 l 297 1099 q 290 1102 293 1099 q 290 1108 288 1106 q 345 1167 314 1140 q 408 1193 376 1193 q 478 1179 428 1193 q 582 1160 542 1160 z "},"Ǎ":{"ha":975,"x_min":-6,"x_max":976,"o":"m 317 489 l 603 489 l 613 460 l 296 460 l 317 489 m 971 17 q 976 8 976 17 q 971 0 976 0 q 889 3 944 0 q 808 6 833 6 q 731 3 778 6 q 663 0 686 0 q 657 8 657 0 q 663 17 657 17 q 738 26 715 17 q 761 61 761 36 q 744 119 761 82 l 436 771 l 471 814 l 201 176 q 182 99 182 129 q 318 17 182 17 q 325 8 325 17 q 318 0 325 0 q 246 3 293 0 q 154 6 193 6 q 71 3 118 6 q 1 0 29 0 q -6 8 -6 0 q 1 17 -6 17 q 67 31 40 17 q 119 83 94 46 q 172 189 143 119 l 465 881 q 475 885 468 885 q 483 881 482 885 l 811 190 q 892 52 858 88 q 971 17 925 17 m 314 1089 q 313 1090 314 1089 q 313 1090 313 1090 q 316 1097 313 1093 q 322 1099 319 1100 l 474 1018 l 624 1099 l 625 1099 q 632 1094 629 1099 q 631 1089 635 1090 l 489 954 q 474 949 483 949 q 457 954 463 949 l 314 1089 z "},"Â":{"ha":975,"x_min":-6,"x_max":976,"o":"m 317 489 l 603 489 l 613 460 l 296 460 l 317 489 m 971 17 q 976 8 976 17 q 971 0 976 0 q 889 3 944 0 q 808 6 833 6 q 731 3 778 6 q 663 0 686 0 q 657 8 657 0 q 663 17 657 17 q 738 26 715 17 q 761 61 761 36 q 744 119 761 82 l 436 771 l 471 814 l 201 176 q 182 99 182 129 q 318 17 182 17 q 325 8 325 17 q 318 0 325 0 q 246 3 293 0 q 154 6 193 6 q 71 3 118 6 q 1 0 29 0 q -6 8 -6 0 q 1 17 -6 17 q 67 31 40 17 q 119 83 94 46 q 172 189 143 119 l 465 881 q 475 885 468 885 q 483 881 482 885 l 811 190 q 892 52 858 88 q 971 17 925 17 m 457 1089 q 474 1096 464 1096 q 489 1089 482 1096 l 631 954 q 632 951 632 954 q 628 946 632 949 q 624 944 625 943 l 474 1025 l 322 944 q 315 948 319 943 q 314 954 311 953 l 457 1089 z "},"Ấ":{"ha":975,"x_min":-6,"x_max":976,"o":"m 317 489 l 603 489 l 613 460 l 296 460 l 317 489 m 971 17 q 976 8 976 17 q 971 0 976 0 q 889 3 944 0 q 808 6 833 6 q 731 3 778 6 q 663 0 686 0 q 657 8 657 0 q 663 17 657 17 q 738 26 715 17 q 761 61 761 36 q 744 119 761 82 l 436 771 l 471 814 l 201 176 q 182 99 182 129 q 318 17 182 17 q 325 8 325 17 q 318 0 325 0 q 246 3 293 0 q 154 6 193 6 q 71 3 118 6 q 1 0 29 0 q -6 8 -6 0 q 1 17 -6 17 q 67 31 40 17 q 119 83 94 46 q 172 189 143 119 l 465 881 q 475 885 468 885 q 483 881 482 885 l 811 190 q 892 52 858 88 q 971 17 925 17 m 457 1089 q 474 1096 464 1096 q 489 1089 482 1096 l 631 954 q 632 951 632 954 q 628 946 632 949 q 624 944 625 943 l 474 1025 l 322 944 q 315 948 319 943 q 314 954 311 953 l 457 1089 m 565 1006 q 561 1004 564 1004 q 555 1009 557 1004 q 556 1017 553 1014 q 661 1151 610 1076 q 692 1148 665 1157 q 741 1127 719 1139 q 751 1113 763 1115 q 565 1006 661 1076 z "},"Ậ":{"ha":975,"x_min":-6,"x_max":976,"o":"m 317 489 l 603 489 l 613 460 l 296 460 l 317 489 m 971 17 q 976 8 976 17 q 971 0 976 0 q 889 3 944 0 q 808 6 833 6 q 731 3 778 6 q 663 0 686 0 q 657 8 657 0 q 663 17 657 17 q 738 26 715 17 q 761 61 761 36 q 744 119 761 82 l 436 771 l 471 814 l 201 176 q 182 99 182 129 q 318 17 182 17 q 325 8 325 17 q 318 0 325 0 q 246 3 293 0 q 154 6 193 6 q 71 3 118 6 q 1 0 29 0 q -6 8 -6 0 q 1 17 -6 17 q 67 31 40 17 q 119 83 94 46 q 172 189 143 119 l 465 881 q 475 885 468 885 q 483 881 482 885 l 811 190 q 892 52 858 88 q 971 17 925 17 m 490 -264 q 445 -249 461 -264 q 429 -206 429 -233 q 445 -162 429 -178 q 490 -147 461 -147 q 533 -162 518 -147 q 549 -206 549 -178 q 533 -249 549 -233 q 490 -264 518 -264 m 457 1089 q 474 1096 464 1096 q 489 1089 482 1096 l 631 954 q 632 951 632 954 q 628 946 632 949 q 624 944 625 943 l 474 1025 l 322 944 q 315 948 319 943 q 314 954 311 953 l 457 1089 z "},"Ầ":{"ha":975,"x_min":-6,"x_max":976,"o":"m 317 489 l 603 489 l 613 460 l 296 460 l 317 489 m 971 17 q 976 8 976 17 q 971 0 976 0 q 889 3 944 0 q 808 6 833 6 q 731 3 778 6 q 663 0 686 0 q 657 8 657 0 q 663 17 657 17 q 738 26 715 17 q 761 61 761 36 q 744 119 761 82 l 436 771 l 471 814 l 201 176 q 182 99 182 129 q 318 17 182 17 q 325 8 325 17 q 318 0 325 0 q 246 3 293 0 q 154 6 193 6 q 71 3 118 6 q 1 0 29 0 q -6 8 -6 0 q 1 17 -6 17 q 67 31 40 17 q 119 83 94 46 q 172 189 143 119 l 465 881 q 475 885 468 885 q 483 881 482 885 l 811 190 q 892 52 858 88 q 971 17 925 17 m 457 1089 q 474 1096 464 1096 q 489 1089 482 1096 l 631 954 q 632 951 632 954 q 628 946 632 949 q 624 944 625 943 l 474 1025 l 322 944 q 315 948 319 943 q 314 954 311 953 l 457 1089 m 706 975 q 615 1036 657 1011 q 521 1082 572 1061 q 531 1097 510 1085 q 580 1117 553 1108 q 611 1121 607 1126 q 715 988 657 1054 l 718 982 q 714 976 718 978 q 706 975 710 974 z "},"Ẩ":{"ha":975,"x_min":-6,"x_max":976,"o":"m 317 489 l 603 489 l 613 460 l 296 460 l 317 489 m 971 17 q 976 8 976 17 q 971 0 976 0 q 889 3 944 0 q 808 6 833 6 q 731 3 778 6 q 663 0 686 0 q 657 8 657 0 q 663 17 657 17 q 738 26 715 17 q 761 61 761 36 q 744 119 761 82 l 436 771 l 471 814 l 201 176 q 182 99 182 129 q 318 17 182 17 q 325 8 325 17 q 318 0 325 0 q 246 3 293 0 q 154 6 193 6 q 71 3 118 6 q 1 0 29 0 q -6 8 -6 0 q 1 17 -6 17 q 67 31 40 17 q 119 83 94 46 q 172 189 143 119 l 465 881 q 475 885 468 885 q 483 881 482 885 l 811 190 q 892 52 858 88 q 971 17 925 17 m 457 1089 q 474 1096 464 1096 q 489 1089 482 1096 l 631 954 q 632 951 632 954 q 628 946 632 949 q 624 944 625 943 l 474 1025 l 322 944 q 315 948 319 943 q 314 954 311 953 l 457 1089 m 585 1006 q 582 1024 582 1013 q 601 1075 582 1042 q 622 1128 622 1107 q 608 1160 622 1149 q 575 1171 593 1171 q 542 1164 558 1171 l 540 1164 q 532 1169 536 1164 q 532 1175 528 1174 q 576 1194 553 1188 q 615 1201 599 1201 q 664 1183 646 1201 q 682 1142 682 1165 q 670 1106 682 1122 q 638 1071 658 1090 q 606 1036 615 1050 q 600 1006 596 1022 q 594 1002 603 1003 q 585 1006 586 1001 z "},"Ẫ":{"ha":975,"x_min":-6,"x_max":976,"o":"m 317 489 l 603 489 l 613 460 l 296 460 l 317 489 m 971 17 q 976 8 976 17 q 971 0 976 0 q 889 3 944 0 q 808 6 833 6 q 731 3 778 6 q 663 0 686 0 q 657 8 657 0 q 663 17 657 17 q 738 26 715 17 q 761 61 761 36 q 744 119 761 82 l 436 771 l 471 814 l 201 176 q 182 99 182 129 q 318 17 182 17 q 325 8 325 17 q 318 0 325 0 q 246 3 293 0 q 154 6 193 6 q 71 3 118 6 q 1 0 29 0 q -6 8 -6 0 q 1 17 -6 17 q 67 31 40 17 q 119 83 94 46 q 172 189 143 119 l 465 881 q 475 885 468 885 q 483 881 482 885 l 811 190 q 892 52 858 88 q 971 17 925 17 m 457 1089 q 474 1096 464 1096 q 489 1089 482 1096 l 631 954 q 632 951 632 954 q 628 946 632 949 q 624 944 625 943 l 474 1025 l 322 944 q 315 948 319 943 q 314 954 311 953 l 457 1089 m 589 1164 q 626 1174 613 1164 q 657 1201 640 1183 l 658 1201 q 666 1198 663 1201 q 667 1192 669 1194 q 607 1124 631 1142 q 557 1106 583 1106 q 472 1122 528 1106 q 437 1132 467 1124 q 375 1140 407 1140 q 342 1133 354 1140 q 322 1117 331 1126 q 307 1103 313 1107 l 304 1103 q 297 1106 300 1103 q 297 1113 294 1110 q 352 1171 321 1144 q 415 1197 383 1197 q 485 1183 435 1197 q 589 1164 549 1164 z "},"Ȁ":{"ha":975,"x_min":-6,"x_max":976,"o":"m 317 489 l 603 489 l 613 460 l 296 460 l 317 489 m 971 17 q 976 8 976 17 q 971 0 976 0 q 889 3 944 0 q 808 6 833 6 q 731 3 778 6 q 663 0 686 0 q 657 8 657 0 q 663 17 657 17 q 738 26 715 17 q 761 61 761 36 q 744 119 761 82 l 436 771 l 471 814 l 201 176 q 182 99 182 129 q 318 17 182 17 q 325 8 325 17 q 318 0 325 0 q 246 3 293 0 q 154 6 193 6 q 71 3 118 6 q 1 0 29 0 q -6 8 -6 0 q 1 17 -6 17 q 67 31 40 17 q 119 83 94 46 q 172 189 143 119 l 465 881 q 475 885 468 885 q 483 881 482 885 l 811 190 q 892 52 858 88 q 971 17 925 17 m 617 942 q 512 1006 556 981 q 413 1053 468 1031 q 424 1067 403 1057 q 472 1085 444 1078 q 503 1086 499 1092 q 628 954 561 1017 q 629 950 629 953 q 625 942 629 946 q 617 942 621 939 m 444 942 q 338 1008 379 983 q 244 1053 297 1032 q 254 1067 235 1057 q 300 1085 274 1078 q 331 1086 326 1092 q 456 954 389 1017 q 457 950 457 953 q 453 942 457 946 q 444 942 449 939 z "},"Ä":{"ha":975,"x_min":-6,"x_max":976,"o":"m 317 489 l 603 489 l 613 460 l 296 460 l 317 489 m 971 17 q 976 8 976 17 q 971 0 976 0 q 889 3 944 0 q 808 6 833 6 q 731 3 778 6 q 663 0 686 0 q 657 8 657 0 q 663 17 657 17 q 738 26 715 17 q 761 61 761 36 q 744 119 761 82 l 436 771 l 471 814 l 201 176 q 182 99 182 129 q 318 17 182 17 q 325 8 325 17 q 318 0 325 0 q 246 3 293 0 q 154 6 193 6 q 71 3 118 6 q 1 0 29 0 q -6 8 -6 0 q 1 17 -6 17 q 67 31 40 17 q 119 83 94 46 q 172 189 143 119 l 465 881 q 475 885 468 885 q 483 881 482 885 l 811 190 q 892 52 858 88 q 971 17 925 17 m 353 996 q 309 1011 325 996 q 293 1053 293 1026 q 309 1094 293 1079 q 353 1110 325 1110 q 395 1095 381 1110 q 410 1053 410 1081 q 395 1011 410 1026 q 353 996 381 996 m 596 996 q 552 1011 568 996 q 536 1053 536 1026 q 552 1094 536 1079 q 596 1110 568 1110 q 639 1095 624 1110 q 654 1053 654 1081 q 639 1010 654 1025 q 596 996 624 996 z "},"Ạ":{"ha":975,"x_min":-6,"x_max":976,"o":"m 317 489 l 603 489 l 613 460 l 296 460 l 317 489 m 971 17 q 976 8 976 17 q 971 0 976 0 q 889 3 944 0 q 808 6 833 6 q 731 3 778 6 q 663 0 686 0 q 657 8 657 0 q 663 17 657 17 q 738 26 715 17 q 761 61 761 36 q 744 119 761 82 l 436 771 l 471 814 l 201 176 q 182 99 182 129 q 318 17 182 17 q 325 8 325 17 q 318 0 325 0 q 246 3 293 0 q 154 6 193 6 q 71 3 118 6 q 1 0 29 0 q -6 8 -6 0 q 1 17 -6 17 q 67 31 40 17 q 119 83 94 46 q 172 189 143 119 l 465 881 q 475 885 468 885 q 483 881 482 885 l 811 190 q 892 52 858 88 q 971 17 925 17 m 490 -264 q 445 -249 461 -264 q 429 -206 429 -233 q 445 -162 429 -178 q 490 -147 461 -147 q 533 -162 518 -147 q 549 -206 549 -178 q 533 -249 549 -233 q 490 -264 518 -264 z "},"À":{"ha":975,"x_min":-6,"x_max":976,"o":"m 317 489 l 603 489 l 613 460 l 296 460 l 317 489 m 971 17 q 976 8 976 17 q 971 0 976 0 q 889 3 944 0 q 808 6 833 6 q 731 3 778 6 q 663 0 686 0 q 657 8 657 0 q 663 17 657 17 q 738 26 715 17 q 761 61 761 36 q 744 119 761 82 l 436 771 l 471 814 l 201 176 q 182 99 182 129 q 318 17 182 17 q 325 8 325 17 q 318 0 325 0 q 246 3 293 0 q 154 6 193 6 q 71 3 118 6 q 1 0 29 0 q -6 8 -6 0 q 1 17 -6 17 q 67 31 40 17 q 119 83 94 46 q 172 189 143 119 l 465 881 q 475 885 468 885 q 483 881 482 885 l 811 190 q 892 52 858 88 q 971 17 925 17 m 611 943 q 303 1050 456 1013 q 312 1063 292 1051 q 359 1083 332 1074 q 392 1089 386 1092 l 432 1064 q 617 957 569 982 q 621 951 621 956 q 618 944 621 947 q 611 943 615 942 z "},"Ả":{"ha":975,"x_min":-6,"x_max":976,"o":"m 317 489 l 603 489 l 613 460 l 296 460 l 317 489 m 971 17 q 976 8 976 17 q 971 0 976 0 q 889 3 944 0 q 808 6 833 6 q 731 3 778 6 q 663 0 686 0 q 657 8 657 0 q 663 17 657 17 q 738 26 715 17 q 761 61 761 36 q 744 119 761 82 l 436 771 l 471 814 l 201 176 q 182 99 182 129 q 318 17 182 17 q 325 8 325 17 q 318 0 325 0 q 246 3 293 0 q 154 6 193 6 q 71 3 118 6 q 1 0 29 0 q -6 8 -6 0 q 1 17 -6 17 q 67 31 40 17 q 119 83 94 46 q 172 189 143 119 l 465 881 q 475 885 468 885 q 483 881 482 885 l 811 190 q 892 52 858 88 q 971 17 925 17 m 478 904 q 472 901 479 901 q 463 904 464 901 q 458 935 458 921 q 466 974 458 956 q 489 1015 474 993 q 509 1052 503 1038 q 515 1083 515 1067 q 498 1124 515 1110 q 456 1139 481 1139 q 417 1129 436 1139 l 415 1129 q 407 1134 411 1129 q 407 1140 403 1139 q 497 1169 450 1169 q 563 1149 539 1169 q 586 1097 586 1128 q 572 1051 586 1072 q 529 1003 557 1031 q 490 958 503 976 q 476 918 476 939 q 478 904 476 908 z "},"Ȃ":{"ha":975,"x_min":-6,"x_max":976,"o":"m 317 489 l 603 489 l 613 460 l 296 460 l 317 489 m 971 17 q 976 8 976 17 q 971 0 976 0 q 889 3 944 0 q 808 6 833 6 q 731 3 778 6 q 663 0 686 0 q 657 8 657 0 q 663 17 657 17 q 738 26 715 17 q 761 61 761 36 q 744 119 761 82 l 436 771 l 471 814 l 201 176 q 182 99 182 129 q 318 17 182 17 q 325 8 325 17 q 318 0 325 0 q 246 3 293 0 q 154 6 193 6 q 71 3 118 6 q 1 0 29 0 q -6 8 -6 0 q 1 17 -6 17 q 67 31 40 17 q 119 83 94 46 q 172 189 143 119 l 465 881 q 475 885 468 885 q 483 881 482 885 l 811 190 q 892 52 858 88 q 971 17 925 17 m 346 947 q 337 944 344 943 q 331 949 329 944 q 377 1059 340 1021 q 474 1097 414 1097 q 569 1060 533 1097 q 615 949 606 1022 q 609 944 617 944 q 600 947 601 943 q 553 1012 590 985 q 474 1039 517 1039 q 392 1012 429 1039 q 346 947 356 985 z "},"Ā":{"ha":975,"x_min":-6,"x_max":976,"o":"m 317 489 l 603 489 l 613 460 l 296 460 l 317 489 m 971 17 q 976 8 976 17 q 971 0 976 0 q 889 3 944 0 q 808 6 833 6 q 731 3 778 6 q 663 0 686 0 q 657 8 657 0 q 663 17 657 17 q 738 26 715 17 q 761 61 761 36 q 744 119 761 82 l 436 771 l 471 814 l 201 176 q 182 99 182 129 q 318 17 182 17 q 325 8 325 17 q 318 0 325 0 q 246 3 293 0 q 154 6 193 6 q 71 3 118 6 q 1 0 29 0 q -6 8 -6 0 q 1 17 -6 17 q 67 31 40 17 q 119 83 94 46 q 172 189 143 119 l 465 881 q 475 885 468 885 q 483 881 482 885 l 811 190 q 892 52 858 88 q 971 17 925 17 m 299 1003 q 290 1022 290 1003 q 299 1042 290 1042 l 647 1042 q 657 1022 657 1042 q 647 1003 657 1003 l 299 1003 z "},"Ą":{"ha":978,"x_min":-6,"x_max":976,"o":"m 751 -382 q 625 -341 671 -382 q 579 -231 579 -300 q 606 -134 579 -174 q 682 -47 632 -94 q 739 13 721 -11 q 757 68 757 38 q 744 117 757 90 l 435 764 l 471 814 l 201 176 q 182 99 182 129 q 318 17 182 17 q 325 8 325 17 q 318 0 325 0 q 246 3 293 0 q 154 6 193 6 q 71 3 118 6 q 1 0 29 0 q -6 8 -6 0 q 1 17 -6 17 q 67 31 40 17 q 119 83 94 46 q 172 189 143 119 l 465 881 q 475 885 468 885 q 483 881 482 885 l 811 188 q 892 49 858 86 q 971 13 926 13 q 976 5 976 13 q 971 -3 976 -3 q 896 0 940 -3 l 838 1 q 710 -49 763 1 q 658 -179 658 -100 q 697 -293 658 -246 q 810 -340 735 -340 q 888 -322 851 -340 l 889 -322 q 897 -326 893 -322 q 897 -333 900 -331 q 751 -382 835 -382 m 319 489 l 606 489 l 615 460 l 299 460 l 319 489 z "},"Å":{"ha":975,"x_min":-6,"x_max":976,"o":"m 317 489 l 603 489 l 613 460 l 296 460 l 317 489 m 971 17 q 976 8 976 17 q 971 0 976 0 q 889 3 944 0 q 808 6 833 6 q 731 3 778 6 q 663 0 686 0 q 657 8 657 0 q 663 17 657 17 q 738 26 715 17 q 761 61 761 36 q 744 119 761 82 l 436 771 l 471 814 l 201 176 q 182 99 182 129 q 318 17 182 17 q 325 8 325 17 q 318 0 325 0 q 246 3 293 0 q 154 6 193 6 q 71 3 118 6 q 1 0 29 0 q -6 8 -6 0 q 1 17 -6 17 q 67 31 40 17 q 119 83 94 46 q 172 189 143 119 l 465 881 q 475 885 468 885 q 483 881 482 885 l 811 190 q 892 52 858 88 q 971 17 925 17 m 467 922 q 379 956 413 922 q 346 1033 346 989 q 388 1112 346 1083 q 481 1140 429 1140 q 567 1108 531 1140 q 603 1031 603 1076 q 561 952 603 982 q 467 922 519 922 m 488 938 q 526 953 514 938 q 539 1006 539 969 q 514 1090 539 1054 q 453 1126 489 1126 q 419 1110 429 1126 q 408 1061 408 1094 q 430 976 408 1014 q 488 938 451 938 z "},"Ǻ":{"ha":975,"x_min":-6,"x_max":976,"o":"m 317 489 l 603 489 l 613 460 l 296 460 l 317 489 m 971 17 q 976 8 976 17 q 971 0 976 0 q 889 3 944 0 q 808 6 833 6 q 731 3 778 6 q 663 0 686 0 q 657 8 657 0 q 663 17 657 17 q 738 26 715 17 q 761 61 761 36 q 744 119 761 82 l 436 771 l 471 814 l 201 176 q 182 99 182 129 q 318 17 182 17 q 325 8 325 17 q 318 0 325 0 q 246 3 293 0 q 154 6 193 6 q 71 3 118 6 q 1 0 29 0 q -6 8 -6 0 q 1 17 -6 17 q 67 31 40 17 q 119 83 94 46 q 172 189 143 119 l 465 881 q 475 885 468 885 q 483 881 482 885 l 811 190 q 892 52 858 88 q 971 17 925 17 m 464 938 q 378 965 411 938 q 346 1032 346 993 q 387 1099 346 1074 q 478 1124 428 1124 q 564 1096 528 1124 q 600 1029 600 1068 q 559 963 600 988 q 464 938 518 938 m 486 953 q 524 965 513 953 q 536 1004 536 978 q 512 1078 536 1047 q 451 1108 488 1108 q 404 1060 404 1108 q 427 986 404 1019 q 486 953 450 953 m 344 1129 q 338 1135 340 1129 q 340 1143 336 1142 q 447 1197 431 1189 l 529 1239 q 559 1233 535 1243 q 603 1212 583 1224 q 613 1199 622 1200 q 347 1129 493 1176 l 344 1129 z "},"Ã":{"ha":975,"x_min":-6,"x_max":976,"o":"m 317 489 l 603 489 l 613 460 l 296 460 l 317 489 m 971 17 q 976 8 976 17 q 971 0 976 0 q 889 3 944 0 q 808 6 833 6 q 731 3 778 6 q 663 0 686 0 q 657 8 657 0 q 663 17 657 17 q 738 26 715 17 q 761 61 761 36 q 744 119 761 82 l 436 771 l 471 814 l 201 176 q 182 99 182 129 q 318 17 182 17 q 325 8 325 17 q 318 0 325 0 q 246 3 293 0 q 154 6 193 6 q 71 3 118 6 q 1 0 29 0 q -6 8 -6 0 q 1 17 -6 17 q 67 31 40 17 q 119 83 94 46 q 172 189 143 119 l 465 881 q 475 885 468 885 q 483 881 482 885 l 811 190 q 892 52 858 88 q 971 17 925 17 m 581 1047 q 618 1057 604 1047 q 649 1085 632 1067 l 650 1085 q 658 1081 654 1085 q 658 1075 661 1078 q 599 1006 622 1024 q 549 989 575 989 q 464 1006 519 989 q 428 1015 458 1007 q 368 1024 399 1024 q 334 1017 346 1024 q 313 1000 322 1010 q 299 986 304 990 l 296 986 q 289 990 292 986 q 289 996 286 993 q 344 1054 313 1028 q 407 1081 375 1081 q 476 1067 426 1081 q 581 1047 540 1047 z "},"Æ":{"ha":1214,"x_min":-3,"x_max":1146,"o":"m 4 0 q -3 8 -3 0 q 4 17 -3 17 q 100 60 47 17 q 208 183 153 103 l 629 797 q 647 832 647 822 q 624 848 647 844 q 540 851 601 851 q 538 860 538 851 q 540 868 538 868 l 1088 868 q 1100 856 1100 868 l 1103 685 q 1095 680 1103 681 q 1088 683 1088 679 q 1042 794 1085 749 q 939 839 1000 839 l 863 839 q 792 832 815 839 q 760 808 769 825 q 751 754 751 790 l 751 118 q 760 62 751 81 q 791 36 768 43 q 860 29 814 29 l 961 29 q 1068 79 1021 29 q 1129 207 1115 129 q 1135 210 1129 210 q 1142 208 1139 210 q 1146 204 1146 206 q 1133 21 1133 117 q 1128 5 1133 10 q 1111 0 1124 0 l 544 0 q 542 8 542 0 q 544 17 542 17 q 622 24 597 17 q 654 51 646 31 q 663 113 663 71 l 663 817 l 697 839 l 244 175 q 203 76 203 115 q 311 17 203 17 q 318 8 318 17 q 311 0 318 0 q 236 3 286 0 q 140 6 181 6 q 65 3 107 6 q 4 0 26 0 m 424 467 l 717 467 l 726 438 l 403 438 l 424 467 m 1033 324 q 1003 411 1033 385 q 904 438 974 438 l 701 438 l 701 467 l 907 467 q 1003 489 975 467 q 1032 564 1032 511 q 1040 567 1032 567 q 1049 564 1049 567 l 1047 451 q 1049 390 1047 411 l 1050 324 q 1042 321 1050 321 q 1033 324 1033 321 z "},"Ǽ":{"ha":1214,"x_min":-3,"x_max":1146,"o":"m 4 0 q -3 8 -3 0 q 4 17 -3 17 q 100 60 47 17 q 208 183 153 103 l 629 797 q 647 832 647 822 q 624 848 647 844 q 540 851 601 851 q 538 860 538 851 q 540 868 538 868 l 1088 868 q 1100 856 1100 868 l 1103 685 q 1095 680 1103 681 q 1088 683 1088 679 q 1042 794 1085 749 q 939 839 1000 839 l 863 839 q 792 832 815 839 q 760 808 769 825 q 751 754 751 790 l 751 118 q 760 62 751 81 q 791 36 768 43 q 860 29 814 29 l 961 29 q 1068 79 1021 29 q 1129 207 1115 129 q 1135 210 1129 210 q 1142 208 1139 210 q 1146 204 1146 206 q 1133 21 1133 117 q 1128 5 1133 10 q 1111 0 1124 0 l 544 0 q 542 8 542 0 q 544 17 542 17 q 622 24 597 17 q 654 51 646 31 q 663 113 663 71 l 663 817 l 697 839 l 244 175 q 203 76 203 115 q 311 17 203 17 q 318 8 318 17 q 311 0 318 0 q 236 3 286 0 q 140 6 181 6 q 65 3 107 6 q 4 0 26 0 m 424 467 l 717 467 l 726 438 l 403 438 l 424 467 m 1033 324 q 1003 411 1033 385 q 904 438 974 438 l 701 438 l 701 467 l 907 467 q 1003 489 975 467 q 1032 564 1032 511 q 1040 567 1032 567 q 1049 564 1049 567 l 1047 451 q 1049 390 1047 411 l 1050 324 q 1042 321 1050 321 q 1033 324 1033 321 m 667 942 q 660 948 661 942 q 663 957 658 954 q 814 1043 708 982 q 858 1071 839 1060 q 889 1089 876 1082 q 922 1083 894 1092 q 968 1063 949 1074 q 978 1050 988 1051 q 820 1003 892 1029 q 669 943 749 978 l 667 942 z "},"Ǣ":{"ha":1214,"x_min":-3,"x_max":1146,"o":"m 4 0 q -3 8 -3 0 q 4 17 -3 17 q 100 60 47 17 q 208 183 153 103 l 629 797 q 647 832 647 822 q 624 848 647 844 q 540 851 601 851 q 538 860 538 851 q 540 868 538 868 l 1088 868 q 1100 856 1100 868 l 1103 685 q 1095 680 1103 681 q 1088 683 1088 679 q 1042 794 1085 749 q 939 839 1000 839 l 863 839 q 792 832 815 839 q 760 808 769 825 q 751 754 751 790 l 751 118 q 760 62 751 81 q 791 36 768 43 q 860 29 814 29 l 961 29 q 1068 79 1021 29 q 1129 207 1115 129 q 1135 210 1129 210 q 1142 208 1139 210 q 1146 204 1146 206 q 1133 21 1133 117 q 1128 5 1133 10 q 1111 0 1124 0 l 544 0 q 542 8 542 0 q 544 17 542 17 q 622 24 597 17 q 654 51 646 31 q 663 113 663 71 l 663 817 l 697 839 l 244 175 q 203 76 203 115 q 311 17 203 17 q 318 8 318 17 q 311 0 318 0 q 236 3 286 0 q 140 6 181 6 q 65 3 107 6 q 4 0 26 0 m 424 467 l 717 467 l 726 438 l 403 438 l 424 467 m 1033 324 q 1003 411 1033 385 q 904 438 974 438 l 701 438 l 701 467 l 907 467 q 1003 489 975 467 q 1032 564 1032 511 q 1040 567 1032 567 q 1049 564 1049 567 l 1047 451 q 1049 390 1047 411 l 1050 324 q 1042 321 1050 321 q 1033 324 1033 321 m 629 1003 q 621 1022 621 1003 q 629 1042 621 1042 l 978 1042 q 986 1022 986 1042 q 978 1003 986 1003 l 629 1003 z "},"B":{"ha":775,"x_min":57,"x_max":706,"o":"m 432 490 q 575 460 513 490 q 672 376 638 429 q 706 256 706 322 q 669 122 706 182 q 570 28 633 63 q 429 -6 507 -6 q 329 -1 383 -6 q 283 1 310 0 q 225 3 257 3 l 131 1 q 60 0 106 0 q 57 8 57 0 q 60 17 57 17 q 138 24 113 17 q 172 51 163 32 q 182 113 182 71 l 182 756 q 173 817 182 797 q 139 844 164 836 q 63 851 114 851 q 58 860 58 851 q 63 868 58 868 l 131 867 q 225 864 189 864 q 272 865 250 864 q 308 868 293 867 q 389 872 353 872 q 564 822 506 872 q 622 689 622 771 q 566 555 622 611 q 417 475 510 499 l 432 490 m 358 851 q 304 846 321 851 q 279 819 288 840 q 271 753 271 799 l 271 481 l 226 492 q 333 488 286 488 q 483 540 435 488 q 532 678 532 592 q 490 803 532 756 q 358 851 447 851 m 408 19 q 559 72 510 19 q 608 221 608 124 q 547 392 608 326 q 376 458 485 457 q 231 451 297 461 l 271 467 l 271 113 q 281 57 271 76 q 322 28 292 38 q 408 19 351 19 z "},"C":{"ha":929,"x_min":68,"x_max":869,"o":"m 576 883 q 711 871 643 883 q 819 835 779 858 q 835 823 832 829 q 840 801 839 817 l 856 646 q 849 641 856 642 q 840 644 842 640 q 727 802 810 751 q 522 853 644 853 q 338 806 417 853 q 215 675 258 760 q 172 479 172 590 q 226 240 172 350 q 370 67 279 131 q 567 3 461 3 q 740 58 667 3 q 853 226 814 113 q 858 231 853 231 q 866 229 863 231 q 869 225 869 228 l 850 68 q 844 47 847 51 q 828 36 840 42 q 564 -17 703 -17 q 285 51 397 -17 q 121 222 174 118 q 68 442 68 326 q 139 671 68 569 q 326 828 210 772 q 576 883 443 883 z "},"Ć":{"ha":929,"x_min":68,"x_max":869,"o":"m 576 883 q 711 871 643 883 q 819 835 779 858 q 835 823 832 829 q 840 801 839 817 l 856 646 q 849 641 856 642 q 840 644 842 640 q 727 802 810 751 q 522 853 644 853 q 338 806 417 853 q 215 675 258 760 q 172 479 172 590 q 226 240 172 350 q 370 67 279 131 q 567 3 461 3 q 740 58 667 3 q 853 226 814 113 q 858 231 853 231 q 866 229 863 231 q 869 225 869 228 l 850 68 q 844 47 847 51 q 828 36 840 42 q 564 -17 703 -17 q 285 51 397 -17 q 121 222 174 118 q 68 442 68 326 q 139 671 68 569 q 326 828 210 772 q 576 883 443 883 m 389 942 q 382 948 383 942 q 385 957 381 954 q 536 1043 431 982 q 580 1071 561 1060 q 611 1089 599 1082 q 644 1083 617 1092 q 690 1063 671 1074 q 700 1050 710 1051 q 542 1003 614 1029 q 392 943 471 978 l 389 942 z "},"Č":{"ha":929,"x_min":68,"x_max":869,"o":"m 576 883 q 711 871 643 883 q 819 835 779 858 q 835 823 832 829 q 840 801 839 817 l 856 646 q 849 641 856 642 q 840 644 842 640 q 727 802 810 751 q 522 853 644 853 q 338 806 417 853 q 215 675 258 760 q 172 479 172 590 q 226 240 172 350 q 370 67 279 131 q 567 3 461 3 q 740 58 667 3 q 853 226 814 113 q 858 231 853 231 q 866 229 863 231 q 869 225 869 228 l 850 68 q 844 47 847 51 q 828 36 840 42 q 564 -17 703 -17 q 285 51 397 -17 q 121 222 174 118 q 68 442 68 326 q 139 671 68 569 q 326 828 210 772 q 576 883 443 883 m 367 1089 q 366 1090 367 1089 q 365 1090 365 1090 q 369 1097 365 1093 q 375 1099 372 1100 l 526 1018 l 676 1099 l 678 1099 q 685 1094 682 1099 q 683 1089 688 1090 l 542 954 q 526 949 536 949 q 510 954 515 949 l 367 1089 z "},"Ç":{"ha":929,"x_min":68,"x_max":869,"o":"m 576 883 q 711 871 643 883 q 819 835 779 858 q 835 823 832 829 q 840 801 839 817 l 856 646 q 849 641 856 642 q 840 644 842 640 q 727 802 810 751 q 522 853 644 853 q 338 806 417 853 q 215 675 258 760 q 172 479 172 590 q 226 240 172 350 q 370 67 279 131 q 567 3 461 3 q 740 58 667 3 q 853 226 814 113 q 858 231 853 231 q 866 229 863 231 q 869 225 869 228 l 850 68 q 844 47 847 51 q 828 36 840 42 q 564 -17 703 -17 q 285 51 397 -17 q 121 222 174 118 q 68 442 68 326 q 139 671 68 569 q 326 828 210 772 q 576 883 443 883 m 542 -3 q 524 -81 524 -57 q 535 -110 524 -100 q 583 -142 546 -119 q 638 -186 618 -161 q 658 -249 658 -211 q 622 -341 658 -300 q 515 -382 586 -382 q 451 -368 476 -382 q 425 -329 425 -354 q 438 -299 425 -311 q 468 -287 450 -287 q 492 -295 483 -287 q 508 -318 500 -303 q 527 -345 517 -336 q 558 -354 538 -354 q 606 -301 606 -354 q 580 -237 606 -265 q 488 -172 554 -208 q 472 -164 478 -168 q 467 -154 467 -160 q 475 -131 467 -147 q 510 -42 482 -112 q 517 -21 513 -31 q 524 -1 521 -11 l 542 -3 z "},"Ĉ":{"ha":929,"x_min":68,"x_max":869,"o":"m 576 883 q 711 871 643 883 q 819 835 779 858 q 835 823 832 829 q 840 801 839 817 l 856 646 q 849 641 856 642 q 840 644 842 640 q 727 802 810 751 q 522 853 644 853 q 338 806 417 853 q 215 675 258 760 q 172 479 172 590 q 226 240 172 350 q 370 67 279 131 q 567 3 461 3 q 740 58 667 3 q 853 226 814 113 q 858 231 853 231 q 866 229 863 231 q 869 225 869 228 l 850 68 q 844 47 847 51 q 828 36 840 42 q 564 -17 703 -17 q 285 51 397 -17 q 121 222 174 118 q 68 442 68 326 q 139 671 68 569 q 326 828 210 772 q 576 883 443 883 m 511 1097 q 528 1104 518 1104 q 543 1097 536 1104 l 685 961 q 686 958 686 961 q 683 953 686 956 q 678 951 679 950 l 528 1032 l 376 951 q 369 955 374 950 q 368 961 365 960 l 511 1097 z "},"Ċ":{"ha":929,"x_min":68,"x_max":869,"o":"m 576 883 q 711 871 643 883 q 819 835 779 858 q 835 823 832 829 q 840 801 839 817 l 856 646 q 849 641 856 642 q 840 644 842 640 q 727 802 810 751 q 522 853 644 853 q 338 806 417 853 q 215 675 258 760 q 172 479 172 590 q 226 240 172 350 q 370 67 279 131 q 567 3 461 3 q 740 58 667 3 q 853 226 814 113 q 858 231 853 231 q 866 229 863 231 q 869 225 869 228 l 850 68 q 844 47 847 51 q 828 36 840 42 q 564 -17 703 -17 q 285 51 397 -17 q 121 222 174 118 q 68 442 68 326 q 139 671 68 569 q 326 828 210 772 q 576 883 443 883 m 526 990 q 482 1006 499 990 q 465 1050 465 1022 q 482 1092 465 1076 q 526 1108 499 1108 q 569 1093 554 1108 q 585 1050 585 1078 q 569 1006 585 1022 q 526 990 554 990 z "},"D":{"ha":960,"x_min":46,"x_max":892,"o":"m 421 -6 q 328 -1 381 -6 q 278 1 308 0 q 213 3 249 3 l 118 1 q 49 0 93 0 q 46 8 46 0 q 49 17 46 17 q 126 24 101 17 q 159 51 150 31 q 168 113 168 71 l 168 756 q 160 817 168 797 q 127 844 151 836 q 50 851 103 851 q 47 860 47 851 q 50 868 47 868 l 119 867 q 213 864 178 864 q 317 868 265 864 q 401 871 378 871 q 657 815 546 871 q 830 664 768 760 q 892 449 892 568 q 828 210 892 314 q 657 51 765 107 q 421 -6 549 -6 m 407 15 q 604 62 518 15 q 738 199 690 108 q 786 418 786 290 q 740 638 786 539 q 610 793 694 736 q 414 850 525 850 q 322 843 354 850 q 274 815 289 836 q 258 753 258 794 l 258 128 q 270 63 258 86 q 315 27 282 39 q 407 15 347 15 z "},"Ð":{"ha":960,"x_min":46,"x_max":892,"o":"m 74 418 q 68 432 68 418 q 74 446 68 446 l 447 446 q 453 432 453 446 q 447 418 453 418 l 74 418 m 421 -6 q 328 -1 381 -6 q 278 1 308 0 q 213 3 249 3 l 118 1 q 49 0 93 0 q 46 8 46 0 q 49 17 46 17 q 126 24 101 17 q 159 51 150 31 q 168 113 168 71 l 168 756 q 160 817 168 797 q 127 844 151 836 q 50 851 103 851 q 47 860 47 851 q 50 868 47 868 l 119 867 q 213 864 178 864 q 317 868 265 864 q 401 871 378 871 q 657 815 546 871 q 830 664 768 760 q 892 449 892 568 q 828 210 892 314 q 657 51 765 107 q 421 -6 549 -6 m 407 15 q 604 62 518 15 q 738 199 690 108 q 786 418 786 290 q 740 638 786 539 q 610 793 694 736 q 414 850 525 850 q 322 843 354 850 q 274 815 289 836 q 258 753 258 794 l 258 128 q 270 63 258 86 q 315 27 282 39 q 407 15 347 15 z "},"Ď":{"ha":960,"x_min":46,"x_max":892,"o":"m 421 -6 q 328 -1 381 -6 q 278 1 308 0 q 213 3 249 3 l 118 1 q 49 0 93 0 q 46 8 46 0 q 49 17 46 17 q 126 24 101 17 q 159 51 150 31 q 168 113 168 71 l 168 756 q 160 817 168 797 q 127 844 151 836 q 50 851 103 851 q 47 860 47 851 q 50 868 47 868 l 119 867 q 213 864 178 864 q 317 868 265 864 q 401 871 378 871 q 657 815 546 871 q 830 664 768 760 q 892 449 892 568 q 828 210 892 314 q 657 51 765 107 q 421 -6 549 -6 m 407 15 q 604 62 518 15 q 738 199 690 108 q 786 418 786 290 q 740 638 786 539 q 610 793 694 736 q 414 850 525 850 q 322 843 354 850 q 274 815 289 836 q 258 753 258 794 l 258 128 q 270 63 258 86 q 315 27 282 39 q 407 15 347 15 m 282 1089 q 281 1090 282 1089 q 281 1090 281 1090 q 284 1097 281 1093 q 290 1099 288 1100 l 442 1018 l 592 1099 l 593 1099 q 600 1094 597 1099 q 599 1089 603 1090 l 457 954 q 442 949 451 949 q 425 954 431 949 l 282 1089 z "},"Đ":{"ha":960,"x_min":46,"x_max":892,"o":"m 74 418 q 68 432 68 418 q 74 446 68 446 l 447 446 q 453 432 453 446 q 447 418 453 418 l 74 418 m 421 -6 q 328 -1 381 -6 q 278 1 308 0 q 213 3 249 3 l 118 1 q 49 0 93 0 q 46 8 46 0 q 49 17 46 17 q 126 24 101 17 q 159 51 150 31 q 168 113 168 71 l 168 756 q 160 817 168 797 q 127 844 151 836 q 50 851 103 851 q 47 860 47 851 q 50 868 47 868 l 119 867 q 213 864 178 864 q 317 868 265 864 q 401 871 378 871 q 657 815 546 871 q 830 664 768 760 q 892 449 892 568 q 828 210 892 314 q 657 51 765 107 q 421 -6 549 -6 m 407 15 q 604 62 518 15 q 738 199 690 108 q 786 418 786 290 q 740 638 786 539 q 610 793 694 736 q 414 850 525 850 q 322 843 354 850 q 274 815 289 836 q 258 753 258 794 l 258 128 q 270 63 258 86 q 315 27 282 39 q 407 15 347 15 z "},"Ḍ":{"ha":960,"x_min":46,"x_max":892,"o":"m 421 -6 q 328 -1 381 -6 q 278 1 308 0 q 213 3 249 3 l 118 1 q 49 0 93 0 q 46 8 46 0 q 49 17 46 17 q 126 24 101 17 q 159 51 150 31 q 168 113 168 71 l 168 756 q 160 817 168 797 q 127 844 151 836 q 50 851 103 851 q 47 860 47 851 q 50 868 47 868 l 119 867 q 213 864 178 864 q 317 868 265 864 q 401 871 378 871 q 657 815 546 871 q 830 664 768 760 q 892 449 892 568 q 828 210 892 314 q 657 51 765 107 q 421 -6 549 -6 m 407 15 q 604 62 518 15 q 738 199 690 108 q 786 418 786 290 q 740 638 786 539 q 610 793 694 736 q 414 850 525 850 q 322 843 354 850 q 274 815 289 836 q 258 753 258 794 l 258 128 q 270 63 258 86 q 315 27 282 39 q 407 15 347 15 m 450 -264 q 405 -249 421 -264 q 389 -206 389 -233 q 405 -162 389 -178 q 450 -147 421 -147 q 493 -162 478 -147 q 508 -206 508 -178 q 493 -249 508 -233 q 450 -264 478 -264 z "},"Ḏ":{"ha":960,"x_min":46,"x_max":892,"o":"m 421 -6 q 328 -1 381 -6 q 278 1 308 0 q 213 3 249 3 l 118 1 q 49 0 93 0 q 46 8 46 0 q 49 17 46 17 q 126 24 101 17 q 159 51 150 31 q 168 113 168 71 l 168 756 q 160 817 168 797 q 127 844 151 836 q 50 851 103 851 q 47 860 47 851 q 50 868 47 868 l 119 867 q 213 864 178 864 q 317 868 265 864 q 401 871 378 871 q 657 815 546 871 q 830 664 768 760 q 892 449 892 568 q 828 210 892 314 q 657 51 765 107 q 421 -6 549 -6 m 407 15 q 604 62 518 15 q 738 199 690 108 q 786 418 786 290 q 740 638 786 539 q 610 793 694 736 q 414 850 525 850 q 322 843 354 850 q 274 815 289 836 q 258 753 258 794 l 258 128 q 270 63 258 86 q 315 27 282 39 q 407 15 347 15 m 274 -157 q 265 -137 265 -157 q 274 -118 265 -118 l 622 -118 q 631 -137 631 -118 q 622 -157 631 -157 l 274 -157 z "},"E":{"ha":746,"x_min":57,"x_max":676,"o":"m 60 0 q 57 8 57 0 q 60 17 57 17 q 137 24 113 17 q 170 51 161 31 q 179 113 179 71 l 179 756 q 170 817 179 797 q 137 844 161 836 q 60 851 113 851 q 57 860 57 851 q 60 868 57 868 l 618 868 q 631 856 631 868 l 633 685 q 626 680 633 681 q 618 683 618 679 q 574 798 614 757 q 467 839 533 839 l 382 839 q 310 831 333 839 q 277 806 286 824 q 268 749 268 788 l 268 118 q 277 62 268 81 q 308 36 286 43 q 378 29 331 29 l 489 29 q 600 76 556 29 q 660 207 644 124 q 665 210 660 210 q 673 208 669 210 q 676 204 676 206 q 664 21 664 117 q 659 5 664 10 q 642 0 654 0 l 60 0 m 564 324 q 534 411 564 385 q 435 438 504 438 l 226 438 l 226 467 l 439 467 q 534 489 506 467 q 563 564 563 511 q 571 567 563 567 q 579 564 579 567 l 578 451 q 579 390 578 411 l 581 324 q 572 321 581 321 q 564 324 564 321 z "},"É":{"ha":746,"x_min":57,"x_max":676,"o":"m 60 0 q 57 8 57 0 q 60 17 57 17 q 137 24 113 17 q 170 51 161 31 q 179 113 179 71 l 179 756 q 170 817 179 797 q 137 844 161 836 q 60 851 113 851 q 57 860 57 851 q 60 868 57 868 l 618 868 q 631 856 631 868 l 633 685 q 626 680 633 681 q 618 683 618 679 q 574 798 614 757 q 467 839 533 839 l 382 839 q 310 831 333 839 q 277 806 286 824 q 268 749 268 788 l 268 118 q 277 62 268 81 q 308 36 286 43 q 378 29 331 29 l 489 29 q 600 76 556 29 q 660 207 644 124 q 665 210 660 210 q 673 208 669 210 q 676 204 676 206 q 664 21 664 117 q 659 5 664 10 q 642 0 654 0 l 60 0 m 564 324 q 534 411 564 385 q 435 438 504 438 l 226 438 l 226 467 l 439 467 q 534 489 506 467 q 563 564 563 511 q 571 567 563 567 q 579 564 579 567 l 578 451 q 579 390 578 411 l 581 324 q 572 321 581 321 q 564 324 564 321 m 268 942 q 261 948 263 942 q 264 957 260 954 q 356 1008 311 981 q 411 1042 400 1035 l 489 1089 q 523 1083 496 1092 q 570 1063 550 1074 q 579 1050 590 1051 q 422 1003 493 1029 q 271 943 350 978 l 268 942 z "},"Ĕ":{"ha":746,"x_min":57,"x_max":676,"o":"m 60 0 q 57 8 57 0 q 60 17 57 17 q 137 24 113 17 q 170 51 161 31 q 179 113 179 71 l 179 756 q 170 817 179 797 q 137 844 161 836 q 60 851 113 851 q 57 860 57 851 q 60 868 57 868 l 618 868 q 631 856 631 868 l 633 685 q 626 680 633 681 q 618 683 618 679 q 574 798 614 757 q 467 839 533 839 l 382 839 q 310 831 333 839 q 277 806 286 824 q 268 749 268 788 l 268 118 q 277 62 268 81 q 308 36 286 43 q 378 29 331 29 l 489 29 q 600 76 556 29 q 660 207 644 124 q 665 210 660 210 q 673 208 669 210 q 676 204 676 206 q 664 21 664 117 q 659 5 664 10 q 642 0 654 0 l 60 0 m 564 324 q 534 411 564 385 q 435 438 504 438 l 226 438 l 226 467 l 439 467 q 534 489 506 467 q 563 564 563 511 q 571 567 563 567 q 579 564 579 567 l 578 451 q 579 390 578 411 l 581 324 q 572 321 581 321 q 564 324 564 321 m 406 958 q 309 997 346 958 q 263 1107 272 1036 q 268 1113 261 1113 q 278 1111 275 1114 q 323 1046 286 1074 q 406 1018 360 1018 q 485 1046 449 1018 q 532 1111 522 1074 q 536 1114 532 1114 q 544 1112 540 1114 q 547 1107 547 1110 q 500 997 536 1035 q 406 958 464 958 z "},"Ě":{"ha":746,"x_min":57,"x_max":676,"o":"m 60 0 q 57 8 57 0 q 60 17 57 17 q 137 24 113 17 q 170 51 161 31 q 179 113 179 71 l 179 756 q 170 817 179 797 q 137 844 161 836 q 60 851 113 851 q 57 860 57 851 q 60 868 57 868 l 618 868 q 631 856 631 868 l 633 685 q 626 680 633 681 q 618 683 618 679 q 574 798 614 757 q 467 839 533 839 l 382 839 q 310 831 333 839 q 277 806 286 824 q 268 749 268 788 l 268 118 q 277 62 268 81 q 308 36 286 43 q 378 29 331 29 l 489 29 q 600 76 556 29 q 660 207 644 124 q 665 210 660 210 q 673 208 669 210 q 676 204 676 206 q 664 21 664 117 q 659 5 664 10 q 642 0 654 0 l 60 0 m 564 324 q 534 411 564 385 q 435 438 504 438 l 226 438 l 226 467 l 439 467 q 534 489 506 467 q 563 564 563 511 q 571 567 563 567 q 579 564 579 567 l 578 451 q 579 390 578 411 l 581 324 q 572 321 581 321 q 564 324 564 321 m 246 1089 q 245 1090 246 1089 q 244 1090 244 1090 q 248 1097 244 1093 q 254 1099 251 1100 l 406 1018 l 556 1099 l 557 1099 q 563 1094 560 1099 q 563 1089 565 1090 l 421 954 q 406 949 415 949 q 389 954 394 949 l 246 1089 z "},"Ê":{"ha":746,"x_min":57,"x_max":676,"o":"m 60 0 q 57 8 57 0 q 60 17 57 17 q 137 24 113 17 q 170 51 161 31 q 179 113 179 71 l 179 756 q 170 817 179 797 q 137 844 161 836 q 60 851 113 851 q 57 860 57 851 q 60 868 57 868 l 618 868 q 631 856 631 868 l 633 685 q 626 680 633 681 q 618 683 618 679 q 574 798 614 757 q 467 839 533 839 l 382 839 q 310 831 333 839 q 277 806 286 824 q 268 749 268 788 l 268 118 q 277 62 268 81 q 308 36 286 43 q 378 29 331 29 l 489 29 q 600 76 556 29 q 660 207 644 124 q 665 210 660 210 q 673 208 669 210 q 676 204 676 206 q 664 21 664 117 q 659 5 664 10 q 642 0 654 0 l 60 0 m 564 324 q 534 411 564 385 q 435 438 504 438 l 226 438 l 226 467 l 439 467 q 534 489 506 467 q 563 564 563 511 q 571 567 563 567 q 579 564 579 567 l 578 451 q 579 390 578 411 l 581 324 q 572 321 581 321 q 564 324 564 321 m 390 1097 q 407 1104 397 1104 q 422 1097 415 1104 l 564 961 q 565 958 565 961 q 562 953 565 956 q 557 951 558 950 l 407 1032 l 256 951 q 249 955 253 950 q 247 961 244 960 l 390 1097 z "},"Ế":{"ha":746,"x_min":57,"x_max":693,"o":"m 60 0 q 57 8 57 0 q 60 17 57 17 q 137 24 113 17 q 170 51 161 31 q 179 113 179 71 l 179 756 q 170 817 179 797 q 137 844 161 836 q 60 851 113 851 q 57 860 57 851 q 60 868 57 868 l 618 868 q 631 856 631 868 l 633 685 q 626 680 633 681 q 618 683 618 679 q 574 798 614 757 q 467 839 533 839 l 382 839 q 310 831 333 839 q 277 806 286 824 q 268 749 268 788 l 268 118 q 277 62 268 81 q 308 36 286 43 q 378 29 331 29 l 489 29 q 600 76 556 29 q 660 207 644 124 q 665 210 660 210 q 673 208 669 210 q 676 204 676 206 q 664 21 664 117 q 659 5 664 10 q 642 0 654 0 l 60 0 m 564 324 q 534 411 564 385 q 435 438 504 438 l 226 438 l 226 467 l 439 467 q 534 489 506 467 q 563 564 563 511 q 571 567 563 567 q 579 564 579 567 l 578 451 q 579 390 578 411 l 581 324 q 572 321 581 321 q 564 324 564 321 m 389 1089 q 406 1096 396 1096 q 421 1089 414 1096 l 563 954 q 564 951 564 954 q 560 946 564 949 q 556 944 557 943 l 406 1025 l 254 944 q 247 948 251 943 q 246 954 243 953 l 389 1089 m 496 1006 q 492 1004 494 1004 q 485 1009 488 1004 q 486 1017 483 1014 q 592 1151 540 1076 q 623 1148 596 1157 q 672 1127 650 1139 q 682 1113 693 1115 q 496 1006 592 1076 z "},"Ệ":{"ha":746,"x_min":57,"x_max":676,"o":"m 60 0 q 57 8 57 0 q 60 17 57 17 q 137 24 113 17 q 170 51 161 31 q 179 113 179 71 l 179 756 q 170 817 179 797 q 137 844 161 836 q 60 851 113 851 q 57 860 57 851 q 60 868 57 868 l 618 868 q 631 856 631 868 l 633 685 q 626 680 633 681 q 618 683 618 679 q 574 798 614 757 q 467 839 533 839 l 382 839 q 310 831 333 839 q 277 806 286 824 q 268 749 268 788 l 268 118 q 277 62 268 81 q 308 36 286 43 q 378 29 331 29 l 489 29 q 600 76 556 29 q 660 207 644 124 q 665 210 660 210 q 673 208 669 210 q 676 204 676 206 q 664 21 664 117 q 659 5 664 10 q 642 0 654 0 l 60 0 m 564 324 q 534 411 564 385 q 435 438 504 438 l 226 438 l 226 467 l 439 467 q 534 489 506 467 q 563 564 563 511 q 571 567 563 567 q 579 564 579 567 l 578 451 q 579 390 578 411 l 581 324 q 572 321 581 321 q 564 324 564 321 m 400 -264 q 355 -249 371 -264 q 339 -206 339 -233 q 355 -162 339 -178 q 400 -147 371 -147 q 443 -162 428 -147 q 458 -206 458 -178 q 443 -249 458 -233 q 400 -264 428 -264 m 389 1089 q 406 1096 396 1096 q 421 1089 414 1096 l 563 954 q 564 951 564 954 q 560 946 564 949 q 556 944 557 943 l 406 1025 l 254 944 q 247 948 251 943 q 246 954 243 953 l 389 1089 z "},"Ề":{"ha":746,"x_min":57,"x_max":676,"o":"m 60 0 q 57 8 57 0 q 60 17 57 17 q 137 24 113 17 q 170 51 161 31 q 179 113 179 71 l 179 756 q 170 817 179 797 q 137 844 161 836 q 60 851 113 851 q 57 860 57 851 q 60 868 57 868 l 618 868 q 631 856 631 868 l 633 685 q 626 680 633 681 q 618 683 618 679 q 574 798 614 757 q 467 839 533 839 l 382 839 q 310 831 333 839 q 277 806 286 824 q 268 749 268 788 l 268 118 q 277 62 268 81 q 308 36 286 43 q 378 29 331 29 l 489 29 q 600 76 556 29 q 660 207 644 124 q 665 210 660 210 q 673 208 669 210 q 676 204 676 206 q 664 21 664 117 q 659 5 664 10 q 642 0 654 0 l 60 0 m 564 324 q 534 411 564 385 q 435 438 504 438 l 226 438 l 226 467 l 439 467 q 534 489 506 467 q 563 564 563 511 q 571 567 563 567 q 579 564 579 567 l 578 451 q 579 390 578 411 l 581 324 q 572 321 581 321 q 564 324 564 321 m 389 1089 q 406 1096 396 1096 q 421 1089 414 1096 l 563 954 q 564 951 564 954 q 560 946 564 949 q 556 944 557 943 l 406 1025 l 254 944 q 247 948 251 943 q 246 954 243 953 l 389 1089 m 638 975 q 547 1036 589 1011 q 453 1082 504 1061 q 463 1097 442 1085 q 512 1117 485 1108 q 543 1121 539 1126 q 647 988 589 1054 l 650 982 q 646 976 650 978 q 638 975 642 974 z "},"Ể":{"ha":746,"x_min":57,"x_max":676,"o":"m 60 0 q 57 8 57 0 q 60 17 57 17 q 137 24 113 17 q 170 51 161 31 q 179 113 179 71 l 179 756 q 170 817 179 797 q 137 844 161 836 q 60 851 113 851 q 57 860 57 851 q 60 868 57 868 l 618 868 q 631 856 631 868 l 633 685 q 626 680 633 681 q 618 683 618 679 q 574 798 614 757 q 467 839 533 839 l 382 839 q 310 831 333 839 q 277 806 286 824 q 268 749 268 788 l 268 118 q 277 62 268 81 q 308 36 286 43 q 378 29 331 29 l 489 29 q 600 76 556 29 q 660 207 644 124 q 665 210 660 210 q 673 208 669 210 q 676 204 676 206 q 664 21 664 117 q 659 5 664 10 q 642 0 654 0 l 60 0 m 564 324 q 534 411 564 385 q 435 438 504 438 l 226 438 l 226 467 l 439 467 q 534 489 506 467 q 563 564 563 511 q 571 567 563 567 q 579 564 579 567 l 578 451 q 579 390 578 411 l 581 324 q 572 321 581 321 q 564 324 564 321 m 389 1089 q 406 1096 396 1096 q 421 1089 414 1096 l 563 954 q 564 951 564 954 q 560 946 564 949 q 556 944 557 943 l 406 1025 l 254 944 q 247 948 251 943 q 246 954 243 953 l 389 1089 m 517 1006 q 514 1024 514 1013 q 533 1075 514 1042 q 554 1128 554 1107 q 540 1160 554 1149 q 507 1171 525 1171 q 474 1164 490 1171 l 472 1164 q 464 1169 468 1164 q 464 1175 460 1174 q 508 1194 485 1188 q 547 1201 531 1201 q 596 1183 578 1201 q 614 1142 614 1165 q 602 1106 614 1122 q 569 1071 590 1090 q 538 1036 547 1050 q 532 1006 528 1022 q 526 1002 535 1003 q 517 1006 518 1001 z "},"Ễ":{"ha":746,"x_min":57,"x_max":676,"o":"m 60 0 q 57 8 57 0 q 60 17 57 17 q 137 24 113 17 q 170 51 161 31 q 179 113 179 71 l 179 756 q 170 817 179 797 q 137 844 161 836 q 60 851 113 851 q 57 860 57 851 q 60 868 57 868 l 618 868 q 631 856 631 868 l 633 685 q 626 680 633 681 q 618 683 618 679 q 574 798 614 757 q 467 839 533 839 l 382 839 q 310 831 333 839 q 277 806 286 824 q 268 749 268 788 l 268 118 q 277 62 268 81 q 308 36 286 43 q 378 29 331 29 l 489 29 q 600 76 556 29 q 660 207 644 124 q 665 210 660 210 q 673 208 669 210 q 676 204 676 206 q 664 21 664 117 q 659 5 664 10 q 642 0 654 0 l 60 0 m 564 324 q 534 411 564 385 q 435 438 504 438 l 226 438 l 226 467 l 439 467 q 534 489 506 467 q 563 564 563 511 q 571 567 563 567 q 579 564 579 567 l 578 451 q 579 390 578 411 l 581 324 q 572 321 581 321 q 564 324 564 321 m 389 1089 q 406 1096 396 1096 q 421 1089 414 1096 l 563 954 q 564 951 564 954 q 560 946 564 949 q 556 944 557 943 l 406 1025 l 254 944 q 247 948 251 943 q 246 954 243 953 l 389 1089 m 519 1164 q 557 1174 543 1164 q 588 1201 571 1183 l 589 1201 q 597 1198 593 1201 q 597 1192 600 1194 q 538 1124 561 1142 q 488 1106 514 1106 q 403 1122 458 1106 q 367 1132 397 1124 q 306 1140 338 1140 q 273 1133 285 1140 q 252 1117 261 1126 q 238 1103 243 1107 l 235 1103 q 228 1106 231 1103 q 228 1113 225 1110 q 283 1171 251 1144 q 346 1197 314 1197 q 415 1183 365 1197 q 519 1164 479 1164 z "},"Ȅ":{"ha":746,"x_min":57,"x_max":676,"o":"m 60 0 q 57 8 57 0 q 60 17 57 17 q 137 24 113 17 q 170 51 161 31 q 179 113 179 71 l 179 756 q 170 817 179 797 q 137 844 161 836 q 60 851 113 851 q 57 860 57 851 q 60 868 57 868 l 618 868 q 631 856 631 868 l 633 685 q 626 680 633 681 q 618 683 618 679 q 574 798 614 757 q 467 839 533 839 l 382 839 q 310 831 333 839 q 277 806 286 824 q 268 749 268 788 l 268 118 q 277 62 268 81 q 308 36 286 43 q 378 29 331 29 l 489 29 q 600 76 556 29 q 660 207 644 124 q 665 210 660 210 q 673 208 669 210 q 676 204 676 206 q 664 21 664 117 q 659 5 664 10 q 642 0 654 0 l 60 0 m 564 324 q 534 411 564 385 q 435 438 504 438 l 226 438 l 226 467 l 439 467 q 534 489 506 467 q 563 564 563 511 q 571 567 563 567 q 579 564 579 567 l 578 451 q 579 390 578 411 l 581 324 q 572 321 581 321 q 564 324 564 321 m 547 942 q 442 1006 486 981 q 343 1053 399 1031 q 354 1067 333 1057 q 402 1085 375 1078 q 433 1086 429 1092 q 558 954 492 1017 q 560 950 560 953 q 556 942 560 946 q 547 942 551 939 m 375 942 q 269 1008 310 983 q 175 1053 228 1032 q 185 1067 165 1057 q 231 1085 204 1078 q 261 1086 257 1092 q 386 954 319 1017 q 388 950 388 953 q 383 942 388 946 q 375 942 379 939 z "},"Ë":{"ha":746,"x_min":57,"x_max":676,"o":"m 60 0 q 57 8 57 0 q 60 17 57 17 q 137 24 113 17 q 170 51 161 31 q 179 113 179 71 l 179 756 q 170 817 179 797 q 137 844 161 836 q 60 851 113 851 q 57 860 57 851 q 60 868 57 868 l 618 868 q 631 856 631 868 l 633 685 q 626 680 633 681 q 618 683 618 679 q 574 798 614 757 q 467 839 533 839 l 382 839 q 310 831 333 839 q 277 806 286 824 q 268 749 268 788 l 268 118 q 277 62 268 81 q 308 36 286 43 q 378 29 331 29 l 489 29 q 600 76 556 29 q 660 207 644 124 q 665 210 660 210 q 673 208 669 210 q 676 204 676 206 q 664 21 664 117 q 659 5 664 10 q 642 0 654 0 l 60 0 m 564 324 q 534 411 564 385 q 435 438 504 438 l 226 438 l 226 467 l 439 467 q 534 489 506 467 q 563 564 563 511 q 571 567 563 567 q 579 564 579 567 l 578 451 q 579 390 578 411 l 581 324 q 572 321 581 321 q 564 324 564 321 m 285 996 q 241 1011 257 996 q 225 1053 225 1026 q 241 1094 225 1079 q 285 1110 257 1110 q 327 1095 313 1110 q 342 1053 342 1081 q 327 1011 342 1026 q 285 996 313 996 m 528 996 q 484 1011 500 996 q 468 1053 468 1026 q 484 1094 468 1079 q 528 1110 500 1110 q 570 1095 556 1110 q 585 1053 585 1081 q 570 1011 585 1026 q 528 996 556 996 z "},"Ė":{"ha":746,"x_min":57,"x_max":676,"o":"m 60 0 q 57 8 57 0 q 60 17 57 17 q 137 24 113 17 q 170 51 161 31 q 179 113 179 71 l 179 756 q 170 817 179 797 q 137 844 161 836 q 60 851 113 851 q 57 860 57 851 q 60 868 57 868 l 618 868 q 631 856 631 868 l 633 685 q 626 680 633 681 q 618 683 618 679 q 574 798 614 757 q 467 839 533 839 l 382 839 q 310 831 333 839 q 277 806 286 824 q 268 749 268 788 l 268 118 q 277 62 268 81 q 308 36 286 43 q 378 29 331 29 l 489 29 q 600 76 556 29 q 660 207 644 124 q 665 210 660 210 q 673 208 669 210 q 676 204 676 206 q 664 21 664 117 q 659 5 664 10 q 642 0 654 0 l 60 0 m 564 324 q 534 411 564 385 q 435 438 504 438 l 226 438 l 226 467 l 439 467 q 534 489 506 467 q 563 564 563 511 q 571 567 563 567 q 579 564 579 567 l 578 451 q 579 390 578 411 l 581 324 q 572 321 581 321 q 564 324 564 321 m 406 990 q 360 1006 376 990 q 344 1050 344 1022 q 360 1093 344 1078 q 406 1108 376 1108 q 449 1093 433 1108 q 464 1050 464 1078 q 449 1006 464 1022 q 406 990 433 990 z "},"Ẹ":{"ha":746,"x_min":57,"x_max":676,"o":"m 60 0 q 57 8 57 0 q 60 17 57 17 q 137 24 113 17 q 170 51 161 31 q 179 113 179 71 l 179 756 q 170 817 179 797 q 137 844 161 836 q 60 851 113 851 q 57 860 57 851 q 60 868 57 868 l 618 868 q 631 856 631 868 l 633 685 q 626 680 633 681 q 618 683 618 679 q 574 798 614 757 q 467 839 533 839 l 382 839 q 310 831 333 839 q 277 806 286 824 q 268 749 268 788 l 268 118 q 277 62 268 81 q 308 36 286 43 q 378 29 331 29 l 489 29 q 600 76 556 29 q 660 207 644 124 q 665 210 660 210 q 673 208 669 210 q 676 204 676 206 q 664 21 664 117 q 659 5 664 10 q 642 0 654 0 l 60 0 m 564 324 q 534 411 564 385 q 435 438 504 438 l 226 438 l 226 467 l 439 467 q 534 489 506 467 q 563 564 563 511 q 571 567 563 567 q 579 564 579 567 l 578 451 q 579 390 578 411 l 581 324 q 572 321 581 321 q 564 324 564 321 m 400 -264 q 355 -249 371 -264 q 339 -206 339 -233 q 355 -162 339 -178 q 400 -147 371 -147 q 443 -162 428 -147 q 458 -206 458 -178 q 443 -249 458 -233 q 400 -264 428 -264 z "},"È":{"ha":746,"x_min":57,"x_max":676,"o":"m 60 0 q 57 8 57 0 q 60 17 57 17 q 137 24 113 17 q 170 51 161 31 q 179 113 179 71 l 179 756 q 170 817 179 797 q 137 844 161 836 q 60 851 113 851 q 57 860 57 851 q 60 868 57 868 l 618 868 q 631 856 631 868 l 633 685 q 626 680 633 681 q 618 683 618 679 q 574 798 614 757 q 467 839 533 839 l 382 839 q 310 831 333 839 q 277 806 286 824 q 268 749 268 788 l 268 118 q 277 62 268 81 q 308 36 286 43 q 378 29 331 29 l 489 29 q 600 76 556 29 q 660 207 644 124 q 665 210 660 210 q 673 208 669 210 q 676 204 676 206 q 664 21 664 117 q 659 5 664 10 q 642 0 654 0 l 60 0 m 564 324 q 534 411 564 385 q 435 438 504 438 l 226 438 l 226 467 l 439 467 q 534 489 506 467 q 563 564 563 511 q 571 567 563 567 q 579 564 579 567 l 578 451 q 579 390 578 411 l 581 324 q 572 321 581 321 q 564 324 564 321 m 543 943 q 233 1050 386 1013 q 244 1063 224 1051 q 290 1083 264 1074 q 322 1089 317 1092 l 360 1065 q 549 957 469 997 q 551 951 551 956 q 549 944 551 947 q 543 943 546 942 z "},"Ẻ":{"ha":746,"x_min":57,"x_max":676,"o":"m 60 0 q 57 8 57 0 q 60 17 57 17 q 137 24 113 17 q 170 51 161 31 q 179 113 179 71 l 179 756 q 170 817 179 797 q 137 844 161 836 q 60 851 113 851 q 57 860 57 851 q 60 868 57 868 l 618 868 q 631 856 631 868 l 633 685 q 626 680 633 681 q 618 683 618 679 q 574 798 614 757 q 467 839 533 839 l 382 839 q 310 831 333 839 q 277 806 286 824 q 268 749 268 788 l 268 118 q 277 62 268 81 q 308 36 286 43 q 378 29 331 29 l 489 29 q 600 76 556 29 q 660 207 644 124 q 665 210 660 210 q 673 208 669 210 q 676 204 676 206 q 664 21 664 117 q 659 5 664 10 q 642 0 654 0 l 60 0 m 564 324 q 534 411 564 385 q 435 438 504 438 l 226 438 l 226 467 l 439 467 q 534 489 506 467 q 563 564 563 511 q 571 567 563 567 q 579 564 579 567 l 578 451 q 579 390 578 411 l 581 324 q 572 321 581 321 q 564 324 564 321 m 408 904 q 402 901 410 901 q 393 904 394 901 q 389 935 389 921 q 397 974 389 956 q 419 1015 404 993 q 440 1052 433 1038 q 446 1083 446 1067 q 429 1124 446 1110 q 388 1139 413 1139 q 349 1129 368 1139 l 347 1129 q 338 1134 342 1129 q 339 1140 335 1139 q 429 1169 379 1169 q 494 1149 471 1169 q 517 1097 517 1128 q 502 1051 517 1072 q 460 1003 488 1031 q 417 951 431 974 q 408 904 403 929 z "},"Ȇ":{"ha":746,"x_min":57,"x_max":676,"o":"m 60 0 q 57 8 57 0 q 60 17 57 17 q 137 24 113 17 q 170 51 161 31 q 179 113 179 71 l 179 756 q 170 817 179 797 q 137 844 161 836 q 60 851 113 851 q 57 860 57 851 q 60 868 57 868 l 618 868 q 631 856 631 868 l 633 685 q 626 680 633 681 q 618 683 618 679 q 574 798 614 757 q 467 839 533 839 l 382 839 q 310 831 333 839 q 277 806 286 824 q 268 749 268 788 l 268 118 q 277 62 268 81 q 308 36 286 43 q 378 29 331 29 l 489 29 q 600 76 556 29 q 660 207 644 124 q 665 210 660 210 q 673 208 669 210 q 676 204 676 206 q 664 21 664 117 q 659 5 664 10 q 642 0 654 0 l 60 0 m 564 324 q 534 411 564 385 q 435 438 504 438 l 226 438 l 226 467 l 439 467 q 534 489 506 467 q 563 564 563 511 q 571 567 563 567 q 579 564 579 567 l 578 451 q 579 390 578 411 l 581 324 q 572 321 581 321 q 564 324 564 321 m 278 947 q 269 944 276 943 q 263 949 261 944 q 308 1059 272 1021 q 406 1097 344 1097 q 501 1060 465 1097 q 547 949 536 1022 q 540 944 547 944 q 532 947 532 943 q 485 1012 522 985 q 406 1039 449 1039 q 324 1012 361 1039 q 278 947 286 985 z "},"Ē":{"ha":746,"x_min":57,"x_max":676,"o":"m 60 0 q 57 8 57 0 q 60 17 57 17 q 137 24 113 17 q 170 51 161 31 q 179 113 179 71 l 179 756 q 170 817 179 797 q 137 844 161 836 q 60 851 113 851 q 57 860 57 851 q 60 868 57 868 l 618 868 q 631 856 631 868 l 633 685 q 626 680 633 681 q 618 683 618 679 q 574 798 614 757 q 467 839 533 839 l 382 839 q 310 831 333 839 q 277 806 286 824 q 268 749 268 788 l 268 118 q 277 62 268 81 q 308 36 286 43 q 378 29 331 29 l 489 29 q 600 76 556 29 q 660 207 644 124 q 665 210 660 210 q 673 208 669 210 q 676 204 676 206 q 664 21 664 117 q 659 5 664 10 q 642 0 654 0 l 60 0 m 564 324 q 534 411 564 385 q 435 438 504 438 l 226 438 l 226 467 l 439 467 q 534 489 506 467 q 563 564 563 511 q 571 567 563 567 q 579 564 579 567 l 578 451 q 579 390 578 411 l 581 324 q 572 321 581 321 q 564 324 564 321 m 231 1003 q 224 1009 226 1003 q 221 1022 221 1015 q 224 1035 221 1029 q 231 1042 226 1042 l 579 1042 q 588 1022 588 1042 q 579 1003 588 1003 l 231 1003 z "},"Ę":{"ha":746,"x_min":57,"x_max":704,"o":"m 60 0 q 57 8 57 0 q 60 17 57 17 q 137 24 113 17 q 170 51 161 31 q 179 113 179 71 l 179 756 q 170 817 179 797 q 137 844 161 836 q 60 851 113 851 q 57 860 57 851 q 60 868 57 868 l 618 868 q 631 856 631 868 l 633 685 q 626 680 633 681 q 618 683 618 679 q 574 798 614 757 q 467 839 533 839 l 382 839 q 310 831 333 839 q 277 806 286 824 q 268 749 268 788 l 268 118 q 277 62 268 81 q 308 36 286 43 q 378 29 331 29 l 489 29 q 600 76 556 29 q 660 207 644 124 q 665 210 660 210 q 673 208 669 210 q 676 204 676 206 q 664 21 664 117 q 659 5 664 10 q 642 0 654 0 l 60 0 m 564 324 q 534 411 564 385 q 435 438 504 438 l 226 438 l 226 467 l 439 467 q 534 489 506 467 q 563 564 563 511 q 571 567 563 567 q 579 564 579 567 l 578 451 q 579 390 578 411 l 581 324 q 572 321 581 321 q 564 324 564 321 m 578 1 q 495 -97 521 -50 q 469 -199 469 -144 q 503 -303 469 -265 q 599 -340 536 -340 q 648 -332 628 -340 q 690 -308 668 -324 l 693 -308 q 701 -312 697 -308 q 700 -319 704 -317 q 550 -382 628 -382 q 434 -344 475 -382 q 393 -244 393 -307 q 561 8 393 -121 l 578 1 z "},"Ẽ":{"ha":746,"x_min":57,"x_max":676,"o":"m 60 0 q 57 8 57 0 q 60 17 57 17 q 137 24 113 17 q 170 51 161 31 q 179 113 179 71 l 179 756 q 170 817 179 797 q 137 844 161 836 q 60 851 113 851 q 57 860 57 851 q 60 868 57 868 l 618 868 q 631 856 631 868 l 633 685 q 626 680 633 681 q 618 683 618 679 q 574 798 614 757 q 467 839 533 839 l 382 839 q 310 831 333 839 q 277 806 286 824 q 268 749 268 788 l 268 118 q 277 62 268 81 q 308 36 286 43 q 378 29 331 29 l 489 29 q 600 76 556 29 q 660 207 644 124 q 665 210 660 210 q 673 208 669 210 q 676 204 676 206 q 664 21 664 117 q 659 5 664 10 q 642 0 654 0 l 60 0 m 564 324 q 534 411 564 385 q 435 438 504 438 l 226 438 l 226 467 l 439 467 q 534 489 506 467 q 563 564 563 511 q 571 567 563 567 q 579 564 579 567 l 578 451 q 579 390 578 411 l 581 324 q 572 321 581 321 q 564 324 564 321 m 511 1047 q 549 1056 535 1047 q 581 1085 563 1065 l 582 1085 q 590 1081 586 1085 q 590 1075 593 1078 q 531 1007 554 1025 q 481 989 507 989 q 396 1006 451 989 q 360 1015 390 1007 q 299 1024 331 1024 q 265 1016 276 1024 q 244 999 253 1008 q 231 986 235 990 l 228 986 q 221 990 224 986 q 221 996 218 993 q 338 1081 282 1081 q 381 1074 357 1081 q 410 1067 406 1068 q 511 1047 471 1047 z "},"Ə":{"ha":889,"x_min":65,"x_max":814,"o":"m 375 -17 q 201 22 271 -17 q 98 117 131 61 q 65 226 65 174 q 69 240 65 236 q 82 243 74 243 l 167 243 q 200 121 167 174 q 292 39 233 68 q 424 10 350 10 q 638 113 564 10 q 711 400 711 217 q 674 637 711 531 q 564 804 636 743 q 393 865 492 865 q 215 814 300 865 q 99 668 131 763 q 89 664 97 663 q 82 669 81 665 l 140 886 q 149 891 142 892 q 156 885 157 890 q 154 869 154 879 q 178 843 154 843 q 193 846 182 843 q 297 875 253 867 q 394 883 340 883 q 642 821 549 883 q 775 660 736 758 q 814 450 814 563 q 756 200 814 306 q 597 39 697 94 q 375 -17 497 -17 m 731 219 l 151 213 l 151 243 l 729 246 l 731 219 z "},"F":{"ha":707,"x_min":56,"x_max":633,"o":"m 58 0 q 56 8 56 0 q 58 17 56 17 q 136 24 111 17 q 170 51 161 31 q 179 113 179 71 l 179 756 q 170 817 179 797 q 137 844 161 836 q 60 851 113 851 q 57 860 57 851 q 60 868 57 868 l 618 868 q 631 856 631 868 l 633 685 q 626 680 633 681 q 618 683 618 679 q 574 798 614 757 q 467 839 533 839 l 382 839 q 311 832 335 839 q 278 807 288 825 q 268 754 268 789 l 268 118 q 280 53 268 74 q 327 25 292 33 q 438 17 363 17 q 442 8 442 17 q 438 0 442 0 q 349 1 381 0 l 224 3 l 129 1 q 58 0 104 0 m 547 307 q 515 394 547 368 q 406 421 482 421 l 226 421 l 226 450 l 410 450 q 515 473 483 450 q 546 547 546 496 q 554 550 546 550 q 563 547 563 550 l 561 435 q 563 374 561 394 l 564 307 q 556 304 564 304 q 547 307 547 304 z "},"G":{"ha":992,"x_min":68,"x_max":940,"o":"m 563 -17 q 299 42 411 -17 q 127 200 186 100 q 68 424 68 300 q 137 663 68 558 q 326 825 206 767 q 597 883 446 883 q 727 870 665 883 q 828 833 789 857 q 841 822 839 826 q 844 801 843 817 l 861 646 q 853 641 861 642 q 844 644 846 640 q 734 799 814 744 q 538 853 654 853 q 267 751 363 853 q 171 474 171 650 q 226 233 171 339 q 378 67 281 126 q 596 7 475 7 q 706 19 667 7 q 763 68 744 32 q 781 175 781 104 q 772 276 781 247 q 731 314 763 304 q 624 324 700 324 q 615 335 615 324 q 617 342 615 339 q 622 346 619 346 q 797 339 731 339 q 933 343 863 339 q 938 340 936 343 q 940 333 940 336 q 933 324 940 324 q 886 315 900 325 q 868 272 872 304 q 864 161 864 240 q 869 72 864 99 q 874 39 874 46 q 871 28 874 31 q 858 22 868 25 q 563 -17 690 -17 z "},"Ğ":{"ha":992,"x_min":68,"x_max":940,"o":"m 563 -17 q 299 42 411 -17 q 127 200 186 100 q 68 424 68 300 q 137 663 68 558 q 326 825 206 767 q 597 883 446 883 q 727 870 665 883 q 828 833 789 857 q 841 822 839 826 q 844 801 843 817 l 861 646 q 853 641 861 642 q 844 644 846 640 q 734 799 814 744 q 538 853 654 853 q 267 751 363 853 q 171 474 171 650 q 226 233 171 339 q 378 67 281 126 q 596 7 475 7 q 706 19 667 7 q 763 68 744 32 q 781 175 781 104 q 772 276 781 247 q 731 314 763 304 q 624 324 700 324 q 615 335 615 324 q 617 342 615 339 q 622 346 619 346 q 797 339 731 339 q 933 343 863 339 q 938 340 936 343 q 940 333 940 336 q 933 324 940 324 q 886 315 900 325 q 868 272 872 304 q 864 161 864 240 q 869 72 864 99 q 874 39 874 46 q 871 28 874 31 q 858 22 868 25 q 563 -17 690 -17 m 547 958 q 452 997 489 958 q 404 1107 415 1036 q 410 1113 403 1113 q 419 1111 417 1114 q 466 1046 429 1074 q 547 1018 503 1018 q 627 1046 590 1018 q 674 1111 664 1074 q 679 1114 674 1114 q 687 1112 683 1114 q 689 1107 690 1110 q 642 997 678 1035 q 547 958 606 958 z "},"Ǧ":{"ha":992,"x_min":68,"x_max":940,"o":"m 563 -17 q 299 42 411 -17 q 127 200 186 100 q 68 424 68 300 q 137 663 68 558 q 326 825 206 767 q 597 883 446 883 q 727 870 665 883 q 828 833 789 857 q 841 822 839 826 q 844 801 843 817 l 861 646 q 853 641 861 642 q 844 644 846 640 q 734 799 814 744 q 538 853 654 853 q 267 751 363 853 q 171 474 171 650 q 226 233 171 339 q 378 67 281 126 q 596 7 475 7 q 706 19 667 7 q 763 68 744 32 q 781 175 781 104 q 772 276 781 247 q 731 314 763 304 q 624 324 700 324 q 615 335 615 324 q 617 342 615 339 q 622 346 619 346 q 797 339 731 339 q 933 343 863 339 q 938 340 936 343 q 940 333 940 336 q 933 324 940 324 q 886 315 900 325 q 868 272 872 304 q 864 161 864 240 q 869 72 864 99 q 874 39 874 46 q 871 28 874 31 q 858 22 868 25 q 563 -17 690 -17 m 388 1089 q 387 1090 388 1089 q 386 1090 386 1090 q 390 1097 386 1093 q 396 1099 393 1100 l 547 1018 l 697 1099 l 699 1099 q 706 1094 703 1099 q 704 1089 708 1090 l 563 954 q 547 949 557 949 q 531 954 536 949 l 388 1089 z "},"Ĝ":{"ha":992,"x_min":68,"x_max":940,"o":"m 563 -17 q 299 42 411 -17 q 127 200 186 100 q 68 424 68 300 q 137 663 68 558 q 326 825 206 767 q 597 883 446 883 q 727 870 665 883 q 828 833 789 857 q 841 822 839 826 q 844 801 843 817 l 861 646 q 853 641 861 642 q 844 644 846 640 q 734 799 814 744 q 538 853 654 853 q 267 751 363 853 q 171 474 171 650 q 226 233 171 339 q 378 67 281 126 q 596 7 475 7 q 706 19 667 7 q 763 68 744 32 q 781 175 781 104 q 772 276 781 247 q 731 314 763 304 q 624 324 700 324 q 615 335 615 324 q 617 342 615 339 q 622 346 619 346 q 797 339 731 339 q 933 343 863 339 q 938 340 936 343 q 940 333 940 336 q 933 324 940 324 q 886 315 900 325 q 868 272 872 304 q 864 161 864 240 q 869 72 864 99 q 874 39 874 46 q 871 28 874 31 q 858 22 868 25 q 563 -17 690 -17 m 532 1097 q 549 1104 539 1104 q 564 1097 557 1104 l 706 961 q 707 958 707 961 q 703 953 707 956 q 699 951 700 950 l 549 1032 l 397 951 q 390 955 394 950 q 389 961 386 960 l 532 1097 z "},"Ģ":{"ha":992,"x_min":68,"x_max":940,"o":"m 563 -17 q 299 42 411 -17 q 127 200 186 100 q 68 424 68 300 q 137 663 68 558 q 326 825 206 767 q 597 883 446 883 q 727 870 665 883 q 828 833 789 857 q 841 822 839 826 q 844 801 843 817 l 861 646 q 853 641 861 642 q 844 644 846 640 q 734 799 814 744 q 538 853 654 853 q 267 751 363 853 q 171 474 171 650 q 226 233 171 339 q 378 67 281 126 q 596 7 475 7 q 706 19 667 7 q 763 68 744 32 q 781 175 781 104 q 772 276 781 247 q 731 314 763 304 q 624 324 700 324 q 615 335 615 324 q 617 342 615 339 q 622 346 619 346 q 797 339 731 339 q 933 343 863 339 q 938 340 936 343 q 940 333 940 336 q 933 324 940 324 q 886 315 900 325 q 868 272 872 304 q 864 161 864 240 q 869 72 864 99 q 874 39 874 46 q 871 28 874 31 q 858 22 868 25 q 563 -17 690 -17 m 565 -382 q 561 -383 564 -383 q 554 -378 557 -383 q 554 -371 551 -374 q 615 -247 615 -318 q 608 -207 615 -219 q 586 -187 601 -194 l 611 -179 q 601 -215 614 -203 q 565 -228 589 -228 q 526 -212 540 -228 q 511 -174 511 -197 q 571 -118 511 -118 q 630 -144 610 -118 q 650 -219 650 -171 q 628 -305 650 -265 q 565 -382 607 -344 z "},"Ġ":{"ha":992,"x_min":68,"x_max":940,"o":"m 563 -17 q 299 42 411 -17 q 127 200 186 100 q 68 424 68 300 q 137 663 68 558 q 326 825 206 767 q 597 883 446 883 q 727 870 665 883 q 828 833 789 857 q 841 822 839 826 q 844 801 843 817 l 861 646 q 853 641 861 642 q 844 644 846 640 q 734 799 814 744 q 538 853 654 853 q 267 751 363 853 q 171 474 171 650 q 226 233 171 339 q 378 67 281 126 q 596 7 475 7 q 706 19 667 7 q 763 68 744 32 q 781 175 781 104 q 772 276 781 247 q 731 314 763 304 q 624 324 700 324 q 615 335 615 324 q 617 342 615 339 q 622 346 619 346 q 797 339 731 339 q 933 343 863 339 q 938 340 936 343 q 940 333 940 336 q 933 324 940 324 q 886 315 900 325 q 868 272 872 304 q 864 161 864 240 q 869 72 864 99 q 874 39 874 46 q 871 28 874 31 q 858 22 868 25 q 563 -17 690 -17 m 547 990 q 503 1006 519 990 q 486 1050 486 1022 q 503 1092 486 1076 q 547 1108 519 1108 q 590 1093 575 1108 q 606 1050 606 1078 q 590 1006 606 1022 q 547 990 575 990 z "},"Ḡ":{"ha":992,"x_min":68,"x_max":940,"o":"m 563 -17 q 299 42 411 -17 q 127 200 186 100 q 68 424 68 300 q 137 663 68 558 q 326 825 206 767 q 597 883 446 883 q 727 870 665 883 q 828 833 789 857 q 841 822 839 826 q 844 801 843 817 l 861 646 q 853 641 861 642 q 844 644 846 640 q 734 799 814 744 q 538 853 654 853 q 267 751 363 853 q 171 474 171 650 q 226 233 171 339 q 378 67 281 126 q 596 7 475 7 q 706 19 667 7 q 763 68 744 32 q 781 175 781 104 q 772 276 781 247 q 731 314 763 304 q 624 324 700 324 q 615 335 615 324 q 617 342 615 339 q 622 346 619 346 q 797 339 731 339 q 933 343 863 339 q 938 340 936 343 q 940 333 940 336 q 933 324 940 324 q 886 315 900 325 q 868 272 872 304 q 864 161 864 240 q 869 72 864 99 q 874 39 874 46 q 871 28 874 31 q 858 22 868 25 q 563 -17 690 -17 m 372 1003 q 364 1022 364 1003 q 372 1042 364 1042 l 721 1042 q 729 1022 729 1042 q 721 1003 729 1003 l 372 1003 z "},"H":{"ha":1054,"x_min":46,"x_max":1007,"o":"m 793 753 q 784 815 793 794 q 750 843 775 835 q 671 851 725 851 q 667 860 667 851 q 671 868 667 868 l 738 867 q 839 864 799 864 q 935 867 876 864 l 1003 868 q 1007 860 1007 868 q 1003 851 1007 851 q 925 844 950 851 q 891 817 900 836 q 882 756 882 797 l 882 113 q 891 51 882 71 q 925 24 900 31 q 1003 17 950 17 q 1007 8 1007 17 q 1003 0 1007 0 q 935 1 960 0 l 839 3 l 738 1 q 671 0 713 0 q 667 8 667 0 q 671 17 667 17 q 750 24 725 17 q 784 51 775 31 q 793 113 793 71 l 793 753 m 211 467 l 832 467 l 832 438 l 211 438 l 211 467 m 171 756 q 162 817 171 797 q 128 844 153 836 q 50 851 103 851 q 47 860 47 851 q 50 868 47 868 l 121 867 q 214 864 179 864 q 315 867 254 864 l 382 868 q 385 860 385 868 q 382 851 385 851 q 303 843 329 851 q 269 815 278 835 q 260 753 260 794 l 260 113 q 269 51 260 71 q 303 24 278 31 q 382 17 328 17 q 385 8 385 17 q 382 0 385 0 q 314 1 339 0 l 214 3 l 118 1 q 49 0 93 0 q 46 8 46 0 q 49 17 46 17 q 127 24 101 17 q 162 51 153 31 q 171 113 171 71 l 171 756 z "},"Ħ":{"ha":1054,"x_min":46,"x_max":1007,"o":"m 793 753 q 784 815 793 794 q 750 843 775 835 q 671 851 725 851 q 667 860 667 851 q 671 868 667 868 l 738 867 q 839 864 799 864 q 935 867 876 864 l 1003 868 q 1007 860 1007 868 q 1003 851 1007 851 q 925 844 950 851 q 891 817 900 836 q 882 756 882 797 l 882 113 q 891 51 882 71 q 925 24 900 31 q 1003 17 950 17 q 1007 8 1007 17 q 1003 0 1007 0 q 935 1 960 0 l 839 3 l 738 1 q 671 0 713 0 q 667 8 667 0 q 671 17 667 17 q 750 24 725 17 q 784 51 775 31 q 793 113 793 71 l 793 753 m 211 596 l 832 596 l 832 567 l 211 567 l 211 596 m 171 756 q 162 817 171 797 q 128 844 153 836 q 50 851 103 851 q 47 860 47 851 q 50 868 47 868 l 121 867 q 214 864 179 864 q 315 867 254 864 l 382 868 q 385 860 385 868 q 382 851 385 851 q 303 843 329 851 q 269 815 278 835 q 260 753 260 794 l 260 113 q 269 51 260 71 q 303 24 278 31 q 382 17 328 17 q 385 8 385 17 q 382 0 385 0 q 314 1 339 0 l 214 3 l 118 1 q 49 0 93 0 q 46 8 46 0 q 49 17 46 17 q 127 24 101 17 q 162 51 153 31 q 171 113 171 71 l 171 756 m 211 336 l 832 336 l 832 307 l 211 307 l 211 336 z "},"Ḫ":{"ha":1054,"x_min":46,"x_max":1007,"o":"m 793 753 q 784 815 793 794 q 750 843 775 835 q 671 851 725 851 q 667 860 667 851 q 671 868 667 868 l 738 867 q 839 864 799 864 q 935 867 876 864 l 1003 868 q 1007 860 1007 868 q 1003 851 1007 851 q 925 844 950 851 q 891 817 900 836 q 882 756 882 797 l 882 113 q 891 51 882 71 q 925 24 900 31 q 1003 17 950 17 q 1007 8 1007 17 q 1003 0 1007 0 q 935 1 960 0 l 839 3 l 738 1 q 671 0 713 0 q 667 8 667 0 q 671 17 667 17 q 750 24 725 17 q 784 51 775 31 q 793 113 793 71 l 793 753 m 211 467 l 832 467 l 832 438 l 211 438 l 211 467 m 171 756 q 162 817 171 797 q 128 844 153 836 q 50 851 103 851 q 47 860 47 851 q 50 868 47 868 l 121 867 q 214 864 179 864 q 315 867 254 864 l 382 868 q 385 860 385 868 q 382 851 385 851 q 303 843 329 851 q 269 815 278 835 q 260 753 260 794 l 260 113 q 269 51 260 71 q 303 24 278 31 q 382 17 328 17 q 385 8 385 17 q 382 0 385 0 q 314 1 339 0 l 214 3 l 118 1 q 49 0 93 0 q 46 8 46 0 q 49 17 46 17 q 127 24 101 17 q 162 51 153 31 q 171 113 171 71 l 171 756 m 385 -110 q 392 -104 385 -106 q 400 -106 400 -103 q 436 -208 400 -167 q 528 -249 472 -249 q 617 -207 581 -249 q 654 -106 654 -165 q 658 -103 654 -103 q 666 -105 663 -103 q 669 -110 669 -107 q 633 -265 669 -212 q 528 -318 597 -318 q 422 -265 458 -318 q 385 -110 385 -211 z "},"Ĥ":{"ha":1054,"x_min":46,"x_max":1007,"o":"m 793 753 q 784 815 793 794 q 750 843 775 835 q 671 851 725 851 q 667 860 667 851 q 671 868 667 868 l 738 867 q 839 864 799 864 q 935 867 876 864 l 1003 868 q 1007 860 1007 868 q 1003 851 1007 851 q 925 844 950 851 q 891 817 900 836 q 882 756 882 797 l 882 113 q 891 51 882 71 q 925 24 900 31 q 1003 17 950 17 q 1007 8 1007 17 q 1003 0 1007 0 q 935 1 960 0 l 839 3 l 738 1 q 671 0 713 0 q 667 8 667 0 q 671 17 667 17 q 750 24 725 17 q 784 51 775 31 q 793 113 793 71 l 793 753 m 211 467 l 832 467 l 832 438 l 211 438 l 211 467 m 171 756 q 162 817 171 797 q 128 844 153 836 q 50 851 103 851 q 47 860 47 851 q 50 868 47 868 l 121 867 q 214 864 179 864 q 315 867 254 864 l 382 868 q 385 860 385 868 q 382 851 385 851 q 303 843 329 851 q 269 815 278 835 q 260 753 260 794 l 260 113 q 269 51 260 71 q 303 24 278 31 q 382 17 328 17 q 385 8 385 17 q 382 0 385 0 q 314 1 339 0 l 214 3 l 118 1 q 49 0 93 0 q 46 8 46 0 q 49 17 46 17 q 127 24 101 17 q 162 51 153 31 q 171 113 171 71 l 171 756 m 513 1097 q 529 1104 519 1104 q 544 1097 538 1104 l 686 961 q 688 958 688 961 q 684 953 688 956 q 679 951 681 950 l 529 1032 l 378 951 q 371 955 375 950 q 369 961 367 960 l 513 1097 z "},"Ḥ":{"ha":1054,"x_min":46,"x_max":1007,"o":"m 793 753 q 784 815 793 794 q 750 843 775 835 q 671 851 725 851 q 667 860 667 851 q 671 868 667 868 l 738 867 q 839 864 799 864 q 935 867 876 864 l 1003 868 q 1007 860 1007 868 q 1003 851 1007 851 q 925 844 950 851 q 891 817 900 836 q 882 756 882 797 l 882 113 q 891 51 882 71 q 925 24 900 31 q 1003 17 950 17 q 1007 8 1007 17 q 1003 0 1007 0 q 935 1 960 0 l 839 3 l 738 1 q 671 0 713 0 q 667 8 667 0 q 671 17 667 17 q 750 24 725 17 q 784 51 775 31 q 793 113 793 71 l 793 753 m 211 467 l 832 467 l 832 438 l 211 438 l 211 467 m 171 756 q 162 817 171 797 q 128 844 153 836 q 50 851 103 851 q 47 860 47 851 q 50 868 47 868 l 121 867 q 214 864 179 864 q 315 867 254 864 l 382 868 q 385 860 385 868 q 382 851 385 851 q 303 843 329 851 q 269 815 278 835 q 260 753 260 794 l 260 113 q 269 51 260 71 q 303 24 278 31 q 382 17 328 17 q 385 8 385 17 q 382 0 385 0 q 314 1 339 0 l 214 3 l 118 1 q 49 0 93 0 q 46 8 46 0 q 49 17 46 17 q 127 24 101 17 q 162 51 153 31 q 171 113 171 71 l 171 756 m 529 -264 q 484 -249 500 -264 q 468 -206 468 -233 q 484 -162 468 -178 q 529 -147 500 -147 q 572 -162 557 -147 q 588 -206 588 -178 q 572 -249 588 -233 q 529 -264 557 -264 z "},"I":{"ha":461,"x_min":61,"x_max":399,"o":"m 276 113 q 285 50 276 69 q 317 24 293 31 q 394 17 342 17 q 399 8 399 17 q 394 0 399 0 q 328 1 353 0 l 229 3 l 133 1 q 65 0 108 0 q 61 8 61 0 q 65 17 61 17 q 142 24 118 17 q 176 51 167 31 q 185 113 185 71 l 185 756 q 176 817 185 797 q 142 844 167 836 q 65 851 118 851 q 61 860 61 851 q 65 868 61 868 l 133 867 q 229 864 192 864 q 329 867 271 864 l 394 868 q 399 860 399 868 q 394 851 399 851 q 318 843 343 851 q 285 815 293 835 q 276 753 276 794 l 276 113 z "},"Ĳ":{"ha":958,"x_min":56,"x_max":915,"o":"m 269 486 q 278 424 269 443 q 310 397 286 404 q 389 390 335 390 q 392 382 392 390 q 389 374 392 374 q 321 375 346 374 l 222 376 l 129 375 q 58 374 103 374 q 56 382 56 374 q 58 390 56 390 q 135 397 111 390 q 169 424 160 404 q 178 486 178 444 l 178 756 q 169 817 178 797 q 135 844 160 836 q 58 851 111 851 q 56 860 56 851 q 58 868 56 868 l 129 867 q 222 864 188 864 q 324 867 263 864 l 389 868 q 392 860 392 868 q 389 851 392 851 q 312 843 336 851 q 278 815 288 835 q 269 753 269 794 l 269 486 m 911 868 q 915 860 915 868 q 911 851 915 851 q 845 843 867 851 q 816 815 824 835 q 808 753 808 794 l 808 358 q 767 154 808 239 q 650 26 725 69 q 476 -18 575 -18 q 319 13 390 -18 q 206 92 247 44 q 165 188 165 140 q 178 224 165 211 q 213 238 190 238 q 255 218 243 238 q 278 156 267 199 q 303 78 289 108 q 358 25 318 47 q 469 3 397 3 q 658 75 597 3 q 718 278 718 147 l 718 756 q 708 817 718 797 q 669 844 697 836 q 582 851 642 851 q 578 860 578 851 q 582 868 578 868 l 663 867 q 761 864 724 864 q 851 867 799 864 l 911 868 z "},"Í":{"ha":461,"x_min":61,"x_max":415,"o":"m 276 113 q 285 50 276 69 q 317 24 293 31 q 394 17 342 17 q 399 8 399 17 q 394 0 399 0 q 328 1 353 0 l 229 3 l 133 1 q 65 0 108 0 q 61 8 61 0 q 65 17 61 17 q 142 24 118 17 q 176 51 167 31 q 185 113 185 71 l 185 756 q 176 817 185 797 q 142 844 167 836 q 65 851 118 851 q 61 860 61 851 q 65 868 61 868 l 133 867 q 229 864 192 864 q 329 867 271 864 l 394 868 q 399 860 399 868 q 394 851 399 851 q 318 843 343 851 q 285 815 293 835 q 276 753 276 794 l 276 113 m 93 942 q 86 948 88 942 q 89 957 85 954 q 240 1044 160 993 q 315 1089 290 1075 q 348 1083 321 1092 q 395 1063 375 1074 q 404 1050 415 1051 q 247 1003 318 1029 q 96 943 175 978 l 93 942 z "},"Ĭ":{"ha":461,"x_min":61,"x_max":399,"o":"m 276 113 q 285 50 276 69 q 317 24 293 31 q 394 17 342 17 q 399 8 399 17 q 394 0 399 0 q 328 1 353 0 l 229 3 l 133 1 q 65 0 108 0 q 61 8 61 0 q 65 17 61 17 q 142 24 118 17 q 176 51 167 31 q 185 113 185 71 l 185 756 q 176 817 185 797 q 142 844 167 836 q 65 851 118 851 q 61 860 61 851 q 65 868 61 868 l 133 867 q 229 864 192 864 q 329 867 271 864 l 394 868 q 399 860 399 868 q 394 851 399 851 q 318 843 343 851 q 285 815 293 835 q 276 753 276 794 l 276 113 m 231 958 q 135 997 172 958 q 88 1107 99 1036 q 94 1113 86 1113 q 103 1111 101 1114 q 149 1046 113 1074 q 231 1018 186 1018 q 310 1046 274 1018 q 357 1111 347 1074 q 363 1114 357 1114 q 370 1112 367 1114 q 372 1107 374 1110 q 326 997 363 1036 q 231 958 290 958 z "},"Ǐ":{"ha":461,"x_min":61,"x_max":399,"o":"m 276 113 q 285 50 276 69 q 317 24 293 31 q 394 17 342 17 q 399 8 399 17 q 394 0 399 0 q 328 1 353 0 l 229 3 l 133 1 q 65 0 108 0 q 61 8 61 0 q 65 17 61 17 q 142 24 118 17 q 176 51 167 31 q 185 113 185 71 l 185 756 q 176 817 185 797 q 142 844 167 836 q 65 851 118 851 q 61 860 61 851 q 65 868 61 868 l 133 867 q 229 864 192 864 q 329 867 271 864 l 394 868 q 399 860 399 868 q 394 851 399 851 q 318 843 343 851 q 285 815 293 835 q 276 753 276 794 l 276 113 m 71 1089 q 70 1090 71 1089 q 69 1090 69 1090 q 73 1097 69 1093 q 79 1099 76 1100 l 231 1018 l 381 1099 l 382 1099 q 389 1094 386 1099 q 388 1089 392 1090 l 246 954 q 231 949 240 949 q 214 954 219 949 l 71 1089 z "},"Î":{"ha":461,"x_min":61,"x_max":399,"o":"m 276 113 q 285 50 276 69 q 317 24 293 31 q 394 17 342 17 q 399 8 399 17 q 394 0 399 0 q 328 1 353 0 l 229 3 l 133 1 q 65 0 108 0 q 61 8 61 0 q 65 17 61 17 q 142 24 118 17 q 176 51 167 31 q 185 113 185 71 l 185 756 q 176 817 185 797 q 142 844 167 836 q 65 851 118 851 q 61 860 61 851 q 65 868 61 868 l 133 867 q 229 864 192 864 q 329 867 271 864 l 394 868 q 399 860 399 868 q 394 851 399 851 q 318 843 343 851 q 285 815 293 835 q 276 753 276 794 l 276 113 m 215 1097 q 232 1104 222 1104 q 247 1097 240 1104 l 389 961 q 390 958 390 961 q 387 953 390 956 q 382 951 383 950 l 232 1032 l 81 951 q 74 955 78 950 q 72 961 69 960 l 215 1097 z "},"Ȉ":{"ha":461,"x_min":-8,"x_max":399,"o":"m 276 113 q 285 50 276 69 q 317 24 293 31 q 394 17 342 17 q 399 8 399 17 q 394 0 399 0 q 328 1 353 0 l 229 3 l 133 1 q 65 0 108 0 q 61 8 61 0 q 65 17 61 17 q 142 24 118 17 q 176 51 167 31 q 185 113 185 71 l 185 756 q 176 817 185 797 q 142 844 167 836 q 65 851 118 851 q 61 860 61 851 q 65 868 61 868 l 133 867 q 229 864 192 864 q 329 867 271 864 l 394 868 q 399 860 399 868 q 394 851 399 851 q 318 843 343 851 q 285 815 293 835 q 276 753 276 794 l 276 113 m 374 942 q 269 1006 313 981 q 169 1053 225 1031 q 181 1067 160 1057 q 228 1085 201 1078 q 260 1086 256 1092 q 385 954 318 1017 q 386 950 386 953 q 382 942 386 946 q 374 942 378 939 m 201 942 q 95 1008 136 983 q 1 1053 54 1032 q 11 1067 -8 1057 q 57 1085 31 1078 q 88 1086 83 1092 q 213 954 146 1017 q 214 950 214 953 q 210 942 214 946 q 201 942 206 939 z "},"Ï":{"ha":461,"x_min":61,"x_max":399,"o":"m 276 113 q 285 50 276 69 q 317 24 293 31 q 394 17 342 17 q 399 8 399 17 q 394 0 399 0 q 328 1 353 0 l 229 3 l 133 1 q 65 0 108 0 q 61 8 61 0 q 65 17 61 17 q 142 24 118 17 q 176 51 167 31 q 185 113 185 71 l 185 756 q 176 817 185 797 q 142 844 167 836 q 65 851 118 851 q 61 860 61 851 q 65 868 61 868 l 133 867 q 229 864 192 864 q 329 867 271 864 l 394 868 q 399 860 399 868 q 394 851 399 851 q 318 843 343 851 q 285 815 293 835 q 276 753 276 794 l 276 113 m 132 996 q 88 1011 104 996 q 72 1053 72 1026 q 88 1094 72 1079 q 132 1110 104 1110 q 175 1095 160 1110 q 190 1053 190 1081 q 175 1010 190 1025 q 132 996 160 996 m 331 996 q 288 1011 303 996 q 272 1053 272 1026 q 288 1094 272 1079 q 331 1110 303 1110 q 373 1095 358 1110 q 388 1053 388 1081 q 373 1011 388 1026 q 331 996 358 996 z "},"İ":{"ha":461,"x_min":61,"x_max":399,"o":"m 276 113 q 285 50 276 69 q 317 24 293 31 q 394 17 342 17 q 399 8 399 17 q 394 0 399 0 q 328 1 353 0 l 229 3 l 133 1 q 65 0 108 0 q 61 8 61 0 q 65 17 61 17 q 142 24 118 17 q 176 51 167 31 q 185 113 185 71 l 185 756 q 176 817 185 797 q 142 844 167 836 q 65 851 118 851 q 61 860 61 851 q 65 868 61 868 l 133 867 q 229 864 192 864 q 329 867 271 864 l 394 868 q 399 860 399 868 q 394 851 399 851 q 318 843 343 851 q 285 815 293 835 q 276 753 276 794 l 276 113 m 231 990 q 186 1006 203 990 q 169 1050 169 1022 q 186 1092 169 1076 q 231 1108 203 1108 q 274 1093 258 1108 q 289 1050 289 1078 q 274 1006 289 1022 q 231 990 258 990 z "},"Ị":{"ha":461,"x_min":61,"x_max":399,"o":"m 276 113 q 285 50 276 69 q 317 24 293 31 q 394 17 342 17 q 399 8 399 17 q 394 0 399 0 q 328 1 353 0 l 229 3 l 133 1 q 65 0 108 0 q 61 8 61 0 q 65 17 61 17 q 142 24 118 17 q 176 51 167 31 q 185 113 185 71 l 185 756 q 176 817 185 797 q 142 844 167 836 q 65 851 118 851 q 61 860 61 851 q 65 868 61 868 l 133 867 q 229 864 192 864 q 329 867 271 864 l 394 868 q 399 860 399 868 q 394 851 399 851 q 318 843 343 851 q 285 815 293 835 q 276 753 276 794 l 276 113 m 232 -264 q 187 -249 203 -264 q 171 -206 171 -233 q 187 -162 171 -178 q 232 -147 203 -147 q 275 -162 260 -147 q 290 -206 290 -178 q 275 -249 290 -233 q 232 -264 260 -264 z "},"Ì":{"ha":461,"x_min":49,"x_max":399,"o":"m 276 113 q 285 50 276 69 q 317 24 293 31 q 394 17 342 17 q 399 8 399 17 q 394 0 399 0 q 328 1 353 0 l 229 3 l 133 1 q 65 0 108 0 q 61 8 61 0 q 65 17 61 17 q 142 24 118 17 q 176 51 167 31 q 185 113 185 71 l 185 756 q 176 817 185 797 q 142 844 167 836 q 65 851 118 851 q 61 860 61 851 q 65 868 61 868 l 133 867 q 229 864 192 864 q 329 867 271 864 l 394 868 q 399 860 399 868 q 394 851 399 851 q 318 843 343 851 q 285 815 293 835 q 276 753 276 794 l 276 113 m 368 943 q 60 1050 213 1013 q 69 1063 49 1051 q 116 1083 89 1074 q 149 1089 143 1092 l 189 1064 q 374 957 326 982 q 378 951 378 956 q 375 944 378 947 q 368 943 372 942 z "},"Ỉ":{"ha":461,"x_min":61,"x_max":399,"o":"m 276 113 q 285 50 276 69 q 317 24 293 31 q 394 17 342 17 q 399 8 399 17 q 394 0 399 0 q 328 1 353 0 l 229 3 l 133 1 q 65 0 108 0 q 61 8 61 0 q 65 17 61 17 q 142 24 118 17 q 176 51 167 31 q 185 113 185 71 l 185 756 q 176 817 185 797 q 142 844 167 836 q 65 851 118 851 q 61 860 61 851 q 65 868 61 868 l 133 867 q 229 864 192 864 q 329 867 271 864 l 394 868 q 399 860 399 868 q 394 851 399 851 q 318 843 343 851 q 285 815 293 835 q 276 753 276 794 l 276 113 m 235 904 q 228 901 236 901 q 219 904 221 901 q 215 935 215 921 q 223 974 215 956 q 246 1015 231 993 q 266 1052 260 1038 q 272 1083 272 1067 q 255 1124 272 1110 q 213 1139 238 1139 q 174 1129 193 1139 l 172 1129 q 164 1134 168 1129 q 164 1140 160 1139 q 254 1169 207 1169 q 319 1149 296 1169 q 343 1097 343 1128 q 328 1051 343 1072 q 286 1003 314 1031 q 247 958 260 976 q 233 918 233 939 q 235 904 233 908 z "},"Ȋ":{"ha":461,"x_min":61,"x_max":399,"o":"m 276 113 q 285 50 276 69 q 317 24 293 31 q 394 17 342 17 q 399 8 399 17 q 394 0 399 0 q 328 1 353 0 l 229 3 l 133 1 q 65 0 108 0 q 61 8 61 0 q 65 17 61 17 q 142 24 118 17 q 176 51 167 31 q 185 113 185 71 l 185 756 q 176 817 185 797 q 142 844 167 836 q 65 851 118 851 q 61 860 61 851 q 65 868 61 868 l 133 867 q 229 864 192 864 q 329 867 271 864 l 394 868 q 399 860 399 868 q 394 851 399 851 q 318 843 343 851 q 285 815 293 835 q 276 753 276 794 l 276 113 m 103 947 q 94 944 101 943 q 88 949 86 944 q 134 1059 97 1021 q 231 1097 171 1097 q 326 1060 290 1097 q 372 949 363 1022 q 366 944 374 944 q 357 947 358 943 q 310 1012 347 985 q 231 1039 274 1039 q 149 1012 186 1039 q 103 947 113 985 z "},"Ī":{"ha":461,"x_min":47,"x_max":414,"o":"m 276 113 q 285 50 276 69 q 317 24 293 31 q 394 17 342 17 q 399 8 399 17 q 394 0 399 0 q 328 1 353 0 l 229 3 l 133 1 q 65 0 108 0 q 61 8 61 0 q 65 17 61 17 q 142 24 118 17 q 176 51 167 31 q 185 113 185 71 l 185 756 q 176 817 185 797 q 142 844 167 836 q 65 851 118 851 q 61 860 61 851 q 65 868 61 868 l 133 867 q 229 864 192 864 q 329 867 271 864 l 394 868 q 399 860 399 868 q 394 851 399 851 q 318 843 343 851 q 285 815 293 835 q 276 753 276 794 l 276 113 m 56 1003 q 47 1022 47 1003 q 56 1042 47 1042 l 404 1042 q 414 1022 414 1042 q 404 1003 414 1003 l 56 1003 z "},"Į":{"ha":461,"x_min":61,"x_max":399,"o":"m 276 113 q 285 50 276 69 q 317 24 293 31 q 394 17 342 17 q 399 8 399 17 q 394 0 399 0 q 328 1 353 0 l 229 3 l 133 1 q 65 0 108 0 q 61 8 61 0 q 65 17 61 17 q 142 24 118 17 q 176 51 167 31 q 185 113 185 71 l 185 756 q 176 817 185 797 q 142 844 167 836 q 65 851 118 851 q 61 860 61 851 q 65 868 61 868 l 133 867 q 229 864 192 864 q 329 867 271 864 l 394 868 q 399 860 399 868 q 394 851 399 851 q 318 843 343 851 q 285 815 293 835 q 276 753 276 794 l 276 113 m 242 -382 q 136 -345 174 -382 q 99 -246 99 -308 q 235 17 99 -115 l 249 10 q 175 -192 175 -83 q 206 -299 175 -258 q 292 -339 238 -339 q 329 -332 315 -339 q 364 -308 343 -325 l 367 -308 q 374 -312 371 -308 q 374 -319 378 -317 q 309 -367 340 -353 q 242 -382 278 -382 z "},"Ɨ":{"ha":461,"x_min":60,"x_max":400,"o":"m 65 421 q 60 435 60 421 q 65 449 60 449 l 394 449 q 400 435 400 449 q 394 421 400 421 l 65 421 m 276 113 q 285 50 276 69 q 317 24 293 31 q 394 17 342 17 q 399 8 399 17 q 394 0 399 0 q 328 1 353 0 l 229 3 l 133 1 q 65 0 108 0 q 61 8 61 0 q 65 17 61 17 q 142 24 118 17 q 176 51 167 31 q 185 113 185 71 l 185 756 q 176 817 185 797 q 142 844 167 836 q 65 851 118 851 q 61 860 61 851 q 65 868 61 868 l 133 867 q 229 864 192 864 q 329 867 271 864 l 394 868 q 399 860 399 868 q 394 851 399 851 q 318 843 343 851 q 285 815 293 835 q 276 753 276 794 l 276 113 z "},"Ĩ":{"ha":461,"x_min":43,"x_max":418,"o":"m 276 113 q 285 50 276 69 q 317 24 293 31 q 394 17 342 17 q 399 8 399 17 q 394 0 399 0 q 328 1 353 0 l 229 3 l 133 1 q 65 0 108 0 q 61 8 61 0 q 65 17 61 17 q 142 24 118 17 q 176 51 167 31 q 185 113 185 71 l 185 756 q 176 817 185 797 q 142 844 167 836 q 65 851 118 851 q 61 860 61 851 q 65 868 61 868 l 133 867 q 229 864 192 864 q 329 867 271 864 l 394 868 q 399 860 399 868 q 394 851 399 851 q 318 843 343 851 q 285 815 293 835 q 276 753 276 794 l 276 113 m 338 1047 q 375 1057 361 1047 q 406 1085 389 1067 l 407 1085 q 415 1081 411 1085 q 415 1075 418 1078 q 356 1006 379 1024 q 306 989 332 989 q 221 1006 276 989 q 185 1015 215 1007 q 125 1024 156 1024 q 91 1017 103 1024 q 70 1000 79 1010 q 56 986 61 990 l 53 986 q 46 990 49 986 q 46 996 43 993 q 101 1054 69 1028 q 164 1081 132 1081 q 233 1067 183 1081 q 338 1047 297 1047 z "},"J":{"ha":447,"x_min":-64,"x_max":392,"o":"m 389 868 q 392 860 392 868 q 389 851 392 851 q 322 843 343 851 q 294 815 301 835 q 286 753 286 794 l 286 -39 q 222 -258 286 -176 q 38 -339 158 -339 q -37 -323 -10 -339 q -64 -279 -64 -307 q -51 -246 -64 -258 q -17 -233 -39 -233 q 19 -244 7 -233 q 46 -275 32 -254 q 68 -303 58 -294 q 96 -311 78 -311 q 170 -253 146 -311 q 194 -68 194 -196 l 194 756 q 185 817 194 797 q 147 844 175 836 q 58 851 118 851 q 56 860 56 851 q 58 868 56 868 l 139 867 q 239 864 203 864 q 328 867 275 864 l 389 868 z "},"Ĵ":{"ha":447,"x_min":-64,"x_max":392,"o":"m 389 868 q 392 860 392 868 q 389 851 392 851 q 322 843 343 851 q 294 815 301 835 q 286 753 286 794 l 286 -39 q 222 -258 286 -176 q 38 -339 158 -339 q -37 -323 -10 -339 q -64 -279 -64 -307 q -51 -246 -64 -258 q -17 -233 -39 -233 q 19 -244 7 -233 q 46 -275 32 -254 q 68 -303 58 -294 q 96 -311 78 -311 q 170 -253 146 -311 q 194 -68 194 -196 l 194 756 q 185 817 194 797 q 147 844 175 836 q 58 851 118 851 q 56 860 56 851 q 58 868 56 868 l 139 867 q 239 864 203 864 q 328 867 275 864 l 389 868 m 211 1110 q 228 1117 218 1117 q 243 1110 236 1117 l 385 974 q 386 971 386 974 q 383 965 386 968 q 378 964 379 963 l 228 1044 l 76 964 q 69 967 74 963 q 68 974 65 972 l 211 1110 z "},"K":{"ha":903,"x_min":46,"x_max":894,"o":"m 168 756 q 160 817 168 797 q 127 844 151 836 q 50 851 103 851 q 47 860 47 851 q 50 868 47 868 l 119 867 q 213 864 178 864 q 311 867 253 864 l 376 868 q 381 860 381 868 q 376 851 381 851 q 301 843 325 851 q 267 815 276 835 q 258 753 258 794 l 258 113 q 267 50 258 69 q 299 24 275 31 q 376 17 324 17 q 381 8 381 17 q 376 0 381 0 q 310 1 335 0 l 213 3 l 118 1 q 49 0 93 0 q 46 8 46 0 q 49 17 46 17 q 126 24 101 17 q 159 51 150 31 q 168 113 168 71 l 168 756 m 296 479 l 365 535 l 568 276 q 723 90 669 144 q 806 26 776 36 q 890 17 835 17 q 894 8 894 17 q 890 0 894 0 l 735 0 q 695 -1 724 0 q 615 70 667 -1 q 517 201 564 142 l 296 479 m 556 756 q 601 824 601 801 q 519 851 601 851 q 517 860 517 851 q 519 868 517 868 l 579 867 q 681 864 635 864 q 776 867 726 864 l 828 868 q 832 860 832 868 q 828 851 832 851 q 707 826 771 851 q 588 747 643 801 l 232 399 l 197 399 l 556 756 z "},"Ḱ":{"ha":903,"x_min":46,"x_max":894,"o":"m 168 756 q 160 817 168 797 q 127 844 151 836 q 50 851 103 851 q 47 860 47 851 q 50 868 47 868 l 119 867 q 213 864 178 864 q 311 867 253 864 l 376 868 q 381 860 381 868 q 376 851 381 851 q 301 843 325 851 q 267 815 276 835 q 258 753 258 794 l 258 113 q 267 50 258 69 q 299 24 275 31 q 376 17 324 17 q 381 8 381 17 q 376 0 381 0 q 310 1 335 0 l 213 3 l 118 1 q 49 0 93 0 q 46 8 46 0 q 49 17 46 17 q 126 24 101 17 q 159 51 150 31 q 168 113 168 71 l 168 756 m 296 479 l 365 535 l 568 276 q 723 90 669 144 q 806 26 776 36 q 890 17 835 17 q 894 8 894 17 q 890 0 894 0 l 735 0 q 695 -1 724 0 q 615 70 667 -1 q 517 201 564 142 l 296 479 m 556 756 q 601 824 601 801 q 519 851 601 851 q 517 860 517 851 q 519 868 517 868 l 579 867 q 681 864 635 864 q 776 867 726 864 l 828 868 q 832 860 832 868 q 828 851 832 851 q 707 826 771 851 q 588 747 643 801 l 232 399 l 197 399 l 556 756 m 315 942 q 308 948 310 942 q 311 957 307 954 q 463 1044 382 993 q 538 1089 513 1075 q 570 1083 543 1092 q 617 1063 597 1074 q 626 1050 638 1051 q 469 1003 540 1029 q 318 943 397 978 l 315 942 z "},"Ǩ":{"ha":903,"x_min":46,"x_max":894,"o":"m 168 756 q 160 817 168 797 q 127 844 151 836 q 50 851 103 851 q 47 860 47 851 q 50 868 47 868 l 119 867 q 213 864 178 864 q 311 867 253 864 l 376 868 q 381 860 381 868 q 376 851 381 851 q 301 843 325 851 q 267 815 276 835 q 258 753 258 794 l 258 113 q 267 50 258 69 q 299 24 275 31 q 376 17 324 17 q 381 8 381 17 q 376 0 381 0 q 310 1 335 0 l 213 3 l 118 1 q 49 0 93 0 q 46 8 46 0 q 49 17 46 17 q 126 24 101 17 q 159 51 150 31 q 168 113 168 71 l 168 756 m 296 479 l 365 535 l 568 276 q 723 90 669 144 q 806 26 776 36 q 890 17 835 17 q 894 8 894 17 q 890 0 894 0 l 735 0 q 695 -1 724 0 q 615 70 667 -1 q 517 201 564 142 l 296 479 m 556 756 q 601 824 601 801 q 519 851 601 851 q 517 860 517 851 q 519 868 517 868 l 579 867 q 681 864 635 864 q 776 867 726 864 l 828 868 q 832 860 832 868 q 828 851 832 851 q 707 826 771 851 q 588 747 643 801 l 232 399 l 197 399 l 556 756 m 293 1089 q 292 1090 293 1089 q 292 1090 292 1090 q 295 1097 292 1093 q 301 1099 299 1100 l 453 1018 l 603 1099 l 604 1099 q 611 1094 608 1099 q 610 1089 614 1090 l 468 954 q 453 949 463 949 q 436 954 442 949 l 293 1089 z "},"Ķ":{"ha":903,"x_min":46,"x_max":894,"o":"m 168 756 q 160 817 168 797 q 127 844 151 836 q 50 851 103 851 q 47 860 47 851 q 50 868 47 868 l 119 867 q 213 864 178 864 q 311 867 253 864 l 376 868 q 381 860 381 868 q 376 851 381 851 q 301 843 325 851 q 267 815 276 835 q 258 753 258 794 l 258 113 q 267 50 258 69 q 299 24 275 31 q 376 17 324 17 q 381 8 381 17 q 376 0 381 0 q 310 1 335 0 l 213 3 l 118 1 q 49 0 93 0 q 46 8 46 0 q 49 17 46 17 q 126 24 101 17 q 159 51 150 31 q 168 113 168 71 l 168 756 m 296 479 l 365 535 l 568 276 q 723 90 669 144 q 806 26 776 36 q 890 17 835 17 q 894 8 894 17 q 890 0 894 0 l 735 0 q 695 -1 724 0 q 615 70 667 -1 q 517 201 564 142 l 296 479 m 556 756 q 601 824 601 801 q 519 851 601 851 q 517 860 517 851 q 519 868 517 868 l 579 867 q 681 864 635 864 q 776 867 726 864 l 828 868 q 832 860 832 868 q 828 851 832 851 q 707 826 771 851 q 588 747 643 801 l 232 399 l 197 399 l 556 756 m 463 -382 q 458 -383 461 -383 q 451 -378 454 -383 q 453 -371 449 -374 q 514 -247 514 -317 q 506 -207 514 -219 q 483 -187 499 -194 l 508 -179 q 499 -215 513 -203 q 463 -228 486 -228 q 423 -212 438 -228 q 408 -174 408 -197 q 469 -118 408 -118 q 527 -144 507 -118 q 547 -219 547 -171 q 526 -306 547 -267 q 463 -382 504 -344 z "},"L":{"ha":740,"x_min":46,"x_max":724,"o":"m 257 118 q 265 60 257 78 q 296 35 274 42 q 368 29 318 29 l 519 29 q 646 78 599 29 q 708 213 693 126 q 716 216 708 217 q 724 211 724 215 q 711 21 711 96 q 707 5 711 10 q 690 0 703 0 l 49 0 q 46 8 46 0 q 49 17 46 17 q 126 24 101 17 q 158 51 150 31 q 167 113 167 71 l 167 756 q 158 817 167 797 q 126 844 150 836 q 49 851 101 851 q 46 860 46 851 q 49 868 46 868 l 117 867 q 211 864 175 864 q 308 867 250 864 l 375 868 q 379 860 379 868 q 375 851 379 851 q 299 844 324 851 q 265 816 274 836 q 257 754 257 796 l 257 118 z "},"Ĺ":{"ha":740,"x_min":46,"x_max":724,"o":"m 257 118 q 265 60 257 78 q 296 35 274 42 q 368 29 318 29 l 519 29 q 646 78 599 29 q 708 213 693 126 q 716 216 708 217 q 724 211 724 215 q 711 21 711 96 q 707 5 711 10 q 690 0 703 0 l 49 0 q 46 8 46 0 q 49 17 46 17 q 126 24 101 17 q 158 51 150 31 q 167 113 167 71 l 167 756 q 158 817 167 797 q 126 844 150 836 q 49 851 101 851 q 46 860 46 851 q 49 868 46 868 l 117 867 q 211 864 175 864 q 308 867 250 864 l 375 868 q 379 860 379 868 q 375 851 379 851 q 299 844 324 851 q 265 816 274 836 q 257 754 257 796 l 257 118 m 82 942 q 75 948 76 942 q 78 957 74 954 q 229 1044 149 993 q 304 1089 279 1075 q 337 1083 310 1092 q 384 1063 364 1074 q 393 1050 404 1051 q 235 1003 307 1029 q 85 943 164 978 l 82 942 z "},"Ľ":{"ha":740,"x_min":46,"x_max":724,"o":"m 257 118 q 265 60 257 78 q 296 35 274 42 q 368 29 318 29 l 519 29 q 646 78 599 29 q 708 213 693 126 q 716 216 708 217 q 724 211 724 215 q 711 21 711 96 q 707 5 711 10 q 690 0 703 0 l 49 0 q 46 8 46 0 q 49 17 46 17 q 126 24 101 17 q 158 51 150 31 q 167 113 167 71 l 167 756 q 158 817 167 797 q 126 844 150 836 q 49 851 101 851 q 46 860 46 851 q 49 868 46 868 l 117 867 q 211 864 175 864 q 308 867 250 864 l 375 868 q 379 860 379 868 q 375 851 379 851 q 299 844 324 851 q 265 816 274 836 q 257 754 257 796 l 257 118 m 490 868 q 508 867 490 875 q 544 846 526 858 q 561 826 561 833 l 517 489 q 509 487 517 486 q 501 490 501 488 l 490 868 z "},"Ļ":{"ha":740,"x_min":46,"x_max":724,"o":"m 257 118 q 265 60 257 78 q 296 35 274 42 q 368 29 318 29 l 519 29 q 646 78 599 29 q 708 213 693 126 q 716 216 708 217 q 724 211 724 215 q 711 21 711 96 q 707 5 711 10 q 690 0 703 0 l 49 0 q 46 8 46 0 q 49 17 46 17 q 126 24 101 17 q 158 51 150 31 q 167 113 167 71 l 167 756 q 158 817 167 797 q 126 844 150 836 q 49 851 101 851 q 46 860 46 851 q 49 868 46 868 l 117 867 q 211 864 175 864 q 308 867 250 864 l 375 868 q 379 860 379 868 q 375 851 379 851 q 299 844 324 851 q 265 816 274 836 q 257 754 257 796 l 257 118 m 397 -382 q 393 -383 396 -383 q 386 -378 389 -383 q 386 -371 383 -374 q 447 -247 447 -318 q 440 -207 447 -219 q 417 -187 432 -194 l 443 -179 q 433 -215 446 -203 q 396 -228 419 -228 q 357 -213 371 -228 q 343 -174 343 -199 q 403 -118 343 -118 q 462 -144 442 -118 q 482 -219 482 -171 q 460 -305 482 -265 q 397 -382 439 -344 z "},"Ŀ":{"ha":740,"x_min":46,"x_max":724,"o":"m 257 118 q 265 60 257 78 q 296 35 274 42 q 368 29 318 29 l 519 29 q 646 78 599 29 q 708 213 693 126 q 716 216 708 217 q 724 211 724 215 q 711 21 711 96 q 707 5 711 10 q 690 0 703 0 l 49 0 q 46 8 46 0 q 49 17 46 17 q 126 24 101 17 q 158 51 150 31 q 167 113 167 71 l 167 756 q 158 817 167 797 q 126 844 150 836 q 49 851 101 851 q 46 860 46 851 q 49 868 46 868 l 117 867 q 211 864 175 864 q 308 867 250 864 l 375 868 q 379 860 379 868 q 375 851 379 851 q 299 844 324 851 q 265 816 274 836 q 257 754 257 796 l 257 118 m 594 386 q 550 403 567 386 q 533 446 533 419 q 550 488 533 472 q 594 504 567 504 q 639 489 624 504 q 654 446 654 474 q 639 402 654 418 q 594 386 624 386 z "},"Ḷ":{"ha":740,"x_min":46,"x_max":724,"o":"m 257 118 q 265 60 257 78 q 296 35 274 42 q 368 29 318 29 l 519 29 q 646 78 599 29 q 708 213 693 126 q 716 216 708 217 q 724 211 724 215 q 711 21 711 96 q 707 5 711 10 q 690 0 703 0 l 49 0 q 46 8 46 0 q 49 17 46 17 q 126 24 101 17 q 158 51 150 31 q 167 113 167 71 l 167 756 q 158 817 167 797 q 126 844 150 836 q 49 851 101 851 q 46 860 46 851 q 49 868 46 868 l 117 867 q 211 864 175 864 q 308 867 250 864 l 375 868 q 379 860 379 868 q 375 851 379 851 q 299 844 324 851 q 265 816 274 836 q 257 754 257 796 l 257 118 m 414 -264 q 369 -249 385 -264 q 353 -206 353 -233 q 369 -162 353 -178 q 414 -147 385 -147 q 457 -162 442 -147 q 472 -206 472 -178 q 457 -249 472 -233 q 414 -264 442 -264 z "},"Ḹ":{"ha":740,"x_min":36,"x_max":724,"o":"m 257 118 q 265 60 257 78 q 296 35 274 42 q 368 29 318 29 l 519 29 q 646 78 599 29 q 708 213 693 126 q 716 216 708 217 q 724 211 724 215 q 711 21 711 96 q 707 5 711 10 q 690 0 703 0 l 49 0 q 46 8 46 0 q 49 17 46 17 q 126 24 101 17 q 158 51 150 31 q 167 113 167 71 l 167 756 q 158 817 167 797 q 126 844 150 836 q 49 851 101 851 q 46 860 46 851 q 49 868 46 868 l 117 867 q 211 864 175 864 q 308 867 250 864 l 375 868 q 379 860 379 868 q 375 851 379 851 q 299 844 324 851 q 265 816 274 836 q 257 754 257 796 l 257 118 m 414 -264 q 369 -249 385 -264 q 353 -206 353 -233 q 369 -162 353 -178 q 414 -147 385 -147 q 457 -162 442 -147 q 472 -206 472 -178 q 457 -249 472 -233 q 414 -264 442 -264 m 44 1003 q 36 1022 36 1003 q 44 1042 36 1042 l 393 1042 q 403 1022 403 1042 q 393 1003 403 1003 l 44 1003 z "},"Ḻ":{"ha":740,"x_min":46,"x_max":724,"o":"m 257 118 q 265 60 257 78 q 296 35 274 42 q 368 29 318 29 l 519 29 q 646 78 599 29 q 708 213 693 126 q 716 216 708 217 q 724 211 724 215 q 711 21 711 96 q 707 5 711 10 q 690 0 703 0 l 49 0 q 46 8 46 0 q 49 17 46 17 q 126 24 101 17 q 158 51 150 31 q 167 113 167 71 l 167 756 q 158 817 167 797 q 126 844 150 836 q 49 851 101 851 q 46 860 46 851 q 49 868 46 868 l 117 867 q 211 864 175 864 q 308 867 250 864 l 375 868 q 379 860 379 868 q 375 851 379 851 q 299 844 324 851 q 265 816 274 836 q 257 754 257 796 l 257 118 m 238 -157 q 229 -137 229 -157 q 238 -118 229 -118 l 586 -118 q 594 -137 594 -118 q 586 -157 594 -157 l 238 -157 z "},"Ł":{"ha":726,"x_min":46,"x_max":724,"o":"m 94 326 q 83 338 89 326 q 81 351 76 350 l 404 538 l 406 538 q 417 526 411 538 q 418 513 424 514 l 96 326 l 94 326 m 257 118 q 265 60 257 78 q 296 35 274 42 q 368 29 318 29 l 519 29 q 646 78 599 29 q 708 213 693 126 q 716 216 708 217 q 724 211 724 215 q 711 21 711 96 q 707 5 711 10 q 690 0 703 0 l 49 0 q 46 8 46 0 q 49 17 46 17 q 126 24 101 17 q 158 51 150 31 q 167 113 167 71 l 167 756 q 158 817 167 797 q 126 844 150 836 q 49 851 101 851 q 46 860 46 851 q 49 868 46 868 l 117 867 q 211 864 175 864 q 308 867 250 864 l 375 868 q 379 860 379 868 q 375 851 379 851 q 299 844 324 851 q 265 816 274 836 q 257 754 257 796 l 257 118 z "},"M":{"ha":1160,"x_min":51,"x_max":1132,"o":"m 179 836 l 213 833 l 199 151 q 224 47 197 78 q 317 17 250 17 q 319 8 319 17 q 317 0 319 0 q 257 1 278 0 l 182 3 l 110 1 q 54 0 90 0 q 51 8 51 0 q 54 17 51 17 q 138 48 113 17 q 165 151 164 79 l 179 836 m 1128 17 q 1132 8 1132 17 q 1128 0 1132 0 q 1060 1 1085 0 l 964 3 l 875 1 q 813 0 853 0 q 810 8 810 0 q 813 17 810 17 q 883 24 860 17 q 913 51 906 32 q 918 113 921 71 l 892 783 l 938 847 l 576 10 q 565 4 574 4 q 553 10 558 4 l 204 753 q 147 828 181 804 q 64 851 113 851 q 61 860 61 851 q 64 868 61 868 l 115 867 q 154 865 129 865 q 197 867 179 865 q 224 868 214 868 q 253 855 242 868 q 288 796 265 842 l 604 129 l 561 57 l 900 833 q 942 868 915 868 q 962 867 949 868 q 997 865 975 865 l 1063 867 q 1108 868 1078 868 q 1111 860 1111 868 q 1108 851 1111 851 q 1008 831 1038 851 q 981 756 978 811 l 1008 113 q 1019 50 1010 69 q 1051 24 1028 31 q 1128 17 1075 17 z "},"Ḿ":{"ha":1160,"x_min":51,"x_max":1132,"o":"m 179 836 l 213 833 l 199 151 q 224 47 197 78 q 317 17 250 17 q 319 8 319 17 q 317 0 319 0 q 257 1 278 0 l 182 3 l 110 1 q 54 0 90 0 q 51 8 51 0 q 54 17 51 17 q 138 48 113 17 q 165 151 164 79 l 179 836 m 1128 17 q 1132 8 1132 17 q 1128 0 1132 0 q 1060 1 1085 0 l 964 3 l 875 1 q 813 0 853 0 q 810 8 810 0 q 813 17 810 17 q 883 24 860 17 q 913 51 906 32 q 918 113 921 71 l 892 783 l 938 847 l 576 10 q 565 4 574 4 q 553 10 558 4 l 204 753 q 147 828 181 804 q 64 851 113 851 q 61 860 61 851 q 64 868 61 868 l 115 867 q 154 865 129 865 q 197 867 179 865 q 224 868 214 868 q 253 855 242 868 q 288 796 265 842 l 604 129 l 561 57 l 900 833 q 942 868 915 868 q 962 867 949 868 q 997 865 975 865 l 1063 867 q 1108 868 1078 868 q 1111 860 1111 868 q 1108 851 1111 851 q 1008 831 1038 851 q 981 756 978 811 l 1008 113 q 1019 50 1010 69 q 1051 24 1028 31 q 1128 17 1075 17 m 444 942 q 437 948 439 942 q 439 957 435 954 q 582 1039 499 988 q 665 1088 638 1072 q 698 1083 671 1092 q 745 1063 725 1074 q 754 1050 765 1051 q 446 942 590 1008 l 444 942 z "},"Ṁ":{"ha":1160,"x_min":51,"x_max":1132,"o":"m 179 836 l 213 833 l 199 151 q 224 47 197 78 q 317 17 250 17 q 319 8 319 17 q 317 0 319 0 q 257 1 278 0 l 182 3 l 110 1 q 54 0 90 0 q 51 8 51 0 q 54 17 51 17 q 138 48 113 17 q 165 151 164 79 l 179 836 m 1128 17 q 1132 8 1132 17 q 1128 0 1132 0 q 1060 1 1085 0 l 964 3 l 875 1 q 813 0 853 0 q 810 8 810 0 q 813 17 810 17 q 883 24 860 17 q 913 51 906 32 q 918 113 921 71 l 892 783 l 938 847 l 576 10 q 565 4 574 4 q 553 10 558 4 l 204 753 q 147 828 181 804 q 64 851 113 851 q 61 860 61 851 q 64 868 61 868 l 115 867 q 154 865 129 865 q 197 867 179 865 q 224 868 214 868 q 253 855 242 868 q 288 796 265 842 l 604 129 l 561 57 l 900 833 q 942 868 915 868 q 962 867 949 868 q 997 865 975 865 l 1063 867 q 1108 868 1078 868 q 1111 860 1111 868 q 1108 851 1111 851 q 1008 831 1038 851 q 981 756 978 811 l 1008 113 q 1019 50 1010 69 q 1051 24 1028 31 q 1128 17 1075 17 m 581 990 q 535 1006 551 990 q 519 1050 519 1022 q 535 1093 519 1078 q 581 1108 551 1108 q 624 1093 608 1108 q 639 1050 639 1078 q 624 1006 639 1022 q 581 990 608 990 z "},"Ṃ":{"ha":1160,"x_min":51,"x_max":1132,"o":"m 179 836 l 213 833 l 199 151 q 224 47 197 78 q 317 17 250 17 q 319 8 319 17 q 317 0 319 0 q 257 1 278 0 l 182 3 l 110 1 q 54 0 90 0 q 51 8 51 0 q 54 17 51 17 q 138 48 113 17 q 165 151 164 79 l 179 836 m 1128 17 q 1132 8 1132 17 q 1128 0 1132 0 q 1060 1 1085 0 l 964 3 l 875 1 q 813 0 853 0 q 810 8 810 0 q 813 17 810 17 q 883 24 860 17 q 913 51 906 32 q 918 113 921 71 l 892 783 l 938 847 l 576 10 q 565 4 574 4 q 553 10 558 4 l 204 753 q 147 828 181 804 q 64 851 113 851 q 61 860 61 851 q 64 868 61 868 l 115 867 q 154 865 129 865 q 197 867 179 865 q 224 868 214 868 q 253 855 242 868 q 288 796 265 842 l 604 129 l 561 57 l 900 833 q 942 868 915 868 q 962 867 949 868 q 997 865 975 865 l 1063 867 q 1108 868 1078 868 q 1111 860 1111 868 q 1108 851 1111 851 q 1008 831 1038 851 q 981 756 978 811 l 1008 113 q 1019 50 1010 69 q 1051 24 1028 31 q 1128 17 1075 17 m 568 -264 q 523 -249 539 -264 q 507 -206 507 -233 q 523 -162 507 -178 q 568 -147 539 -147 q 611 -162 596 -147 q 626 -206 626 -178 q 611 -249 626 -233 q 568 -264 596 -264 z "},"N":{"ha":1010,"x_min":53,"x_max":982,"o":"m 167 836 l 199 833 l 199 151 q 224 48 199 79 q 307 17 250 17 q 311 8 311 17 q 307 0 311 0 q 254 1 272 0 l 185 3 l 114 1 q 57 0 94 0 q 54 8 54 0 q 57 17 54 17 q 142 48 117 17 q 167 151 167 79 l 167 836 m 867 -17 q 860 -21 867 -19 q 850 -19 853 -22 l 211 754 q 130 830 167 808 q 57 851 93 851 q 53 860 53 851 q 57 868 53 868 l 108 867 q 154 865 125 865 q 204 867 185 865 q 235 868 224 868 q 251 863 244 868 q 265 843 257 858 q 300 796 282 818 l 856 114 l 867 -17 m 867 -17 l 835 26 l 835 715 q 810 819 835 788 q 729 851 786 851 q 726 860 726 851 q 729 868 726 868 l 783 867 q 851 864 825 864 q 921 867 876 864 l 978 868 q 982 860 982 868 q 978 851 982 851 q 893 819 919 851 q 867 715 867 788 l 867 -17 z "},"Ń":{"ha":1010,"x_min":53,"x_max":982,"o":"m 167 836 l 199 833 l 199 151 q 224 48 199 79 q 307 17 250 17 q 311 8 311 17 q 307 0 311 0 q 254 1 272 0 l 185 3 l 114 1 q 57 0 94 0 q 54 8 54 0 q 57 17 54 17 q 142 48 117 17 q 167 151 167 79 l 167 836 m 867 -17 q 860 -21 867 -19 q 850 -19 853 -22 l 211 754 q 130 830 167 808 q 57 851 93 851 q 53 860 53 851 q 57 868 53 868 l 108 867 q 154 865 125 865 q 204 867 185 865 q 235 868 224 868 q 251 863 244 868 q 265 843 257 858 q 300 796 282 818 l 856 114 l 867 -17 m 867 -17 l 835 26 l 835 715 q 810 819 835 788 q 729 851 786 851 q 726 860 726 851 q 729 868 726 868 l 783 867 q 851 864 825 864 q 921 867 876 864 l 978 868 q 982 860 982 868 q 978 851 982 851 q 893 819 919 851 q 867 715 867 788 l 867 -17 m 385 942 q 378 948 379 942 q 381 957 376 954 q 472 1008 428 981 q 528 1042 517 1035 l 606 1089 q 640 1083 613 1092 q 687 1063 667 1074 q 696 1050 707 1051 q 538 1003 610 1029 q 388 943 467 978 l 385 942 z "},"Ň":{"ha":1010,"x_min":53,"x_max":982,"o":"m 167 836 l 199 833 l 199 151 q 224 48 199 79 q 307 17 250 17 q 311 8 311 17 q 307 0 311 0 q 254 1 272 0 l 185 3 l 114 1 q 57 0 94 0 q 54 8 54 0 q 57 17 54 17 q 142 48 117 17 q 167 151 167 79 l 167 836 m 867 -17 q 860 -21 867 -19 q 850 -19 853 -22 l 211 754 q 130 830 167 808 q 57 851 93 851 q 53 860 53 851 q 57 868 53 868 l 108 867 q 154 865 125 865 q 204 867 185 865 q 235 868 224 868 q 251 863 244 868 q 265 843 257 858 q 300 796 282 818 l 856 114 l 867 -17 m 867 -17 l 835 26 l 835 715 q 810 819 835 788 q 729 851 786 851 q 726 860 726 851 q 729 868 726 868 l 783 867 q 851 864 825 864 q 921 867 876 864 l 978 868 q 982 860 982 868 q 978 851 982 851 q 893 819 919 851 q 867 715 867 788 l 867 -17 m 363 1089 q 362 1090 363 1089 q 361 1090 361 1090 q 365 1097 361 1093 q 371 1099 368 1100 l 522 1018 l 672 1099 l 674 1099 q 679 1094 676 1099 q 679 1089 682 1090 l 538 954 q 522 949 532 949 q 506 954 511 949 l 363 1089 z "},"Ṋ":{"ha":1010,"x_min":53,"x_max":982,"o":"m 167 836 l 199 833 l 199 151 q 224 48 199 79 q 307 17 250 17 q 311 8 311 17 q 307 0 311 0 q 254 1 272 0 l 185 3 l 114 1 q 57 0 94 0 q 54 8 54 0 q 57 17 54 17 q 142 48 117 17 q 167 151 167 79 l 167 836 m 867 -17 q 860 -21 867 -19 q 850 -19 853 -22 l 211 754 q 130 830 167 808 q 57 851 93 851 q 53 860 53 851 q 57 868 53 868 l 108 867 q 154 865 125 865 q 204 867 185 865 q 235 868 224 868 q 251 863 244 868 q 265 843 257 858 q 300 796 282 818 l 856 114 l 867 -17 m 867 -17 l 835 26 l 835 715 q 810 819 835 788 q 729 851 786 851 q 726 860 726 851 q 729 868 726 868 l 783 867 q 851 864 825 864 q 921 867 876 864 l 978 868 q 982 860 982 868 q 978 851 982 851 q 893 819 919 851 q 867 715 867 788 l 867 -17 m 369 -256 q 363 -252 367 -257 q 361 -246 358 -247 l 504 -111 q 521 -106 510 -106 q 536 -111 531 -106 l 678 -246 q 679 -249 679 -246 q 676 -254 679 -251 q 671 -256 672 -257 l 521 -176 l 369 -256 z "},"Ņ":{"ha":1010,"x_min":53,"x_max":982,"o":"m 167 836 l 199 833 l 199 151 q 224 48 199 79 q 307 17 250 17 q 311 8 311 17 q 307 0 311 0 q 254 1 272 0 l 185 3 l 114 1 q 57 0 94 0 q 54 8 54 0 q 57 17 54 17 q 142 48 117 17 q 167 151 167 79 l 167 836 m 867 -17 q 860 -21 867 -19 q 850 -19 853 -22 l 211 754 q 130 830 167 808 q 57 851 93 851 q 53 860 53 851 q 57 868 53 868 l 108 867 q 154 865 125 865 q 204 867 185 865 q 235 868 224 868 q 251 863 244 868 q 265 843 257 858 q 300 796 282 818 l 856 114 l 867 -17 m 867 -17 l 835 26 l 835 715 q 810 819 835 788 q 729 851 786 851 q 726 860 726 851 q 729 868 726 868 l 783 867 q 851 864 825 864 q 921 867 876 864 l 978 868 q 982 860 982 868 q 978 851 982 851 q 893 819 919 851 q 867 715 867 788 l 867 -17 m 504 -382 q 500 -383 503 -383 q 493 -378 496 -383 q 493 -371 490 -374 q 554 -247 554 -318 q 547 -207 554 -219 q 525 -187 540 -194 l 550 -179 q 540 -215 553 -203 q 504 -228 528 -228 q 465 -212 479 -228 q 450 -174 450 -197 q 510 -118 450 -118 q 569 -144 549 -118 q 589 -219 589 -171 q 567 -305 589 -265 q 504 -382 546 -344 z "},"Ṅ":{"ha":1010,"x_min":53,"x_max":982,"o":"m 167 836 l 199 833 l 199 151 q 224 48 199 79 q 307 17 250 17 q 311 8 311 17 q 307 0 311 0 q 254 1 272 0 l 185 3 l 114 1 q 57 0 94 0 q 54 8 54 0 q 57 17 54 17 q 142 48 117 17 q 167 151 167 79 l 167 836 m 867 -17 q 860 -21 867 -19 q 850 -19 853 -22 l 211 754 q 130 830 167 808 q 57 851 93 851 q 53 860 53 851 q 57 868 53 868 l 108 867 q 154 865 125 865 q 204 867 185 865 q 235 868 224 868 q 251 863 244 868 q 265 843 257 858 q 300 796 282 818 l 856 114 l 867 -17 m 867 -17 l 835 26 l 835 715 q 810 819 835 788 q 729 851 786 851 q 726 860 726 851 q 729 868 726 868 l 783 867 q 851 864 825 864 q 921 867 876 864 l 978 868 q 982 860 982 868 q 978 851 982 851 q 893 819 919 851 q 867 715 867 788 l 867 -17 m 522 990 q 477 1006 493 990 q 461 1050 461 1022 q 477 1093 461 1078 q 522 1108 493 1108 q 565 1093 550 1108 q 581 1050 581 1078 q 565 1006 581 1022 q 522 990 550 990 z "},"Ṇ":{"ha":1010,"x_min":53,"x_max":982,"o":"m 167 836 l 199 833 l 199 151 q 224 48 199 79 q 307 17 250 17 q 311 8 311 17 q 307 0 311 0 q 254 1 272 0 l 185 3 l 114 1 q 57 0 94 0 q 54 8 54 0 q 57 17 54 17 q 142 48 117 17 q 167 151 167 79 l 167 836 m 867 -17 q 860 -21 867 -19 q 850 -19 853 -22 l 211 754 q 130 830 167 808 q 57 851 93 851 q 53 860 53 851 q 57 868 53 868 l 108 867 q 154 865 125 865 q 204 867 185 865 q 235 868 224 868 q 251 863 244 868 q 265 843 257 858 q 300 796 282 818 l 856 114 l 867 -17 m 867 -17 l 835 26 l 835 715 q 810 819 835 788 q 729 851 786 851 q 726 860 726 851 q 729 868 726 868 l 783 867 q 851 864 825 864 q 921 867 876 864 l 978 868 q 982 860 982 868 q 978 851 982 851 q 893 819 919 851 q 867 715 867 788 l 867 -17 m 521 -264 q 476 -249 492 -264 q 460 -206 460 -233 q 476 -162 460 -178 q 521 -147 492 -147 q 564 -162 549 -147 q 579 -206 579 -178 q 564 -249 579 -233 q 521 -264 549 -264 z "},"Ǹ":{"ha":1010,"x_min":53,"x_max":982,"o":"m 167 836 l 199 833 l 199 151 q 224 48 199 79 q 307 17 250 17 q 311 8 311 17 q 307 0 311 0 q 254 1 272 0 l 185 3 l 114 1 q 57 0 94 0 q 54 8 54 0 q 57 17 54 17 q 142 48 117 17 q 167 151 167 79 l 167 836 m 867 -17 q 860 -21 867 -19 q 850 -19 853 -22 l 211 754 q 130 830 167 808 q 57 851 93 851 q 53 860 53 851 q 57 868 53 868 l 108 867 q 154 865 125 865 q 204 867 185 865 q 235 868 224 868 q 251 863 244 868 q 265 843 257 858 q 300 796 282 818 l 856 114 l 867 -17 m 867 -17 l 835 26 l 835 715 q 810 819 835 788 q 729 851 786 851 q 726 860 726 851 q 729 868 726 868 l 783 867 q 851 864 825 864 q 921 867 876 864 l 978 868 q 982 860 982 868 q 978 851 982 851 q 893 819 919 851 q 867 715 867 788 l 867 -17 m 660 943 q 350 1050 503 1013 q 360 1063 340 1051 q 407 1083 381 1074 q 439 1089 433 1092 l 476 1065 q 665 957 586 997 q 668 951 668 956 q 665 944 668 947 q 660 943 663 942 z "},"Ṉ":{"ha":1010,"x_min":53,"x_max":982,"o":"m 167 836 l 199 833 l 199 151 q 224 48 199 79 q 307 17 250 17 q 311 8 311 17 q 307 0 311 0 q 254 1 272 0 l 185 3 l 114 1 q 57 0 94 0 q 54 8 54 0 q 57 17 54 17 q 142 48 117 17 q 167 151 167 79 l 167 836 m 867 -17 q 860 -21 867 -19 q 850 -19 853 -22 l 211 754 q 130 830 167 808 q 57 851 93 851 q 53 860 53 851 q 57 868 53 868 l 108 867 q 154 865 125 865 q 204 867 185 865 q 235 868 224 868 q 251 863 244 868 q 265 843 257 858 q 300 796 282 818 l 856 114 l 867 -17 m 867 -17 l 835 26 l 835 715 q 810 819 835 788 q 729 851 786 851 q 726 860 726 851 q 729 868 726 868 l 783 867 q 851 864 825 864 q 921 867 876 864 l 978 868 q 982 860 982 868 q 978 851 982 851 q 893 819 919 851 q 867 715 867 788 l 867 -17 m 344 -157 q 336 -137 336 -157 q 344 -118 336 -118 l 693 -118 q 701 -137 701 -118 q 693 -157 701 -157 l 344 -157 z "},"Ñ":{"ha":1010,"x_min":53,"x_max":982,"o":"m 167 836 l 199 833 l 199 151 q 224 48 199 79 q 307 17 250 17 q 311 8 311 17 q 307 0 311 0 q 254 1 272 0 l 185 3 l 114 1 q 57 0 94 0 q 54 8 54 0 q 57 17 54 17 q 142 48 117 17 q 167 151 167 79 l 167 836 m 867 -17 q 860 -21 867 -19 q 850 -19 853 -22 l 211 754 q 130 830 167 808 q 57 851 93 851 q 53 860 53 851 q 57 868 53 868 l 108 867 q 154 865 125 865 q 204 867 185 865 q 235 868 224 868 q 251 863 244 868 q 265 843 257 858 q 300 796 282 818 l 856 114 l 867 -17 m 867 -17 l 835 26 l 835 715 q 810 819 835 788 q 729 851 786 851 q 726 860 726 851 q 729 868 726 868 l 783 867 q 851 864 825 864 q 921 867 876 864 l 978 868 q 982 860 982 868 q 978 851 982 851 q 893 819 919 851 q 867 715 867 788 l 867 -17 m 628 1047 q 665 1056 651 1047 q 697 1085 679 1065 l 699 1085 q 706 1081 703 1085 q 707 1075 710 1078 q 647 1007 671 1025 q 597 989 624 989 q 513 1006 568 989 q 477 1015 507 1007 q 415 1024 447 1024 q 381 1016 393 1024 q 360 999 369 1008 q 347 986 351 990 l 344 986 q 338 990 340 986 q 338 996 335 993 q 454 1081 399 1081 q 498 1074 474 1081 q 526 1067 522 1068 q 628 1047 588 1047 z "},"Ŋ":{"ha":1010,"x_min":53,"x_max":982,"o":"m 211 754 q 130 830 167 808 q 57 851 93 851 q 53 860 53 851 q 57 868 53 868 l 108 867 q 154 865 125 865 q 204 867 185 865 q 235 868 224 868 q 251 863 244 868 q 265 843 257 858 q 300 796 282 818 l 856 114 l 867 -17 l 850 -19 l 211 754 m 690 -265 q 608 -242 639 -265 q 576 -186 576 -219 q 588 -149 576 -162 q 621 -136 600 -136 q 654 -149 644 -136 q 672 -186 664 -161 q 691 -225 681 -212 q 725 -237 701 -237 q 807 -178 778 -237 q 836 -19 836 -118 l 867 -17 q 822 -201 867 -137 q 690 -265 776 -265 m 57 0 q 54 8 54 0 q 57 17 54 17 q 142 48 117 17 q 168 151 168 79 l 168 836 l 199 833 l 199 151 q 224 48 199 79 q 307 17 250 17 q 311 8 311 17 q 307 0 311 0 q 254 1 272 0 l 185 3 l 114 1 q 57 0 94 0 m 836 715 q 811 819 836 788 q 729 851 786 851 q 726 860 726 851 q 729 868 726 868 l 783 867 q 851 864 825 864 q 921 867 876 864 l 978 868 q 982 860 982 868 q 978 851 982 851 q 893 819 919 851 q 867 715 867 788 l 867 -17 l 836 -19 l 836 715 z "},"O":{"ha":1064,"x_min":68,"x_max":996,"o":"m 508 -17 q 278 44 379 -17 q 123 208 178 104 q 68 433 68 311 q 140 678 68 576 q 326 832 213 781 q 557 883 439 883 q 789 822 689 883 q 942 658 889 760 q 996 443 996 557 q 929 211 996 317 q 751 44 863 106 q 508 -17 639 -17 m 557 13 q 727 58 651 13 q 847 192 803 104 q 890 404 890 281 q 842 636 890 535 q 705 794 793 738 q 499 851 617 851 q 260 753 346 851 q 174 482 174 654 q 222 244 174 351 q 358 74 271 136 q 557 13 446 13 z "},"Ó":{"ha":1064,"x_min":68,"x_max":996,"o":"m 508 -17 q 278 44 379 -17 q 123 208 178 104 q 68 433 68 311 q 140 678 68 576 q 326 832 213 781 q 557 883 439 883 q 789 822 689 883 q 942 658 889 760 q 996 443 996 557 q 929 211 996 317 q 751 44 863 106 q 508 -17 639 -17 m 557 13 q 727 58 651 13 q 847 192 803 104 q 890 404 890 281 q 842 636 890 535 q 705 794 793 738 q 499 851 617 851 q 260 753 346 851 q 174 482 174 654 q 222 244 174 351 q 358 74 271 136 q 557 13 446 13 m 397 942 q 390 948 392 942 q 393 957 389 954 q 544 1043 439 982 q 588 1071 569 1060 q 619 1089 607 1082 q 652 1083 625 1092 q 699 1063 679 1074 q 708 1050 718 1051 q 551 1003 622 1029 q 400 943 479 978 l 397 942 z "},"Ŏ":{"ha":1064,"x_min":68,"x_max":996,"o":"m 508 -17 q 278 44 379 -17 q 123 208 178 104 q 68 433 68 311 q 140 678 68 576 q 326 832 213 781 q 557 883 439 883 q 789 822 689 883 q 942 658 889 760 q 996 443 996 557 q 929 211 996 317 q 751 44 863 106 q 508 -17 639 -17 m 557 13 q 727 58 651 13 q 847 192 803 104 q 890 404 890 281 q 842 636 890 535 q 705 794 793 738 q 499 851 617 851 q 260 753 346 851 q 174 482 174 654 q 222 244 174 351 q 358 74 271 136 q 557 13 446 13 m 535 958 q 438 997 475 958 q 392 1107 401 1036 q 397 1113 390 1113 q 407 1111 404 1114 q 453 1045 417 1072 q 535 1018 490 1018 q 615 1046 578 1018 q 661 1111 651 1074 q 667 1114 661 1114 q 674 1112 671 1114 q 676 1107 678 1110 q 629 997 665 1035 q 535 958 593 958 z "},"Ǒ":{"ha":1064,"x_min":68,"x_max":996,"o":"m 508 -17 q 278 44 379 -17 q 123 208 178 104 q 68 433 68 311 q 140 678 68 576 q 326 832 213 781 q 557 883 439 883 q 789 822 689 883 q 942 658 889 760 q 996 443 996 557 q 929 211 996 317 q 751 44 863 106 q 508 -17 639 -17 m 557 13 q 727 58 651 13 q 847 192 803 104 q 890 404 890 281 q 842 636 890 535 q 705 794 793 738 q 499 851 617 851 q 260 753 346 851 q 174 482 174 654 q 222 244 174 351 q 358 74 271 136 q 557 13 446 13 m 375 1089 q 374 1090 375 1089 q 374 1090 374 1090 q 377 1097 374 1093 q 383 1099 381 1100 l 535 1018 l 685 1099 l 686 1099 q 693 1094 690 1099 q 692 1089 696 1090 l 550 954 q 535 949 544 949 q 518 954 524 949 l 375 1089 z "},"Ô":{"ha":1064,"x_min":68,"x_max":996,"o":"m 508 -17 q 278 44 379 -17 q 123 208 178 104 q 68 433 68 311 q 140 678 68 576 q 326 832 213 781 q 557 883 439 883 q 789 822 689 883 q 942 658 889 760 q 996 443 996 557 q 929 211 996 317 q 751 44 863 106 q 508 -17 639 -17 m 557 13 q 727 58 651 13 q 847 192 803 104 q 890 404 890 281 q 842 636 890 535 q 705 794 793 738 q 499 851 617 851 q 260 753 346 851 q 174 482 174 654 q 222 244 174 351 q 358 74 271 136 q 557 13 446 13 m 519 1097 q 536 1104 526 1104 q 551 1097 544 1104 l 693 961 q 694 958 694 961 q 691 953 694 956 q 686 951 688 950 l 536 1032 l 385 951 q 378 955 382 950 q 376 961 374 960 l 519 1097 z "},"Ố":{"ha":1064,"x_min":68,"x_max":996,"o":"m 508 -17 q 278 44 379 -17 q 123 208 178 104 q 68 433 68 311 q 140 678 68 576 q 326 832 213 781 q 557 883 439 883 q 789 822 689 883 q 942 658 889 760 q 996 443 996 557 q 929 211 996 317 q 751 44 863 106 q 508 -17 639 -17 m 557 13 q 727 58 651 13 q 847 192 803 104 q 890 404 890 281 q 842 636 890 535 q 705 794 793 738 q 499 851 617 851 q 260 753 346 851 q 174 482 174 654 q 222 244 174 351 q 358 74 271 136 q 557 13 446 13 m 518 1089 q 535 1096 525 1096 q 550 1089 543 1096 l 692 954 q 693 951 693 954 q 690 946 693 949 q 685 944 686 943 l 535 1025 l 383 944 q 376 948 381 943 q 375 954 372 953 l 518 1089 m 626 1006 q 622 1004 625 1004 q 616 1009 618 1004 q 617 1017 614 1014 q 722 1151 671 1076 q 753 1148 726 1157 q 802 1127 781 1139 q 813 1113 824 1115 q 626 1006 722 1076 z "},"Ộ":{"ha":1064,"x_min":68,"x_max":996,"o":"m 508 -17 q 278 44 379 -17 q 123 208 178 104 q 68 433 68 311 q 140 678 68 576 q 326 832 213 781 q 557 883 439 883 q 789 822 689 883 q 942 658 889 760 q 996 443 996 557 q 929 211 996 317 q 751 44 863 106 q 508 -17 639 -17 m 557 13 q 727 58 651 13 q 847 192 803 104 q 890 404 890 281 q 842 636 890 535 q 705 794 793 738 q 499 851 617 851 q 260 753 346 851 q 174 482 174 654 q 222 244 174 351 q 358 74 271 136 q 557 13 446 13 m 550 -264 q 505 -249 521 -264 q 489 -206 489 -233 q 505 -162 489 -178 q 550 -147 521 -147 q 593 -162 578 -147 q 608 -206 608 -178 q 593 -249 608 -233 q 550 -264 578 -264 m 518 1089 q 535 1096 525 1096 q 550 1089 543 1096 l 692 954 q 693 951 693 954 q 690 946 693 949 q 685 944 686 943 l 535 1025 l 383 944 q 376 948 381 943 q 375 954 372 953 l 518 1089 z "},"Ồ":{"ha":1064,"x_min":68,"x_max":996,"o":"m 508 -17 q 278 44 379 -17 q 123 208 178 104 q 68 433 68 311 q 140 678 68 576 q 326 832 213 781 q 557 883 439 883 q 789 822 689 883 q 942 658 889 760 q 996 443 996 557 q 929 211 996 317 q 751 44 863 106 q 508 -17 639 -17 m 557 13 q 727 58 651 13 q 847 192 803 104 q 890 404 890 281 q 842 636 890 535 q 705 794 793 738 q 499 851 617 851 q 260 753 346 851 q 174 482 174 654 q 222 244 174 351 q 358 74 271 136 q 557 13 446 13 m 518 1089 q 535 1096 525 1096 q 550 1089 543 1096 l 692 954 q 693 951 693 954 q 690 946 693 949 q 685 944 686 943 l 535 1025 l 383 944 q 376 948 381 943 q 375 954 372 953 l 518 1089 m 767 975 q 676 1036 718 1011 q 582 1082 633 1061 q 592 1097 571 1085 q 641 1117 614 1108 q 672 1121 668 1126 q 776 988 718 1054 l 779 982 q 775 976 779 978 q 767 975 771 974 z "},"Ổ":{"ha":1064,"x_min":68,"x_max":996,"o":"m 508 -17 q 278 44 379 -17 q 123 208 178 104 q 68 433 68 311 q 140 678 68 576 q 326 832 213 781 q 557 883 439 883 q 789 822 689 883 q 942 658 889 760 q 996 443 996 557 q 929 211 996 317 q 751 44 863 106 q 508 -17 639 -17 m 557 13 q 727 58 651 13 q 847 192 803 104 q 890 404 890 281 q 842 636 890 535 q 705 794 793 738 q 499 851 617 851 q 260 753 346 851 q 174 482 174 654 q 222 244 174 351 q 358 74 271 136 q 557 13 446 13 m 518 1089 q 535 1096 525 1096 q 550 1089 543 1096 l 692 954 q 693 951 693 954 q 690 946 693 949 q 685 944 686 943 l 535 1025 l 383 944 q 376 948 381 943 q 375 954 372 953 l 518 1089 m 646 1006 q 643 1024 643 1013 q 663 1075 643 1042 q 683 1128 683 1107 q 669 1160 683 1149 q 636 1171 654 1171 q 603 1164 619 1171 l 601 1164 q 593 1169 597 1164 q 593 1175 589 1174 q 637 1194 614 1188 q 676 1201 660 1201 q 725 1183 707 1201 q 743 1142 743 1165 q 731 1106 743 1122 q 699 1071 719 1090 q 667 1036 676 1050 q 661 1006 657 1022 q 656 1002 664 1003 q 646 1006 647 1001 z "},"Ỗ":{"ha":1064,"x_min":68,"x_max":996,"o":"m 508 -17 q 278 44 379 -17 q 123 208 178 104 q 68 433 68 311 q 140 678 68 576 q 326 832 213 781 q 557 883 439 883 q 789 822 689 883 q 942 658 889 760 q 996 443 996 557 q 929 211 996 317 q 751 44 863 106 q 508 -17 639 -17 m 557 13 q 727 58 651 13 q 847 192 803 104 q 890 404 890 281 q 842 636 890 535 q 705 794 793 738 q 499 851 617 851 q 260 753 346 851 q 174 482 174 654 q 222 244 174 351 q 358 74 271 136 q 557 13 446 13 m 518 1089 q 535 1096 525 1096 q 550 1089 543 1096 l 692 954 q 693 951 693 954 q 690 946 693 949 q 685 944 686 943 l 535 1025 l 383 944 q 376 948 381 943 q 375 954 372 953 l 518 1089 m 649 1164 q 686 1174 672 1164 q 717 1201 700 1183 l 718 1201 q 726 1198 722 1201 q 726 1192 729 1194 q 667 1124 690 1142 q 617 1106 643 1106 q 532 1122 588 1106 q 497 1132 526 1124 q 435 1140 467 1140 q 402 1133 414 1140 q 381 1117 390 1126 q 367 1103 372 1107 l 364 1103 q 357 1106 360 1103 q 357 1113 354 1110 q 412 1171 381 1144 q 475 1197 443 1197 q 544 1183 494 1197 q 649 1164 608 1164 z "},"Ȍ":{"ha":1064,"x_min":68,"x_max":996,"o":"m 508 -17 q 278 44 379 -17 q 123 208 178 104 q 68 433 68 311 q 140 678 68 576 q 326 832 213 781 q 557 883 439 883 q 789 822 689 883 q 942 658 889 760 q 996 443 996 557 q 929 211 996 317 q 751 44 863 106 q 508 -17 639 -17 m 557 13 q 727 58 651 13 q 847 192 803 104 q 890 404 890 281 q 842 636 890 535 q 705 794 793 738 q 499 851 617 851 q 260 753 346 851 q 174 482 174 654 q 222 244 174 351 q 358 74 271 136 q 557 13 446 13 m 676 942 q 572 1006 615 981 q 472 1053 528 1031 q 483 1067 463 1057 q 531 1085 504 1078 q 563 1086 558 1092 q 688 954 621 1017 q 689 950 689 953 q 685 942 689 946 q 676 942 681 939 m 504 942 q 398 1008 439 983 q 304 1053 357 1032 q 314 1067 294 1057 q 360 1085 333 1078 q 390 1086 386 1092 q 515 954 449 1017 q 517 950 517 953 q 513 942 517 946 q 504 942 508 939 z "},"Ö":{"ha":1064,"x_min":68,"x_max":996,"o":"m 508 -17 q 278 44 379 -17 q 123 208 178 104 q 68 433 68 311 q 140 678 68 576 q 326 832 213 781 q 557 883 439 883 q 789 822 689 883 q 942 658 889 760 q 996 443 996 557 q 929 211 996 317 q 751 44 863 106 q 508 -17 639 -17 m 557 13 q 727 58 651 13 q 847 192 803 104 q 890 404 890 281 q 842 636 890 535 q 705 794 793 738 q 499 851 617 851 q 260 753 346 851 q 174 482 174 654 q 222 244 174 351 q 358 74 271 136 q 557 13 446 13 m 414 996 q 370 1011 386 996 q 354 1053 354 1026 q 370 1094 354 1079 q 414 1110 386 1110 q 456 1095 442 1110 q 471 1053 471 1081 q 456 1011 471 1026 q 414 996 442 996 m 657 996 q 613 1011 629 996 q 597 1053 597 1026 q 613 1094 597 1079 q 657 1110 629 1110 q 699 1095 685 1110 q 714 1053 714 1081 q 699 1011 714 1026 q 657 996 685 996 z "},"Ọ":{"ha":1064,"x_min":68,"x_max":996,"o":"m 508 -17 q 278 44 379 -17 q 123 208 178 104 q 68 433 68 311 q 140 678 68 576 q 326 832 213 781 q 557 883 439 883 q 789 822 689 883 q 942 658 889 760 q 996 443 996 557 q 929 211 996 317 q 751 44 863 106 q 508 -17 639 -17 m 557 13 q 727 58 651 13 q 847 192 803 104 q 890 404 890 281 q 842 636 890 535 q 705 794 793 738 q 499 851 617 851 q 260 753 346 851 q 174 482 174 654 q 222 244 174 351 q 358 74 271 136 q 557 13 446 13 m 550 -264 q 505 -249 521 -264 q 489 -206 489 -233 q 505 -162 489 -178 q 550 -147 521 -147 q 593 -162 578 -147 q 608 -206 608 -178 q 593 -249 608 -233 q 550 -264 578 -264 z "},"Ò":{"ha":1064,"x_min":68,"x_max":996,"o":"m 508 -17 q 278 44 379 -17 q 123 208 178 104 q 68 433 68 311 q 140 678 68 576 q 326 832 213 781 q 557 883 439 883 q 789 822 689 883 q 942 658 889 760 q 996 443 996 557 q 929 211 996 317 q 751 44 863 106 q 508 -17 639 -17 m 557 13 q 727 58 651 13 q 847 192 803 104 q 890 404 890 281 q 842 636 890 535 q 705 794 793 738 q 499 851 617 851 q 260 753 346 851 q 174 482 174 654 q 222 244 174 351 q 358 74 271 136 q 557 13 446 13 m 672 943 q 363 1050 515 1013 q 373 1063 353 1051 q 419 1083 393 1074 q 451 1089 446 1092 q 506 1057 488 1067 q 678 957 614 990 q 681 951 681 956 q 678 944 681 947 q 672 943 675 942 z "},"Ỏ":{"ha":1064,"x_min":68,"x_max":996,"o":"m 508 -17 q 278 44 379 -17 q 123 208 178 104 q 68 433 68 311 q 140 678 68 576 q 326 832 213 781 q 557 883 439 883 q 789 822 689 883 q 942 658 889 760 q 996 443 996 557 q 929 211 996 317 q 751 44 863 106 q 508 -17 639 -17 m 557 13 q 727 58 651 13 q 847 192 803 104 q 890 404 890 281 q 842 636 890 535 q 705 794 793 738 q 499 851 617 851 q 260 753 346 851 q 174 482 174 654 q 222 244 174 351 q 358 74 271 136 q 557 13 446 13 m 538 904 q 531 901 539 901 q 522 904 524 901 q 518 933 518 919 q 526 973 518 954 q 549 1014 533 992 q 569 1053 563 1039 q 575 1083 575 1067 q 558 1124 575 1110 q 517 1139 542 1139 q 478 1129 497 1139 l 476 1129 q 468 1134 472 1129 q 468 1140 464 1139 q 558 1169 508 1169 q 624 1149 600 1169 q 647 1097 647 1128 q 633 1051 647 1072 q 589 1001 618 1031 q 546 951 560 972 q 538 904 532 929 z "},"Ơ":{"ha":1064,"x_min":68,"x_max":1018,"o":"m 508 -17 q 278 44 379 -17 q 123 208 178 104 q 68 433 68 311 q 140 678 68 576 q 326 832 213 781 q 557 883 439 883 q 789 822 689 883 q 942 658 889 760 q 996 443 996 557 q 929 211 996 317 q 751 44 863 106 q 508 -17 639 -17 m 557 13 q 727 58 651 13 q 847 192 803 104 q 890 404 890 281 q 842 636 890 535 q 705 794 793 738 q 499 851 617 851 q 260 753 346 851 q 174 482 174 654 q 222 244 174 351 q 358 74 271 136 q 557 13 446 13 m 833 758 q 910 804 883 779 q 936 856 936 829 q 931 875 936 867 q 924 885 925 883 q 911 903 915 894 q 907 925 907 911 q 924 964 907 950 q 964 978 942 978 q 1004 960 990 978 q 1018 917 1018 942 q 967 814 1018 857 q 838 739 917 771 l 833 758 z "},"Ớ":{"ha":1064,"x_min":68,"x_max":1018,"o":"m 508 -17 q 278 44 379 -17 q 123 208 178 104 q 68 433 68 311 q 140 678 68 576 q 326 832 213 781 q 557 883 439 883 q 789 822 689 883 q 942 658 889 760 q 996 443 996 557 q 929 211 996 317 q 751 44 863 106 q 508 -17 639 -17 m 557 13 q 727 58 651 13 q 847 192 803 104 q 890 404 890 281 q 842 636 890 535 q 705 794 793 738 q 499 851 617 851 q 260 753 346 851 q 174 482 174 654 q 222 244 174 351 q 358 74 271 136 q 557 13 446 13 m 833 758 q 910 804 883 779 q 936 856 936 829 q 931 875 936 867 q 924 885 925 883 q 911 903 915 894 q 907 925 907 911 q 924 964 907 950 q 964 978 942 978 q 1004 960 990 978 q 1018 917 1018 942 q 967 814 1018 857 q 838 739 917 771 l 833 758 m 397 942 q 390 948 392 942 q 392 957 388 954 q 535 1039 451 988 q 618 1088 590 1072 q 651 1083 624 1092 q 698 1063 678 1074 q 707 1050 718 1051 q 399 942 543 1008 l 397 942 z "},"Ợ":{"ha":1064,"x_min":68,"x_max":1018,"o":"m 508 -17 q 278 44 379 -17 q 123 208 178 104 q 68 433 68 311 q 140 678 68 576 q 326 832 213 781 q 557 883 439 883 q 789 822 689 883 q 942 658 889 760 q 996 443 996 557 q 929 211 996 317 q 751 44 863 106 q 508 -17 639 -17 m 557 13 q 727 58 651 13 q 847 192 803 104 q 890 404 890 281 q 842 636 890 535 q 705 794 793 738 q 499 851 617 851 q 260 753 346 851 q 174 482 174 654 q 222 244 174 351 q 358 74 271 136 q 557 13 446 13 m 833 758 q 910 804 883 779 q 936 856 936 829 q 931 875 936 867 q 924 885 925 883 q 911 903 915 894 q 907 925 907 911 q 924 964 907 950 q 964 978 942 978 q 1004 960 990 978 q 1018 917 1018 942 q 967 814 1018 857 q 838 739 917 771 l 833 758 m 535 -264 q 490 -249 506 -264 q 474 -206 474 -233 q 490 -162 474 -178 q 535 -147 506 -147 q 578 -162 563 -147 q 593 -206 593 -178 q 578 -249 593 -233 q 535 -264 563 -264 z "},"Ờ":{"ha":1064,"x_min":68,"x_max":1018,"o":"m 508 -17 q 278 44 379 -17 q 123 208 178 104 q 68 433 68 311 q 140 678 68 576 q 326 832 213 781 q 557 883 439 883 q 789 822 689 883 q 942 658 889 760 q 996 443 996 557 q 929 211 996 317 q 751 44 863 106 q 508 -17 639 -17 m 557 13 q 727 58 651 13 q 847 192 803 104 q 890 404 890 281 q 842 636 890 535 q 705 794 793 738 q 499 851 617 851 q 260 753 346 851 q 174 482 174 654 q 222 244 174 351 q 358 74 271 136 q 557 13 446 13 m 833 758 q 910 804 883 779 q 936 856 936 829 q 931 875 936 867 q 924 885 925 883 q 911 903 915 894 q 907 925 907 911 q 924 964 907 950 q 964 978 942 978 q 1004 960 990 978 q 1018 917 1018 942 q 967 814 1018 857 q 838 739 917 771 l 833 758 m 671 943 q 361 1050 514 1013 q 372 1063 351 1051 q 419 1083 392 1074 q 451 1089 446 1092 l 492 1064 q 676 957 629 982 q 679 951 679 956 q 676 944 679 947 q 671 943 674 942 z "},"Ở":{"ha":1064,"x_min":68,"x_max":1018,"o":"m 508 -17 q 278 44 379 -17 q 123 208 178 104 q 68 433 68 311 q 140 678 68 576 q 326 832 213 781 q 557 883 439 883 q 789 822 689 883 q 942 658 889 760 q 996 443 996 557 q 929 211 996 317 q 751 44 863 106 q 508 -17 639 -17 m 557 13 q 727 58 651 13 q 847 192 803 104 q 890 404 890 281 q 842 636 890 535 q 705 794 793 738 q 499 851 617 851 q 260 753 346 851 q 174 482 174 654 q 222 244 174 351 q 358 74 271 136 q 557 13 446 13 m 833 758 q 910 804 883 779 q 936 856 936 829 q 931 875 936 867 q 924 885 925 883 q 911 903 915 894 q 907 925 907 911 q 924 964 907 950 q 964 978 942 978 q 1004 960 990 978 q 1018 917 1018 942 q 967 814 1018 857 q 838 739 917 771 l 833 758 m 525 918 q 519 915 528 915 q 510 918 511 914 q 506 947 506 935 q 513 987 506 968 q 536 1028 521 1006 q 556 1065 550 1050 q 563 1096 563 1079 q 545 1137 563 1122 q 503 1151 528 1151 q 464 1143 486 1151 l 461 1142 q 455 1147 458 1142 q 454 1154 451 1151 q 544 1182 497 1182 q 610 1161 586 1182 q 633 1110 633 1140 q 619 1065 633 1085 q 576 1017 606 1046 q 537 972 550 990 q 524 932 524 953 q 525 918 524 922 z "},"Ỡ":{"ha":1064,"x_min":68,"x_max":1018,"o":"m 508 -17 q 278 44 379 -17 q 123 208 178 104 q 68 433 68 311 q 140 678 68 576 q 326 832 213 781 q 557 883 439 883 q 789 822 689 883 q 942 658 889 760 q 996 443 996 557 q 929 211 996 317 q 751 44 863 106 q 508 -17 639 -17 m 557 13 q 727 58 651 13 q 847 192 803 104 q 890 404 890 281 q 842 636 890 535 q 705 794 793 738 q 499 851 617 851 q 260 753 346 851 q 174 482 174 654 q 222 244 174 351 q 358 74 271 136 q 557 13 446 13 m 833 758 q 910 804 883 779 q 936 856 936 829 q 931 875 936 867 q 924 885 925 883 q 911 903 915 894 q 907 925 907 911 q 924 964 907 950 q 964 978 942 978 q 1004 960 990 978 q 1018 917 1018 942 q 967 814 1018 857 q 838 739 917 771 l 833 758 m 640 1047 q 678 1057 664 1047 q 708 1085 692 1067 l 710 1085 q 717 1081 714 1085 q 718 1075 721 1078 q 658 1007 682 1025 q 608 989 635 989 q 524 1006 579 989 q 488 1015 518 1007 q 426 1024 458 1024 q 394 1017 406 1024 q 373 1000 382 1010 q 358 986 364 990 l 356 986 q 349 990 351 986 q 349 996 346 993 q 403 1054 372 1028 q 467 1081 435 1081 q 536 1067 486 1081 q 640 1047 600 1047 z "},"Ő":{"ha":1064,"x_min":68,"x_max":996,"o":"m 508 -17 q 278 44 379 -17 q 123 208 178 104 q 68 433 68 311 q 140 678 68 576 q 326 832 213 781 q 557 883 439 883 q 789 822 689 883 q 942 658 889 760 q 996 443 996 557 q 929 211 996 317 q 751 44 863 106 q 508 -17 639 -17 m 557 13 q 727 58 651 13 q 847 192 803 104 q 890 404 890 281 q 842 636 890 535 q 705 794 793 738 q 499 851 617 851 q 260 753 346 851 q 174 482 174 654 q 222 244 174 351 q 358 74 271 136 q 557 13 446 13 m 386 939 q 381 945 382 939 q 382 954 379 951 q 507 1086 446 1015 q 538 1085 511 1092 q 585 1067 564 1078 q 596 1053 606 1057 q 389 940 496 1011 l 386 939 m 558 939 q 553 945 554 939 q 554 954 551 951 q 679 1086 608 1006 q 709 1085 683 1092 q 755 1067 735 1078 q 765 1053 775 1057 q 561 940 674 1015 l 558 939 z "},"Ȏ":{"ha":1064,"x_min":68,"x_max":996,"o":"m 508 -17 q 278 44 379 -17 q 123 208 178 104 q 68 433 68 311 q 140 678 68 576 q 326 832 213 781 q 557 883 439 883 q 789 822 689 883 q 942 658 889 760 q 996 443 996 557 q 929 211 996 317 q 751 44 863 106 q 508 -17 639 -17 m 557 13 q 727 58 651 13 q 847 192 803 104 q 890 404 890 281 q 842 636 890 535 q 705 794 793 738 q 499 851 617 851 q 260 753 346 851 q 174 482 174 654 q 222 244 174 351 q 358 74 271 136 q 557 13 446 13 m 407 947 q 398 944 406 943 q 392 949 390 944 q 438 1059 401 1021 q 535 1097 474 1097 q 630 1060 594 1097 q 676 949 665 1022 q 670 944 678 944 q 661 947 663 943 q 615 1012 651 985 q 535 1039 578 1039 q 453 1012 490 1039 q 407 947 417 985 z "},"Ō":{"ha":1064,"x_min":68,"x_max":996,"o":"m 508 -17 q 278 44 379 -17 q 123 208 178 104 q 68 433 68 311 q 140 678 68 576 q 326 832 213 781 q 557 883 439 883 q 789 822 689 883 q 942 658 889 760 q 996 443 996 557 q 929 211 996 317 q 751 44 863 106 q 508 -17 639 -17 m 557 13 q 727 58 651 13 q 847 192 803 104 q 890 404 890 281 q 842 636 890 535 q 705 794 793 738 q 499 851 617 851 q 260 753 346 851 q 174 482 174 654 q 222 244 174 351 q 358 74 271 136 q 557 13 446 13 m 360 1003 q 351 1022 351 1003 q 360 1042 351 1042 l 708 1042 q 717 1022 717 1042 q 708 1003 717 1003 l 360 1003 z "},"Ǫ":{"ha":1064,"x_min":68,"x_max":996,"o":"m 508 -17 q 278 44 379 -17 q 123 208 178 104 q 68 433 68 311 q 140 678 68 576 q 326 832 213 781 q 557 883 439 883 q 789 822 689 883 q 942 658 889 760 q 996 443 996 557 q 929 211 996 317 q 751 44 863 106 q 508 -17 639 -17 m 557 13 q 727 58 651 13 q 847 192 803 104 q 890 404 890 281 q 842 636 890 535 q 705 794 793 738 q 499 851 617 851 q 260 753 346 851 q 174 482 174 654 q 222 244 174 351 q 358 74 271 136 q 557 13 446 13 m 618 1 q 536 -97 561 -50 q 511 -199 511 -144 q 544 -303 511 -265 q 640 -340 578 -340 q 690 -332 669 -340 q 731 -308 711 -324 l 733 -308 q 741 -312 738 -308 q 740 -319 744 -317 q 590 -382 669 -382 q 475 -344 515 -382 q 435 -244 435 -307 q 603 8 435 -121 l 618 1 z "},"Ø":{"ha":1071,"x_min":68,"x_max":996,"o":"m 108 -11 q 94 -2 103 -11 q 90 11 86 7 l 942 875 l 944 876 q 960 868 951 876 q 964 857 968 860 l 111 -10 l 108 -11 m 508 -17 q 278 44 379 -17 q 123 208 178 104 q 68 433 68 311 q 140 678 68 576 q 326 832 213 781 q 557 883 439 883 q 789 822 689 883 q 942 658 889 760 q 996 443 996 557 q 929 211 996 317 q 751 44 863 106 q 508 -17 639 -17 m 557 13 q 727 58 651 13 q 847 192 803 104 q 890 404 890 281 q 842 636 890 535 q 705 794 793 738 q 499 851 617 851 q 260 753 346 851 q 174 482 174 654 q 222 244 174 351 q 358 74 271 136 q 557 13 446 13 z "},"Ǿ":{"ha":1071,"x_min":68,"x_max":996,"o":"m 108 -11 q 94 -2 103 -11 q 90 11 86 7 l 942 875 l 944 876 q 960 868 951 876 q 964 857 968 860 l 111 -10 l 108 -11 m 508 -17 q 278 44 379 -17 q 123 208 178 104 q 68 433 68 311 q 140 678 68 576 q 326 832 213 781 q 557 883 439 883 q 789 822 689 883 q 942 658 889 760 q 996 443 996 557 q 929 211 996 317 q 751 44 863 106 q 508 -17 639 -17 m 557 13 q 727 58 651 13 q 847 192 803 104 q 890 404 890 281 q 842 636 890 535 q 705 794 793 738 q 499 851 617 851 q 260 753 346 851 q 174 482 174 654 q 222 244 174 351 q 358 74 271 136 q 557 13 446 13 m 401 942 q 394 948 396 942 q 397 957 393 954 q 549 1043 443 982 q 592 1071 574 1060 q 624 1089 611 1082 q 656 1083 629 1092 q 703 1063 683 1074 q 713 1050 722 1051 q 555 1003 626 1029 q 404 943 483 978 l 401 942 z "},"Õ":{"ha":1064,"x_min":68,"x_max":996,"o":"m 508 -17 q 278 44 379 -17 q 123 208 178 104 q 68 433 68 311 q 140 678 68 576 q 326 832 213 781 q 557 883 439 883 q 789 822 689 883 q 942 658 889 760 q 996 443 996 557 q 929 211 996 317 q 751 44 863 106 q 508 -17 639 -17 m 557 13 q 727 58 651 13 q 847 192 803 104 q 890 404 890 281 q 842 636 890 535 q 705 794 793 738 q 499 851 617 851 q 260 753 346 851 q 174 482 174 654 q 222 244 174 351 q 358 74 271 136 q 557 13 446 13 m 640 1047 q 678 1057 664 1047 q 710 1085 693 1067 l 711 1085 q 719 1081 715 1085 q 719 1075 722 1078 q 660 1007 683 1025 q 610 989 636 989 q 525 1006 581 989 q 490 1015 519 1007 q 428 1024 460 1024 q 394 1016 406 1024 q 373 999 382 1008 q 360 986 364 990 l 357 986 q 350 990 353 986 q 350 996 347 993 q 467 1081 411 1081 q 510 1074 486 1081 q 539 1067 535 1068 q 640 1047 600 1047 z "},"Œ":{"ha":1269,"x_min":68,"x_max":1200,"o":"m 553 -6 q 302 50 413 -6 q 130 203 192 106 q 68 418 68 300 q 133 656 68 553 q 306 815 197 758 q 546 871 415 871 q 640 869 606 871 l 750 868 l 1142 868 q 1156 856 1156 868 l 1158 685 q 1150 680 1158 681 q 1142 683 1142 679 q 1097 794 1139 749 q 993 839 1056 839 l 904 839 q 833 832 856 839 q 801 808 810 825 q 793 754 793 790 l 793 118 q 801 62 793 81 q 833 36 810 43 q 901 29 856 29 l 1017 29 q 1124 79 1076 29 q 1185 206 1171 129 q 1192 209 1185 210 q 1200 204 1200 208 q 1188 21 1188 94 q 1183 5 1188 10 q 1167 0 1179 0 l 753 0 q 656 -3 722 0 q 553 -6 586 -6 m 1089 324 q 1059 411 1089 385 q 958 438 1029 438 l 750 438 l 750 467 l 963 467 q 1059 489 1031 467 q 1088 564 1088 511 q 1095 567 1088 567 q 1103 564 1103 567 l 1101 451 q 1103 390 1101 411 l 1104 324 q 1097 321 1104 321 q 1089 324 1089 321 m 551 15 q 643 22 611 15 q 689 51 675 29 q 703 114 703 72 l 703 742 q 691 805 703 782 q 649 839 679 828 q 560 850 618 850 q 360 803 447 850 q 223 666 272 757 q 174 449 174 575 q 220 228 174 326 q 352 72 267 129 q 551 15 438 15 z "},"P":{"ha":754,"x_min":56,"x_max":696,"o":"m 267 118 q 278 53 267 74 q 324 25 290 33 q 432 17 358 17 q 436 8 436 17 q 432 0 436 0 q 343 1 375 0 l 222 3 l 129 1 q 58 0 103 0 q 56 8 56 0 q 58 17 56 17 q 135 24 111 17 q 168 51 160 31 q 176 113 176 71 l 176 756 q 168 817 176 797 q 135 844 160 836 q 58 851 111 851 q 56 860 56 851 q 58 868 56 868 l 128 867 q 221 864 186 864 q 299 868 256 864 q 351 870 315 868 q 414 872 388 872 q 619 815 542 872 q 696 642 696 758 q 651 488 696 550 q 535 394 606 425 q 389 364 464 364 q 322 371 349 364 q 318 378 318 371 q 320 386 318 382 q 325 389 322 390 q 375 383 347 383 q 530 443 467 383 q 593 615 593 503 q 533 788 593 725 q 381 851 474 851 q 308 846 331 851 q 276 820 286 840 q 267 753 267 800 l 267 118 z "},"Þ":{"ha":747,"x_min":57,"x_max":696,"o":"m 176 756 q 167 817 176 797 q 135 844 158 836 q 60 851 111 851 q 57 860 57 851 q 60 868 57 868 l 129 867 q 221 864 185 864 q 342 867 269 864 l 431 868 q 435 860 435 868 q 431 851 435 851 q 323 843 357 851 q 277 814 289 835 q 265 749 265 793 l 265 118 q 277 53 265 74 q 323 25 289 33 q 431 17 357 17 q 435 8 435 17 q 431 0 435 0 q 342 1 374 0 l 221 3 l 129 1 q 60 0 104 0 q 57 8 57 0 q 60 17 57 17 q 135 24 111 17 q 167 51 158 31 q 176 113 176 71 l 176 756 m 208 671 q 396 693 288 693 q 614 638 532 693 q 696 457 696 582 q 650 306 696 367 q 534 215 604 244 q 392 185 464 185 q 324 192 358 185 q 319 199 319 192 q 322 207 319 203 q 326 210 324 211 q 376 204 360 204 q 531 265 468 204 q 593 439 593 325 q 529 612 593 550 q 361 674 465 674 q 219 651 293 674 l 208 671 z "},"Q":{"ha":1064,"x_min":68,"x_max":1043,"o":"m 643 10 q 739 -112 681 -58 q 863 -196 797 -165 q 985 -226 928 -226 q 1035 -224 1010 -226 l 1036 -224 q 1041 -230 1039 -224 q 1040 -237 1043 -236 q 922 -254 969 -254 q 712 -186 822 -254 q 524 3 601 -118 l 643 10 m 508 -17 q 278 44 379 -17 q 123 208 178 104 q 68 433 68 311 q 140 678 68 576 q 326 832 213 781 q 557 883 439 883 q 789 822 689 883 q 942 658 889 760 q 996 443 996 557 q 929 211 996 317 q 751 44 863 106 q 508 -17 639 -17 m 557 13 q 727 58 651 13 q 847 192 803 104 q 890 404 890 281 q 842 636 890 535 q 705 794 793 738 q 499 851 617 851 q 260 753 346 851 q 174 482 174 654 q 222 244 174 351 q 358 74 271 136 q 557 13 446 13 z "},"R":{"ha":935,"x_min":57,"x_max":951,"o":"m 769 0 q 637 123 735 0 q 401 461 539 246 l 479 486 q 681 206 600 307 q 825 61 763 106 q 947 17 888 17 q 951 8 951 17 q 947 0 951 0 l 769 0 m 392 872 q 565 826 504 872 q 626 699 626 781 q 586 571 626 631 q 478 476 546 511 q 333 440 411 440 q 271 443 307 440 l 271 113 q 279 50 271 69 q 312 24 288 31 q 389 17 336 17 q 393 8 393 17 q 389 0 393 0 q 321 1 346 0 l 225 3 l 131 1 q 60 0 106 0 q 57 8 57 0 q 60 17 57 17 q 138 24 113 17 q 172 51 163 32 q 182 113 182 71 l 182 756 q 173 817 182 797 q 140 844 164 836 q 63 851 115 851 q 58 860 58 851 q 63 868 58 868 l 131 867 q 225 864 189 864 q 272 865 250 864 q 311 868 294 867 q 392 872 356 872 m 532 650 q 363 851 532 851 q 306 845 325 851 q 279 819 288 839 q 271 753 271 799 l 271 478 q 353 472 304 472 q 490 513 449 472 q 532 650 532 554 z "},"Ŕ":{"ha":935,"x_min":57,"x_max":951,"o":"m 769 0 q 637 123 735 0 q 401 461 539 246 l 479 486 q 681 206 600 307 q 825 61 763 106 q 947 17 888 17 q 951 8 951 17 q 947 0 951 0 l 769 0 m 392 872 q 565 826 504 872 q 626 699 626 781 q 586 571 626 631 q 478 476 546 511 q 333 440 411 440 q 271 443 307 440 l 271 113 q 279 50 271 69 q 312 24 288 31 q 389 17 336 17 q 393 8 393 17 q 389 0 393 0 q 321 1 346 0 l 225 3 l 131 1 q 60 0 106 0 q 57 8 57 0 q 60 17 57 17 q 138 24 113 17 q 172 51 163 32 q 182 113 182 71 l 182 756 q 173 817 182 797 q 140 844 164 836 q 63 851 115 851 q 58 860 58 851 q 63 868 58 868 l 131 867 q 225 864 189 864 q 272 865 250 864 q 311 868 294 867 q 392 872 356 872 m 532 650 q 363 851 532 851 q 306 845 325 851 q 279 819 288 839 q 271 753 271 799 l 271 478 q 353 472 304 472 q 490 513 449 472 q 532 650 532 554 m 219 942 q 213 948 214 942 q 215 957 211 954 q 367 1043 261 982 q 410 1071 392 1060 q 442 1089 429 1082 q 474 1083 447 1092 q 521 1063 501 1074 q 531 1050 540 1051 q 373 1003 444 1029 q 222 943 301 978 l 219 942 z "},"Ř":{"ha":935,"x_min":57,"x_max":951,"o":"m 769 0 q 637 123 735 0 q 401 461 539 246 l 479 486 q 681 206 600 307 q 825 61 763 106 q 947 17 888 17 q 951 8 951 17 q 947 0 951 0 l 769 0 m 392 872 q 565 826 504 872 q 626 699 626 781 q 586 571 626 631 q 478 476 546 511 q 333 440 411 440 q 271 443 307 440 l 271 113 q 279 50 271 69 q 312 24 288 31 q 389 17 336 17 q 393 8 393 17 q 389 0 393 0 q 321 1 346 0 l 225 3 l 131 1 q 60 0 106 0 q 57 8 57 0 q 60 17 57 17 q 138 24 113 17 q 172 51 163 32 q 182 113 182 71 l 182 756 q 173 817 182 797 q 140 844 164 836 q 63 851 115 851 q 58 860 58 851 q 63 868 58 868 l 131 867 q 225 864 189 864 q 272 865 250 864 q 311 868 294 867 q 392 872 356 872 m 532 650 q 363 851 532 851 q 306 845 325 851 q 279 819 288 839 q 271 753 271 799 l 271 478 q 353 472 304 472 q 490 513 449 472 q 532 650 532 554 m 197 1089 q 197 1090 197 1089 q 196 1090 196 1090 q 199 1097 196 1093 q 206 1099 203 1100 l 357 1018 l 507 1099 l 508 1099 q 515 1094 513 1099 q 514 1089 518 1090 l 372 954 q 357 949 367 949 q 340 954 346 949 l 197 1089 z "},"Ŗ":{"ha":935,"x_min":57,"x_max":951,"o":"m 769 0 q 637 123 735 0 q 401 461 539 246 l 479 486 q 681 206 600 307 q 825 61 763 106 q 947 17 888 17 q 951 8 951 17 q 947 0 951 0 l 769 0 m 392 872 q 565 826 504 872 q 626 699 626 781 q 586 571 626 631 q 478 476 546 511 q 333 440 411 440 q 271 443 307 440 l 271 113 q 279 50 271 69 q 312 24 288 31 q 389 17 336 17 q 393 8 393 17 q 389 0 393 0 q 321 1 346 0 l 225 3 l 131 1 q 60 0 106 0 q 57 8 57 0 q 60 17 57 17 q 138 24 113 17 q 172 51 163 32 q 182 113 182 71 l 182 756 q 173 817 182 797 q 140 844 164 836 q 63 851 115 851 q 58 860 58 851 q 63 868 58 868 l 131 867 q 225 864 189 864 q 272 865 250 864 q 311 868 294 867 q 392 872 356 872 m 532 650 q 363 851 532 851 q 306 845 325 851 q 279 819 288 839 q 271 753 271 799 l 271 478 q 353 472 304 472 q 490 513 449 472 q 532 650 532 554 m 458 -382 q 454 -383 457 -383 q 447 -378 450 -383 q 447 -371 444 -374 q 508 -247 508 -318 q 501 -207 508 -219 q 479 -187 494 -194 l 504 -179 q 494 -215 507 -203 q 458 -228 482 -228 q 419 -212 433 -228 q 404 -174 404 -197 q 464 -118 404 -118 q 523 -144 503 -118 q 543 -219 543 -171 q 522 -305 543 -265 q 458 -382 500 -344 z "},"Ȑ":{"ha":935,"x_min":57,"x_max":951,"o":"m 769 0 q 637 123 735 0 q 401 461 539 246 l 479 486 q 681 206 600 307 q 825 61 763 106 q 947 17 888 17 q 951 8 951 17 q 947 0 951 0 l 769 0 m 392 872 q 565 826 504 872 q 626 699 626 781 q 586 571 626 631 q 478 476 546 511 q 333 440 411 440 q 271 443 307 440 l 271 113 q 279 50 271 69 q 312 24 288 31 q 389 17 336 17 q 393 8 393 17 q 389 0 393 0 q 321 1 346 0 l 225 3 l 131 1 q 60 0 106 0 q 57 8 57 0 q 60 17 57 17 q 138 24 113 17 q 172 51 163 32 q 182 113 182 71 l 182 756 q 173 817 182 797 q 140 844 164 836 q 63 851 115 851 q 58 860 58 851 q 63 868 58 868 l 131 867 q 225 864 189 864 q 272 865 250 864 q 311 868 294 867 q 392 872 356 872 m 532 650 q 363 851 532 851 q 306 845 325 851 q 279 819 288 839 q 271 753 271 799 l 271 478 q 353 472 304 472 q 490 513 449 472 q 532 650 532 554 m 500 942 q 395 1006 439 981 q 296 1053 351 1031 q 307 1067 286 1057 q 355 1085 328 1078 q 386 1086 382 1092 q 511 954 444 1017 q 513 950 513 953 q 508 942 513 946 q 500 942 504 939 m 328 942 q 222 1008 263 983 q 128 1053 181 1032 q 138 1067 118 1057 q 183 1085 157 1078 q 214 1086 210 1092 q 339 954 272 1017 q 340 950 340 953 q 336 942 340 946 q 328 942 332 939 z "},"Ṛ":{"ha":935,"x_min":57,"x_max":951,"o":"m 769 0 q 637 123 735 0 q 401 461 539 246 l 479 486 q 681 206 600 307 q 825 61 763 106 q 947 17 888 17 q 951 8 951 17 q 947 0 951 0 l 769 0 m 392 872 q 565 826 504 872 q 626 699 626 781 q 586 571 626 631 q 478 476 546 511 q 333 440 411 440 q 271 443 307 440 l 271 113 q 279 50 271 69 q 312 24 288 31 q 389 17 336 17 q 393 8 393 17 q 389 0 393 0 q 321 1 346 0 l 225 3 l 131 1 q 60 0 106 0 q 57 8 57 0 q 60 17 57 17 q 138 24 113 17 q 172 51 163 32 q 182 113 182 71 l 182 756 q 173 817 182 797 q 140 844 164 836 q 63 851 115 851 q 58 860 58 851 q 63 868 58 868 l 131 867 q 225 864 189 864 q 272 865 250 864 q 311 868 294 867 q 392 872 356 872 m 532 650 q 363 851 532 851 q 306 845 325 851 q 279 819 288 839 q 271 753 271 799 l 271 478 q 353 472 304 472 q 490 513 449 472 q 532 650 532 554 m 475 -264 q 430 -249 446 -264 q 414 -206 414 -233 q 430 -162 414 -178 q 475 -147 446 -147 q 518 -162 503 -147 q 533 -206 533 -178 q 518 -249 533 -233 q 475 -264 503 -264 z "},"Ṝ":{"ha":935,"x_min":57,"x_max":951,"o":"m 769 0 q 637 123 735 0 q 401 461 539 246 l 479 486 q 681 206 600 307 q 825 61 763 106 q 947 17 888 17 q 951 8 951 17 q 947 0 951 0 l 769 0 m 392 872 q 565 826 504 872 q 626 699 626 781 q 586 571 626 631 q 478 476 546 511 q 333 440 411 440 q 271 443 307 440 l 271 113 q 279 50 271 69 q 312 24 288 31 q 389 17 336 17 q 393 8 393 17 q 389 0 393 0 q 321 1 346 0 l 225 3 l 131 1 q 60 0 106 0 q 57 8 57 0 q 60 17 57 17 q 138 24 113 17 q 172 51 163 32 q 182 113 182 71 l 182 756 q 173 817 182 797 q 140 844 164 836 q 63 851 115 851 q 58 860 58 851 q 63 868 58 868 l 131 867 q 225 864 189 864 q 272 865 250 864 q 311 868 294 867 q 392 872 356 872 m 532 650 q 363 851 532 851 q 306 845 325 851 q 279 819 288 839 q 271 753 271 799 l 271 478 q 353 472 304 472 q 490 513 449 472 q 532 650 532 554 m 475 -264 q 430 -249 446 -264 q 414 -206 414 -233 q 430 -162 414 -178 q 475 -147 446 -147 q 518 -162 503 -147 q 533 -206 533 -178 q 518 -249 533 -233 q 475 -264 503 -264 m 182 1003 q 174 1022 174 1003 q 182 1042 174 1042 l 531 1042 q 539 1022 539 1042 q 531 1003 539 1003 l 182 1003 z "},"Ȓ":{"ha":935,"x_min":57,"x_max":951,"o":"m 769 0 q 637 123 735 0 q 401 461 539 246 l 479 486 q 681 206 600 307 q 825 61 763 106 q 947 17 888 17 q 951 8 951 17 q 947 0 951 0 l 769 0 m 392 872 q 565 826 504 872 q 626 699 626 781 q 586 571 626 631 q 478 476 546 511 q 333 440 411 440 q 271 443 307 440 l 271 113 q 279 50 271 69 q 312 24 288 31 q 389 17 336 17 q 393 8 393 17 q 389 0 393 0 q 321 1 346 0 l 225 3 l 131 1 q 60 0 106 0 q 57 8 57 0 q 60 17 57 17 q 138 24 113 17 q 172 51 163 32 q 182 113 182 71 l 182 756 q 173 817 182 797 q 140 844 164 836 q 63 851 115 851 q 58 860 58 851 q 63 868 58 868 l 131 867 q 225 864 189 864 q 272 865 250 864 q 311 868 294 867 q 392 872 356 872 m 532 650 q 363 851 532 851 q 306 845 325 851 q 279 819 288 839 q 271 753 271 799 l 271 478 q 353 472 304 472 q 490 513 449 472 q 532 650 532 554 m 229 947 q 220 944 228 943 q 214 949 213 944 q 260 1059 224 1021 q 357 1097 297 1097 q 452 1060 417 1097 q 499 949 488 1022 q 492 944 500 944 q 483 947 485 943 q 437 1012 474 985 q 357 1039 400 1039 q 276 1012 313 1039 q 229 947 239 985 z "},"Ṟ":{"ha":935,"x_min":57,"x_max":951,"o":"m 769 0 q 637 123 735 0 q 401 461 539 246 l 479 486 q 681 206 600 307 q 825 61 763 106 q 947 17 888 17 q 951 8 951 17 q 947 0 951 0 l 769 0 m 392 872 q 565 826 504 872 q 626 699 626 781 q 586 571 626 631 q 478 476 546 511 q 333 440 411 440 q 271 443 307 440 l 271 113 q 279 50 271 69 q 312 24 288 31 q 389 17 336 17 q 393 8 393 17 q 389 0 393 0 q 321 1 346 0 l 225 3 l 131 1 q 60 0 106 0 q 57 8 57 0 q 60 17 57 17 q 138 24 113 17 q 172 51 163 32 q 182 113 182 71 l 182 756 q 173 817 182 797 q 140 844 164 836 q 63 851 115 851 q 58 860 58 851 q 63 868 58 868 l 131 867 q 225 864 189 864 q 272 865 250 864 q 311 868 294 867 q 392 872 356 872 m 532 650 q 363 851 532 851 q 306 845 325 851 q 279 819 288 839 q 271 753 271 799 l 271 478 q 353 472 304 472 q 490 513 449 472 q 532 650 532 554 m 299 -157 q 290 -137 290 -157 q 299 -118 290 -118 l 647 -118 q 656 -137 656 -118 q 647 -157 656 -157 l 299 -157 z "},"S":{"ha":682,"x_min":93,"x_max":607,"o":"m 201 706 q 228 611 201 651 q 292 544 254 571 q 397 475 329 517 q 510 403 469 432 q 578 328 550 374 q 607 221 607 283 q 574 100 607 154 q 476 15 540 46 q 321 -17 411 -17 q 125 32 214 -17 q 116 42 118 36 q 113 58 114 47 l 94 247 q 101 254 93 253 q 110 250 108 256 q 192 78 131 151 q 353 6 253 6 q 470 44 422 6 q 518 165 518 82 q 490 274 518 228 q 423 349 463 319 q 315 419 383 379 q 210 489 249 460 q 146 563 172 518 q 119 667 119 607 q 156 785 119 736 q 252 859 193 835 q 378 883 311 883 q 540 850 460 883 q 561 826 561 843 l 571 668 q 563 661 571 661 q 554 667 556 661 q 496 801 544 739 q 356 863 447 863 q 240 817 278 863 q 201 706 201 772 z "},"Ś":{"ha":682,"x_min":93,"x_max":607,"o":"m 201 706 q 228 611 201 651 q 292 544 254 571 q 397 475 329 517 q 510 403 469 432 q 578 328 550 374 q 607 221 607 283 q 574 100 607 154 q 476 15 540 46 q 321 -17 411 -17 q 125 32 214 -17 q 116 42 118 36 q 113 58 114 47 l 94 247 q 101 254 93 253 q 110 250 108 256 q 192 78 131 151 q 353 6 253 6 q 470 44 422 6 q 518 165 518 82 q 490 274 518 228 q 423 349 463 319 q 315 419 383 379 q 210 489 249 460 q 146 563 172 518 q 119 667 119 607 q 156 785 119 736 q 252 859 193 835 q 378 883 311 883 q 540 850 460 883 q 561 826 561 843 l 571 668 q 563 661 571 661 q 554 667 556 661 q 496 801 544 739 q 356 863 447 863 q 240 817 278 863 q 201 706 201 772 m 217 942 q 210 948 211 942 q 213 957 208 954 q 364 1043 258 982 q 408 1071 389 1060 q 439 1089 426 1082 q 472 1083 444 1092 q 518 1063 499 1074 q 528 1050 538 1051 q 370 1003 442 1029 q 219 943 299 978 l 217 942 z "},"Ꞌ":{"ha":343,"x_min":108,"x_max":235,"o":"m 110 1003 q 128 1012 108 1008 q 172 1015 149 1015 q 215 1012 196 1015 q 233 1003 235 1008 q 198 735 210 882 q 178 404 186 588 q 169 400 178 400 q 160 404 160 400 q 142 738 153 593 q 110 1003 132 882 z "},"Š":{"ha":682,"x_min":93,"x_max":607,"o":"m 201 706 q 228 611 201 651 q 292 544 254 571 q 397 475 329 517 q 510 403 469 432 q 578 328 550 374 q 607 221 607 283 q 574 100 607 154 q 476 15 540 46 q 321 -17 411 -17 q 125 32 214 -17 q 116 42 118 36 q 113 58 114 47 l 94 247 q 101 254 93 253 q 110 250 108 256 q 192 78 131 151 q 353 6 253 6 q 470 44 422 6 q 518 165 518 82 q 490 274 518 228 q 423 349 463 319 q 315 419 383 379 q 210 489 249 460 q 146 563 172 518 q 119 667 119 607 q 156 785 119 736 q 252 859 193 835 q 378 883 311 883 q 540 850 460 883 q 561 826 561 843 l 571 668 q 563 661 571 661 q 554 667 556 661 q 496 801 544 739 q 356 863 447 863 q 240 817 278 863 q 201 706 201 772 m 194 1089 q 194 1090 194 1089 q 193 1090 193 1090 q 197 1097 193 1093 q 203 1099 200 1100 l 354 1018 l 504 1099 l 506 1099 q 513 1094 510 1099 q 511 1089 515 1090 l 369 954 q 354 949 364 949 q 338 954 343 949 l 194 1089 z "},"Ş":{"ha":682,"x_min":93,"x_max":607,"o":"m 201 706 q 228 611 201 651 q 292 544 254 571 q 397 475 329 517 q 510 403 469 432 q 578 328 550 374 q 607 221 607 283 q 574 100 607 154 q 476 15 540 46 q 321 -17 411 -17 q 125 32 214 -17 q 116 42 118 36 q 113 58 114 47 l 94 247 q 101 254 93 253 q 110 250 108 256 q 192 78 131 151 q 353 6 253 6 q 470 44 422 6 q 518 165 518 82 q 490 274 518 228 q 423 349 463 319 q 315 419 383 379 q 210 489 249 460 q 146 563 172 518 q 119 667 119 607 q 156 785 119 736 q 252 859 193 835 q 378 883 311 883 q 540 850 460 883 q 561 826 561 843 l 571 668 q 563 661 571 661 q 554 667 556 661 q 496 801 544 739 q 356 863 447 863 q 240 817 278 863 q 201 706 201 772 m 367 -3 q 349 -81 349 -57 q 360 -110 349 -100 q 408 -142 371 -119 q 463 -186 443 -161 q 483 -249 483 -211 q 447 -341 483 -300 q 340 -382 411 -382 q 276 -368 301 -382 q 250 -329 250 -354 q 263 -299 250 -311 q 293 -287 275 -287 q 317 -295 308 -287 q 333 -318 325 -303 q 352 -345 342 -336 q 383 -354 363 -354 q 431 -301 431 -354 q 405 -237 431 -265 q 313 -172 379 -208 q 297 -164 303 -168 q 292 -154 292 -160 q 300 -131 292 -147 q 335 -42 307 -112 q 342 -21 338 -31 q 349 -1 346 -11 l 367 -3 z "},"Ŝ":{"ha":682,"x_min":93,"x_max":607,"o":"m 201 706 q 228 611 201 651 q 292 544 254 571 q 397 475 329 517 q 510 403 469 432 q 578 328 550 374 q 607 221 607 283 q 574 100 607 154 q 476 15 540 46 q 321 -17 411 -17 q 125 32 214 -17 q 116 42 118 36 q 113 58 114 47 l 94 247 q 101 254 93 253 q 110 250 108 256 q 192 78 131 151 q 353 6 253 6 q 470 44 422 6 q 518 165 518 82 q 490 274 518 228 q 423 349 463 319 q 315 419 383 379 q 210 489 249 460 q 146 563 172 518 q 119 667 119 607 q 156 785 119 736 q 252 859 193 835 q 378 883 311 883 q 540 850 460 883 q 561 826 561 843 l 571 668 q 563 661 571 661 q 554 667 556 661 q 496 801 544 739 q 356 863 447 863 q 240 817 278 863 q 201 706 201 772 m 339 1097 q 356 1104 346 1104 q 371 1097 364 1104 l 513 961 q 514 958 514 961 q 510 953 514 956 q 506 951 507 950 l 356 1032 l 204 951 q 197 955 201 950 q 196 961 193 960 l 339 1097 z "},"Ș":{"ha":682,"x_min":93,"x_max":607,"o":"m 201 706 q 228 611 201 651 q 292 544 254 571 q 397 475 329 517 q 510 403 469 432 q 578 328 550 374 q 607 221 607 283 q 574 100 607 154 q 476 15 540 46 q 321 -17 411 -17 q 125 32 214 -17 q 116 42 118 36 q 113 58 114 47 l 94 247 q 101 254 93 253 q 110 250 108 256 q 192 78 131 151 q 353 6 253 6 q 470 44 422 6 q 518 165 518 82 q 490 274 518 228 q 423 349 463 319 q 315 419 383 379 q 210 489 249 460 q 146 563 172 518 q 119 667 119 607 q 156 785 119 736 q 252 859 193 835 q 378 883 311 883 q 540 850 460 883 q 561 826 561 843 l 571 668 q 563 661 571 661 q 554 667 556 661 q 496 801 544 739 q 356 863 447 863 q 240 817 278 863 q 201 706 201 772 m 353 -382 q 349 -383 351 -383 q 342 -378 344 -383 q 343 -371 339 -374 q 404 -247 404 -317 q 397 -207 404 -219 q 374 -187 389 -194 l 399 -179 q 390 -215 403 -203 q 353 -228 376 -228 q 313 -212 328 -228 q 299 -174 299 -197 q 360 -118 299 -118 q 417 -144 397 -118 q 438 -219 438 -171 q 416 -306 438 -267 q 353 -382 394 -344 z "},"Ṡ":{"ha":682,"x_min":93,"x_max":607,"o":"m 201 706 q 228 611 201 651 q 292 544 254 571 q 397 475 329 517 q 510 403 469 432 q 578 328 550 374 q 607 221 607 283 q 574 100 607 154 q 476 15 540 46 q 321 -17 411 -17 q 125 32 214 -17 q 116 42 118 36 q 113 58 114 47 l 94 247 q 101 254 93 253 q 110 250 108 256 q 192 78 131 151 q 353 6 253 6 q 470 44 422 6 q 518 165 518 82 q 490 274 518 228 q 423 349 463 319 q 315 419 383 379 q 210 489 249 460 q 146 563 172 518 q 119 667 119 607 q 156 785 119 736 q 252 859 193 835 q 378 883 311 883 q 540 850 460 883 q 561 826 561 843 l 571 668 q 563 661 571 661 q 554 667 556 661 q 496 801 544 739 q 356 863 447 863 q 240 817 278 863 q 201 706 201 772 m 354 990 q 310 1006 326 990 q 293 1050 293 1022 q 310 1092 293 1076 q 354 1108 326 1108 q 397 1093 382 1108 q 413 1050 413 1078 q 397 1006 413 1022 q 354 990 382 990 z "},"Ṣ":{"ha":682,"x_min":93,"x_max":607,"o":"m 201 706 q 228 611 201 651 q 292 544 254 571 q 397 475 329 517 q 510 403 469 432 q 578 328 550 374 q 607 221 607 283 q 574 100 607 154 q 476 15 540 46 q 321 -17 411 -17 q 125 32 214 -17 q 116 42 118 36 q 113 58 114 47 l 94 247 q 101 254 93 253 q 110 250 108 256 q 192 78 131 151 q 353 6 253 6 q 470 44 422 6 q 518 165 518 82 q 490 274 518 228 q 423 349 463 319 q 315 419 383 379 q 210 489 249 460 q 146 563 172 518 q 119 667 119 607 q 156 785 119 736 q 252 859 193 835 q 378 883 311 883 q 540 850 460 883 q 561 826 561 843 l 571 668 q 563 661 571 661 q 554 667 556 661 q 496 801 544 739 q 356 863 447 863 q 240 817 278 863 q 201 706 201 772 m 369 -264 q 324 -249 340 -264 q 308 -206 308 -233 q 324 -162 308 -178 q 369 -147 340 -147 q 413 -162 397 -147 q 428 -206 428 -178 q 413 -249 428 -233 q 369 -264 397 -264 z "},"ẞ":{"ha":932,"x_min":29,"x_max":869,"o":"m 594 -17 q 464 17 517 -17 q 453 26 456 21 q 450 43 451 32 l 436 186 q 443 193 436 192 q 451 189 450 194 q 494 101 461 140 q 571 38 526 61 q 658 15 615 15 q 764 67 722 15 q 806 200 806 118 q 614 443 806 358 q 605 452 606 447 q 607 464 604 457 l 757 774 q 619 817 697 799 q 476 835 540 835 q 299 765 357 835 q 242 553 242 696 l 242 113 q 249 50 242 69 q 281 24 257 31 q 357 17 304 17 q 361 8 361 17 q 357 0 361 0 l 193 1 l 33 0 q 29 8 29 0 q 33 17 29 17 q 108 24 83 17 q 142 51 132 32 q 151 113 151 71 l 151 513 q 198 683 151 599 q 342 824 244 768 q 586 881 440 881 q 719 874 646 881 q 797 868 792 868 q 821 877 814 868 q 831 888 828 886 q 839 885 835 888 q 842 881 843 882 l 669 521 q 869 265 869 436 q 841 134 869 199 q 751 26 813 69 q 594 -17 689 -17 z "},"T":{"ha":881,"x_min":53,"x_max":831,"o":"m 261 843 q 131 799 175 843 q 68 647 88 754 q 60 644 68 644 q 53 647 53 644 q 65 778 58 697 q 72 899 72 858 q 80 906 72 906 q 88 899 88 906 q 163 868 88 868 q 442 864 282 864 q 615 867 524 864 l 710 868 q 784 875 760 868 q 815 903 808 882 q 824 908 817 908 q 831 903 831 908 q 822 781 826 863 q 818 647 818 699 q 810 644 818 644 q 801 647 801 644 q 757 799 797 756 q 624 843 717 843 q 535 838 561 843 q 499 814 508 832 q 489 753 489 796 l 489 113 q 499 50 489 69 q 536 24 508 31 q 624 17 564 17 q 628 8 628 17 q 624 0 628 0 q 550 1 578 0 l 442 3 l 338 1 q 261 0 310 0 q 258 8 258 0 q 261 17 258 17 q 349 24 321 17 q 387 51 376 31 q 397 113 397 71 l 397 756 q 388 816 397 799 q 351 838 378 833 q 261 843 325 843 z "},"Ŧ":{"ha":878,"x_min":53,"x_max":831,"o":"m 260 433 q 254 449 254 433 q 260 463 254 463 l 628 463 q 633 458 631 463 q 635 449 635 454 q 628 433 635 433 l 260 433 m 261 843 q 131 799 175 843 q 68 647 88 754 q 60 644 68 644 q 53 647 53 644 q 65 778 58 697 q 72 899 72 858 q 80 906 72 906 q 88 899 88 906 q 163 868 88 868 q 442 864 282 864 q 615 867 524 864 l 710 868 q 784 875 760 868 q 815 903 808 882 q 824 908 817 908 q 831 903 831 908 q 822 781 826 863 q 818 647 818 699 q 810 644 818 644 q 801 647 801 644 q 757 799 797 756 q 624 843 717 843 q 535 838 561 843 q 499 814 508 832 q 489 753 489 796 l 489 113 q 499 50 489 69 q 536 24 508 31 q 624 17 564 17 q 628 8 628 17 q 624 0 628 0 q 550 1 578 0 l 442 3 l 338 1 q 261 0 310 0 q 258 8 258 0 q 261 17 258 17 q 349 24 321 17 q 387 51 376 31 q 397 113 397 71 l 397 756 q 388 816 397 799 q 351 838 378 833 q 261 843 325 843 z "},"Ť":{"ha":881,"x_min":53,"x_max":831,"o":"m 261 843 q 131 799 175 843 q 68 647 88 754 q 60 644 68 644 q 53 647 53 644 q 65 778 58 697 q 72 899 72 858 q 80 906 72 906 q 88 899 88 906 q 163 868 88 868 q 442 864 282 864 q 615 867 524 864 l 710 868 q 784 875 760 868 q 815 903 808 882 q 824 908 817 908 q 831 903 831 908 q 822 781 826 863 q 818 647 818 699 q 810 644 818 644 q 801 647 801 644 q 757 799 797 756 q 624 843 717 843 q 535 838 561 843 q 499 814 508 832 q 489 753 489 796 l 489 113 q 499 50 489 69 q 536 24 508 31 q 624 17 564 17 q 628 8 628 17 q 624 0 628 0 q 550 1 578 0 l 442 3 l 338 1 q 261 0 310 0 q 258 8 258 0 q 261 17 258 17 q 349 24 321 17 q 387 51 376 31 q 397 113 397 71 l 397 756 q 388 816 397 799 q 351 838 378 833 q 261 843 325 843 m 281 1089 q 280 1090 281 1089 q 279 1090 279 1090 q 283 1097 279 1093 q 289 1099 286 1100 l 440 1018 l 590 1099 l 592 1099 q 599 1094 596 1099 q 597 1089 601 1090 l 456 954 q 440 949 450 949 q 424 954 429 949 l 281 1089 z "},"Ţ":{"ha":881,"x_min":53,"x_max":831,"o":"m 261 843 q 131 799 175 843 q 68 647 88 754 q 60 644 68 644 q 53 647 53 644 q 65 778 58 697 q 72 899 72 858 q 80 906 72 906 q 88 899 88 906 q 163 868 88 868 q 442 864 282 864 q 615 867 524 864 l 710 868 q 784 875 760 868 q 815 903 808 882 q 824 908 817 908 q 831 903 831 908 q 822 781 826 863 q 818 647 818 699 q 810 644 818 644 q 801 647 801 644 q 757 799 797 756 q 624 843 717 843 q 535 838 561 843 q 499 814 508 832 q 489 753 489 796 l 489 113 q 499 50 489 69 q 536 24 508 31 q 624 17 564 17 q 628 8 628 17 q 624 0 628 0 q 550 1 578 0 l 442 3 l 338 1 q 261 0 310 0 q 258 8 258 0 q 261 17 258 17 q 349 24 321 17 q 387 51 376 31 q 397 113 397 71 l 397 756 q 388 816 397 799 q 351 838 378 833 q 261 843 325 843 m 456 25 q 438 -35 444 -8 q 431 -75 431 -61 q 443 -110 431 -97 q 488 -142 456 -124 q 542 -186 522 -161 q 563 -249 563 -211 q 526 -341 563 -300 q 419 -382 490 -382 q 355 -368 381 -382 q 329 -329 329 -354 q 342 -299 329 -311 q 372 -287 354 -287 q 396 -295 388 -287 q 413 -318 404 -303 q 431 -345 421 -336 q 463 -354 442 -354 q 510 -301 510 -354 q 484 -237 510 -265 q 392 -172 458 -208 q 376 -164 382 -168 q 371 -154 371 -160 q 379 -131 371 -147 l 414 -40 q 438 26 413 -47 l 456 25 z "},"Ț":{"ha":881,"x_min":53,"x_max":831,"o":"m 261 843 q 131 799 175 843 q 68 647 88 754 q 60 644 68 644 q 53 647 53 644 q 65 778 58 697 q 72 899 72 858 q 80 906 72 906 q 88 899 88 906 q 163 868 88 868 q 442 864 282 864 q 615 867 524 864 l 710 868 q 784 875 760 868 q 815 903 808 882 q 824 908 817 908 q 831 903 831 908 q 822 781 826 863 q 818 647 818 699 q 810 644 818 644 q 801 647 801 644 q 757 799 797 756 q 624 843 717 843 q 535 838 561 843 q 499 814 508 832 q 489 753 489 796 l 489 113 q 499 50 489 69 q 536 24 508 31 q 624 17 564 17 q 628 8 628 17 q 624 0 628 0 q 550 1 578 0 l 442 3 l 338 1 q 261 0 310 0 q 258 8 258 0 q 261 17 258 17 q 349 24 321 17 q 387 51 376 31 q 397 113 397 71 l 397 756 q 388 816 397 799 q 351 838 378 833 q 261 843 325 843 m 433 -382 q 429 -383 432 -383 q 422 -378 425 -383 q 422 -371 419 -374 q 483 -247 483 -318 q 476 -207 483 -219 q 454 -187 469 -194 l 479 -179 q 469 -215 482 -203 q 433 -228 457 -228 q 394 -212 408 -228 q 379 -174 379 -197 q 439 -118 379 -118 q 498 -144 478 -118 q 518 -219 518 -171 q 497 -305 518 -265 q 433 -382 475 -344 z "},"Ṭ":{"ha":881,"x_min":53,"x_max":831,"o":"m 261 843 q 131 799 175 843 q 68 647 88 754 q 60 644 68 644 q 53 647 53 644 q 65 778 58 697 q 72 899 72 858 q 80 906 72 906 q 88 899 88 906 q 163 868 88 868 q 442 864 282 864 q 615 867 524 864 l 710 868 q 784 875 760 868 q 815 903 808 882 q 824 908 817 908 q 831 903 831 908 q 822 781 826 863 q 818 647 818 699 q 810 644 818 644 q 801 647 801 644 q 757 799 797 756 q 624 843 717 843 q 535 838 561 843 q 499 814 508 832 q 489 753 489 796 l 489 113 q 499 50 489 69 q 536 24 508 31 q 624 17 564 17 q 628 8 628 17 q 624 0 628 0 q 550 1 578 0 l 442 3 l 338 1 q 261 0 310 0 q 258 8 258 0 q 261 17 258 17 q 349 24 321 17 q 387 51 376 31 q 397 113 397 71 l 397 756 q 388 816 397 799 q 351 838 378 833 q 261 843 325 843 m 450 -264 q 405 -249 421 -264 q 389 -206 389 -233 q 405 -162 389 -178 q 450 -147 421 -147 q 493 -162 478 -147 q 508 -206 508 -178 q 493 -249 508 -233 q 450 -264 478 -264 z "},"Ṯ":{"ha":881,"x_min":53,"x_max":831,"o":"m 261 843 q 131 799 175 843 q 68 647 88 754 q 60 644 68 644 q 53 647 53 644 q 65 778 58 697 q 72 899 72 858 q 80 906 72 906 q 88 899 88 906 q 163 868 88 868 q 442 864 282 864 q 615 867 524 864 l 710 868 q 784 875 760 868 q 815 903 808 882 q 824 908 817 908 q 831 903 831 908 q 822 781 826 863 q 818 647 818 699 q 810 644 818 644 q 801 647 801 644 q 757 799 797 756 q 624 843 717 843 q 535 838 561 843 q 499 814 508 832 q 489 753 489 796 l 489 113 q 499 50 489 69 q 536 24 508 31 q 624 17 564 17 q 628 8 628 17 q 624 0 628 0 q 550 1 578 0 l 442 3 l 338 1 q 261 0 310 0 q 258 8 258 0 q 261 17 258 17 q 349 24 321 17 q 387 51 376 31 q 397 113 397 71 l 397 756 q 388 816 397 799 q 351 838 378 833 q 261 843 325 843 m 274 -157 q 265 -137 265 -157 q 274 -118 265 -118 l 622 -118 q 631 -137 631 -118 q 622 -157 631 -157 l 274 -157 z "},"U":{"ha":969,"x_min":38,"x_max":942,"o":"m 794 715 q 674 851 794 851 q 669 860 669 851 q 674 868 669 868 l 733 867 q 813 864 783 864 q 881 867 836 864 l 939 868 q 942 860 942 868 q 939 851 942 851 q 828 715 828 851 l 828 321 q 739 72 828 161 q 500 -18 650 -18 q 320 22 397 -18 q 201 137 243 63 q 158 311 158 211 l 158 756 q 150 817 158 797 q 117 844 142 836 q 40 851 93 851 q 38 860 38 851 q 40 868 38 868 l 108 867 q 203 864 167 864 q 301 867 240 864 l 365 868 q 369 860 369 868 q 365 851 369 851 q 290 843 314 851 q 257 815 265 835 q 249 753 249 794 l 249 360 q 322 110 249 196 q 531 24 396 24 q 725 102 656 24 q 794 319 794 181 l 794 715 z "},"Ú":{"ha":969,"x_min":38,"x_max":942,"o":"m 794 715 q 674 851 794 851 q 669 860 669 851 q 674 868 669 868 l 733 867 q 813 864 783 864 q 881 867 836 864 l 939 868 q 942 860 942 868 q 939 851 942 851 q 828 715 828 851 l 828 321 q 739 72 828 161 q 500 -18 650 -18 q 320 22 397 -18 q 201 137 243 63 q 158 311 158 211 l 158 756 q 150 817 158 797 q 117 844 142 836 q 40 851 93 851 q 38 860 38 851 q 40 868 38 868 l 108 867 q 203 864 167 864 q 301 867 240 864 l 365 868 q 369 860 369 868 q 365 851 369 851 q 290 843 314 851 q 257 815 265 835 q 249 753 249 794 l 249 360 q 322 110 249 196 q 531 24 396 24 q 725 102 656 24 q 794 319 794 181 l 794 715 m 382 942 q 375 948 376 942 q 378 957 374 954 q 529 1043 424 982 q 573 1071 554 1060 q 604 1089 592 1082 q 637 1083 610 1092 q 683 1063 664 1074 q 693 1050 703 1051 q 535 1003 607 1029 q 385 943 464 978 l 382 942 z "},"Ʉ":{"ha":969,"x_min":38,"x_max":942,"o":"m 65 421 q 60 435 60 421 q 65 449 60 449 l 914 449 q 919 435 919 449 q 914 421 919 421 l 65 421 m 794 715 q 674 851 794 851 q 669 860 669 851 q 674 868 669 868 l 733 867 q 813 864 783 864 q 881 867 836 864 l 939 868 q 942 860 942 868 q 939 851 942 851 q 828 715 828 851 l 828 321 q 739 72 828 161 q 500 -18 650 -18 q 320 22 397 -18 q 201 137 243 63 q 158 311 158 211 l 158 756 q 150 817 158 797 q 117 844 142 836 q 40 851 93 851 q 38 860 38 851 q 40 868 38 868 l 108 867 q 203 864 167 864 q 301 867 240 864 l 365 868 q 369 860 369 868 q 365 851 369 851 q 290 843 314 851 q 257 815 265 835 q 249 753 249 794 l 249 360 q 322 110 249 196 q 531 24 396 24 q 725 102 656 24 q 794 319 794 181 l 794 715 z "},"Ŭ":{"ha":969,"x_min":38,"x_max":942,"o":"m 794 715 q 674 851 794 851 q 669 860 669 851 q 674 868 669 868 l 733 867 q 813 864 783 864 q 881 867 836 864 l 939 868 q 942 860 942 868 q 939 851 942 851 q 828 715 828 851 l 828 321 q 739 72 828 161 q 500 -18 650 -18 q 320 22 397 -18 q 201 137 243 63 q 158 311 158 211 l 158 756 q 150 817 158 797 q 117 844 142 836 q 40 851 93 851 q 38 860 38 851 q 40 868 38 868 l 108 867 q 203 864 167 864 q 301 867 240 864 l 365 868 q 369 860 369 868 q 365 851 369 851 q 290 843 314 851 q 257 815 265 835 q 249 753 249 794 l 249 360 q 322 110 249 196 q 531 24 396 24 q 725 102 656 24 q 794 319 794 181 l 794 715 m 519 958 q 423 997 460 958 q 376 1107 386 1036 q 382 1113 375 1113 q 392 1111 389 1114 q 438 1045 401 1072 q 519 1018 475 1018 q 599 1046 563 1018 q 646 1111 636 1074 q 651 1114 646 1114 q 659 1112 656 1114 q 661 1107 663 1110 q 614 997 650 1035 q 519 958 578 958 z "},"Ǔ":{"ha":969,"x_min":38,"x_max":942,"o":"m 794 715 q 674 851 794 851 q 669 860 669 851 q 674 868 669 868 l 733 867 q 813 864 783 864 q 881 867 836 864 l 939 868 q 942 860 942 868 q 939 851 942 851 q 828 715 828 851 l 828 321 q 739 72 828 161 q 500 -18 650 -18 q 320 22 397 -18 q 201 137 243 63 q 158 311 158 211 l 158 756 q 150 817 158 797 q 117 844 142 836 q 40 851 93 851 q 38 860 38 851 q 40 868 38 868 l 108 867 q 203 864 167 864 q 301 867 240 864 l 365 868 q 369 860 369 868 q 365 851 369 851 q 290 843 314 851 q 257 815 265 835 q 249 753 249 794 l 249 360 q 322 110 249 196 q 531 24 396 24 q 725 102 656 24 q 794 319 794 181 l 794 715 m 360 1089 q 359 1090 360 1089 q 358 1090 358 1090 q 362 1097 358 1093 q 368 1099 365 1100 l 519 1018 l 669 1099 l 671 1099 q 678 1094 675 1099 q 676 1089 681 1090 l 535 954 q 519 949 529 949 q 503 954 508 949 l 360 1089 z "},"Û":{"ha":969,"x_min":38,"x_max":942,"o":"m 794 715 q 674 851 794 851 q 669 860 669 851 q 674 868 669 868 l 733 867 q 813 864 783 864 q 881 867 836 864 l 939 868 q 942 860 942 868 q 939 851 942 851 q 828 715 828 851 l 828 321 q 739 72 828 161 q 500 -18 650 -18 q 320 22 397 -18 q 201 137 243 63 q 158 311 158 211 l 158 756 q 150 817 158 797 q 117 844 142 836 q 40 851 93 851 q 38 860 38 851 q 40 868 38 868 l 108 867 q 203 864 167 864 q 301 867 240 864 l 365 868 q 369 860 369 868 q 365 851 369 851 q 290 843 314 851 q 257 815 265 835 q 249 753 249 794 l 249 360 q 322 110 249 196 q 531 24 396 24 q 725 102 656 24 q 794 319 794 181 l 794 715 m 504 1097 q 521 1104 511 1104 q 536 1097 529 1104 l 678 961 q 679 958 679 961 q 676 953 679 956 q 671 951 672 950 l 521 1032 l 369 951 q 363 955 367 950 q 361 961 358 960 l 504 1097 z "},"Ȕ":{"ha":969,"x_min":38,"x_max":942,"o":"m 794 715 q 674 851 794 851 q 669 860 669 851 q 674 868 669 868 l 733 867 q 813 864 783 864 q 881 867 836 864 l 939 868 q 942 860 942 868 q 939 851 942 851 q 828 715 828 851 l 828 321 q 739 72 828 161 q 500 -18 650 -18 q 320 22 397 -18 q 201 137 243 63 q 158 311 158 211 l 158 756 q 150 817 158 797 q 117 844 142 836 q 40 851 93 851 q 38 860 38 851 q 40 868 38 868 l 108 867 q 203 864 167 864 q 301 867 240 864 l 365 868 q 369 860 369 868 q 365 851 369 851 q 290 843 314 851 q 257 815 265 835 q 249 753 249 794 l 249 360 q 322 110 249 196 q 531 24 396 24 q 725 102 656 24 q 794 319 794 181 l 794 715 m 661 942 q 556 1006 600 981 q 457 1053 513 1031 q 468 1067 447 1057 q 516 1085 489 1078 q 547 1086 543 1092 q 672 954 606 1017 q 674 950 674 953 q 669 942 674 946 q 661 942 665 939 m 489 942 q 383 1008 424 983 q 289 1053 342 1032 q 299 1067 279 1057 q 344 1085 318 1078 q 375 1086 371 1092 q 500 954 433 1017 q 501 950 501 953 q 497 942 501 946 q 489 942 493 939 z "},"Ü":{"ha":969,"x_min":38,"x_max":942,"o":"m 794 715 q 674 851 794 851 q 669 860 669 851 q 674 868 669 868 l 733 867 q 813 864 783 864 q 881 867 836 864 l 939 868 q 942 860 942 868 q 939 851 942 851 q 828 715 828 851 l 828 321 q 739 72 828 161 q 500 -18 650 -18 q 320 22 397 -18 q 201 137 243 63 q 158 311 158 211 l 158 756 q 150 817 158 797 q 117 844 142 836 q 40 851 93 851 q 38 860 38 851 q 40 868 38 868 l 108 867 q 203 864 167 864 q 301 867 240 864 l 365 868 q 369 860 369 868 q 365 851 369 851 q 290 843 314 851 q 257 815 265 835 q 249 753 249 794 l 249 360 q 322 110 249 196 q 531 24 396 24 q 725 102 656 24 q 794 319 794 181 l 794 715 m 399 996 q 355 1011 371 996 q 339 1053 339 1026 q 355 1094 339 1079 q 399 1110 371 1110 q 441 1095 426 1110 q 456 1053 456 1081 q 441 1011 456 1026 q 399 996 426 996 m 642 996 q 598 1011 614 996 q 582 1053 582 1026 q 598 1094 582 1079 q 642 1110 614 1110 q 684 1095 669 1110 q 699 1053 699 1081 q 684 1011 699 1026 q 642 996 669 996 z "},"Ǘ":{"ha":969,"x_min":38,"x_max":942,"o":"m 794 715 q 674 851 794 851 q 669 860 669 851 q 674 868 669 868 l 733 867 q 813 864 783 864 q 881 867 836 864 l 939 868 q 942 860 942 868 q 939 851 942 851 q 828 715 828 851 l 828 321 q 739 72 828 161 q 500 -18 650 -18 q 320 22 397 -18 q 201 137 243 63 q 158 311 158 211 l 158 756 q 150 817 158 797 q 117 844 142 836 q 40 851 93 851 q 38 860 38 851 q 40 868 38 868 l 108 867 q 203 864 167 864 q 301 867 240 864 l 365 868 q 369 860 369 868 q 365 851 369 851 q 290 843 314 851 q 257 815 265 835 q 249 753 249 794 l 249 360 q 322 110 249 196 q 531 24 396 24 q 725 102 656 24 q 794 319 794 181 l 794 715 m 358 1138 q 351 1144 353 1138 q 354 1153 349 1151 q 508 1235 399 1174 q 594 1283 582 1276 q 627 1278 600 1288 q 674 1258 654 1269 q 685 1244 694 1247 q 360 1138 513 1204 l 358 1138 m 399 979 q 355 994 371 979 q 339 1038 339 1010 q 355 1078 339 1064 q 399 1093 371 1093 q 440 1078 425 1093 q 456 1038 456 1064 q 441 994 456 1010 q 399 979 426 979 m 642 979 q 598 994 614 979 q 582 1038 582 1010 q 598 1078 582 1064 q 642 1093 614 1093 q 683 1078 668 1093 q 699 1038 699 1064 q 684 994 699 1010 q 642 979 669 979 z "},"Ǚ":{"ha":969,"x_min":38,"x_max":942,"o":"m 794 715 q 674 851 794 851 q 669 860 669 851 q 674 868 669 868 l 733 867 q 813 864 783 864 q 881 867 836 864 l 939 868 q 942 860 942 868 q 939 851 942 851 q 828 715 828 851 l 828 321 q 739 72 828 161 q 500 -18 650 -18 q 320 22 397 -18 q 201 137 243 63 q 158 311 158 211 l 158 756 q 150 817 158 797 q 117 844 142 836 q 40 851 93 851 q 38 860 38 851 q 40 868 38 868 l 108 867 q 203 864 167 864 q 301 867 240 864 l 365 868 q 369 860 369 868 q 365 851 369 851 q 290 843 314 851 q 257 815 265 835 q 249 753 249 794 l 249 360 q 322 110 249 196 q 531 24 396 24 q 725 102 656 24 q 794 319 794 181 l 794 715 m 360 1267 q 359 1267 360 1267 q 358 1268 358 1268 q 362 1274 358 1271 q 368 1276 365 1278 l 524 1194 l 676 1276 l 679 1276 q 685 1273 683 1276 q 685 1267 688 1269 l 538 1132 q 522 1126 532 1126 q 507 1132 513 1126 l 360 1267 m 399 979 q 355 994 371 979 q 339 1038 339 1010 q 355 1078 339 1064 q 399 1093 371 1093 q 440 1078 425 1093 q 456 1038 456 1064 q 441 994 456 1010 q 399 979 426 979 m 642 979 q 598 994 614 979 q 582 1038 582 1010 q 598 1078 582 1064 q 642 1093 614 1093 q 683 1078 668 1093 q 699 1038 699 1064 q 684 994 699 1010 q 642 979 669 979 z "},"Ǜ":{"ha":969,"x_min":38,"x_max":942,"o":"m 794 715 q 674 851 794 851 q 669 860 669 851 q 674 868 669 868 l 733 867 q 813 864 783 864 q 881 867 836 864 l 939 868 q 942 860 942 868 q 939 851 942 851 q 828 715 828 851 l 828 321 q 739 72 828 161 q 500 -18 650 -18 q 320 22 397 -18 q 201 137 243 63 q 158 311 158 211 l 158 756 q 150 817 158 797 q 117 844 142 836 q 40 851 93 851 q 38 860 38 851 q 40 868 38 868 l 108 867 q 203 864 167 864 q 301 867 240 864 l 365 868 q 369 860 369 868 q 365 851 369 851 q 290 843 314 851 q 257 815 265 835 q 249 753 249 794 l 249 360 q 322 110 249 196 q 531 24 396 24 q 725 102 656 24 q 794 319 794 181 l 794 715 m 697 1138 q 374 1244 546 1204 q 384 1258 364 1247 q 431 1278 404 1269 q 464 1283 458 1288 q 549 1236 511 1258 q 704 1153 644 1181 q 707 1147 707 1151 q 704 1140 707 1143 q 697 1138 701 1136 m 417 979 q 374 994 389 979 q 358 1038 358 1010 q 374 1078 358 1064 q 417 1093 389 1093 q 460 1078 444 1093 q 475 1038 475 1064 q 460 994 475 1010 q 417 979 444 979 m 660 979 q 617 994 632 979 q 601 1038 601 1010 q 617 1078 601 1064 q 660 1093 632 1093 q 703 1078 688 1093 q 719 1038 719 1064 q 703 994 719 1010 q 660 979 688 979 z "},"Ǖ":{"ha":969,"x_min":38,"x_max":942,"o":"m 794 715 q 674 851 794 851 q 669 860 669 851 q 674 868 669 868 l 733 867 q 813 864 783 864 q 881 867 836 864 l 939 868 q 942 860 942 868 q 939 851 942 851 q 828 715 828 851 l 828 321 q 739 72 828 161 q 500 -18 650 -18 q 320 22 397 -18 q 201 137 243 63 q 158 311 158 211 l 158 756 q 150 817 158 797 q 117 844 142 836 q 40 851 93 851 q 38 860 38 851 q 40 868 38 868 l 108 867 q 203 864 167 864 q 301 867 240 864 l 365 868 q 369 860 369 868 q 365 851 369 851 q 290 843 314 851 q 257 815 265 835 q 249 753 249 794 l 249 360 q 322 110 249 196 q 531 24 396 24 q 725 102 656 24 q 794 319 794 181 l 794 715 m 399 979 q 355 994 371 979 q 339 1038 339 1010 q 355 1078 339 1064 q 399 1093 371 1093 q 440 1078 425 1093 q 456 1038 456 1064 q 441 994 456 1010 q 399 979 426 979 m 642 979 q 598 994 614 979 q 582 1038 582 1010 q 598 1078 582 1064 q 642 1093 614 1093 q 683 1078 668 1093 q 699 1038 699 1064 q 684 994 699 1010 q 642 979 669 979 m 357 1168 q 349 1188 349 1168 q 357 1207 349 1207 l 681 1207 q 689 1188 689 1207 q 681 1168 689 1168 l 357 1168 z "},"Ụ":{"ha":969,"x_min":38,"x_max":942,"o":"m 794 715 q 674 851 794 851 q 669 860 669 851 q 674 868 669 868 l 733 867 q 813 864 783 864 q 881 867 836 864 l 939 868 q 942 860 942 868 q 939 851 942 851 q 828 715 828 851 l 828 321 q 739 72 828 161 q 500 -18 650 -18 q 320 22 397 -18 q 201 137 243 63 q 158 311 158 211 l 158 756 q 150 817 158 797 q 117 844 142 836 q 40 851 93 851 q 38 860 38 851 q 40 868 38 868 l 108 867 q 203 864 167 864 q 301 867 240 864 l 365 868 q 369 860 369 868 q 365 851 369 851 q 290 843 314 851 q 257 815 265 835 q 249 753 249 794 l 249 360 q 322 110 249 196 q 531 24 396 24 q 725 102 656 24 q 794 319 794 181 l 794 715 m 488 -264 q 442 -249 458 -264 q 426 -206 426 -233 q 442 -162 426 -178 q 488 -147 458 -147 q 531 -162 515 -147 q 546 -206 546 -178 q 531 -249 546 -233 q 488 -264 515 -264 z "},"Ù":{"ha":969,"x_min":38,"x_max":942,"o":"m 794 715 q 674 851 794 851 q 669 860 669 851 q 674 868 669 868 l 733 867 q 813 864 783 864 q 881 867 836 864 l 939 868 q 942 860 942 868 q 939 851 942 851 q 828 715 828 851 l 828 321 q 739 72 828 161 q 500 -18 650 -18 q 320 22 397 -18 q 201 137 243 63 q 158 311 158 211 l 158 756 q 150 817 158 797 q 117 844 142 836 q 40 851 93 851 q 38 860 38 851 q 40 868 38 868 l 108 867 q 203 864 167 864 q 301 867 240 864 l 365 868 q 369 860 369 868 q 365 851 369 851 q 290 843 314 851 q 257 815 265 835 q 249 753 249 794 l 249 360 q 322 110 249 196 q 531 24 396 24 q 725 102 656 24 q 794 319 794 181 l 794 715 m 657 943 q 347 1050 500 1013 q 358 1063 338 1051 q 404 1083 378 1074 q 436 1089 431 1092 q 490 1057 472 1067 q 663 957 599 990 q 665 951 665 956 q 663 944 665 947 q 657 943 660 942 z "},"Ủ":{"ha":969,"x_min":38,"x_max":942,"o":"m 794 715 q 674 851 794 851 q 669 860 669 851 q 674 868 669 868 l 733 867 q 813 864 783 864 q 881 867 836 864 l 939 868 q 942 860 942 868 q 939 851 942 851 q 828 715 828 851 l 828 321 q 739 72 828 161 q 500 -18 650 -18 q 320 22 397 -18 q 201 137 243 63 q 158 311 158 211 l 158 756 q 150 817 158 797 q 117 844 142 836 q 40 851 93 851 q 38 860 38 851 q 40 868 38 868 l 108 867 q 203 864 167 864 q 301 867 240 864 l 365 868 q 369 860 369 868 q 365 851 369 851 q 290 843 314 851 q 257 815 265 835 q 249 753 249 794 l 249 360 q 322 110 249 196 q 531 24 396 24 q 725 102 656 24 q 794 319 794 181 l 794 715 m 522 904 q 516 901 524 901 q 507 904 508 901 q 503 933 503 919 q 510 973 503 954 q 533 1014 518 992 q 553 1053 547 1039 q 560 1083 560 1067 q 543 1124 560 1110 q 501 1139 526 1139 q 463 1129 482 1139 l 461 1129 q 453 1134 457 1129 q 453 1140 449 1139 q 543 1169 493 1169 q 608 1149 585 1169 q 632 1097 632 1128 q 617 1051 632 1072 q 574 1001 603 1031 q 531 951 544 972 q 522 904 517 929 z "},"Ư":{"ha":969,"x_min":38,"x_max":1022,"o":"m 828 314 q 737 69 828 157 q 493 -18 646 -18 q 249 69 339 -18 q 158 306 158 156 l 158 756 q 150 817 158 797 q 117 844 142 836 q 40 851 93 851 q 38 860 38 851 q 40 868 38 868 l 108 867 q 203 864 167 864 q 301 867 240 864 l 365 868 q 369 860 369 868 q 365 851 369 851 q 290 843 314 851 q 257 815 265 835 q 249 753 249 794 l 249 354 q 322 108 249 193 q 524 24 396 24 q 722 100 650 24 q 794 313 794 176 l 794 715 q 674 851 794 851 q 669 860 669 851 q 674 868 669 868 l 733 867 q 813 864 783 864 q 907 878 878 864 q 936 926 936 893 q 922 964 936 947 q 911 996 911 981 q 928 1035 911 1021 q 968 1050 946 1050 q 1008 1031 994 1050 q 1022 985 1022 1013 q 900 853 1022 904 q 848 813 868 840 q 828 715 828 785 l 828 314 z "},"Ứ":{"ha":969,"x_min":38,"x_max":1022,"o":"m 828 314 q 737 69 828 157 q 493 -18 646 -18 q 249 69 339 -18 q 158 306 158 156 l 158 756 q 150 817 158 797 q 117 844 142 836 q 40 851 93 851 q 38 860 38 851 q 40 868 38 868 l 108 867 q 203 864 167 864 q 301 867 240 864 l 365 868 q 369 860 369 868 q 365 851 369 851 q 290 843 314 851 q 257 815 265 835 q 249 753 249 794 l 249 354 q 322 108 249 193 q 524 24 396 24 q 722 100 650 24 q 794 313 794 176 l 794 715 q 674 851 794 851 q 669 860 669 851 q 674 868 669 868 l 733 867 q 813 864 783 864 q 907 878 878 864 q 936 926 936 893 q 922 964 936 947 q 911 996 911 981 q 928 1035 911 1021 q 968 1050 946 1050 q 1008 1031 994 1050 q 1022 985 1022 1013 q 900 853 1022 904 q 848 813 868 840 q 828 715 828 785 l 828 314 m 382 942 q 374 948 376 942 q 376 957 372 954 q 463 1004 419 978 q 521 1039 507 1031 q 603 1088 592 1082 q 636 1083 610 1092 q 683 1063 663 1074 q 692 1050 703 1051 q 383 942 528 1008 l 382 942 z "},"Ự":{"ha":969,"x_min":38,"x_max":1022,"o":"m 828 314 q 737 69 828 157 q 493 -18 646 -18 q 249 69 339 -18 q 158 306 158 156 l 158 756 q 150 817 158 797 q 117 844 142 836 q 40 851 93 851 q 38 860 38 851 q 40 868 38 868 l 108 867 q 203 864 167 864 q 301 867 240 864 l 365 868 q 369 860 369 868 q 365 851 369 851 q 290 843 314 851 q 257 815 265 835 q 249 753 249 794 l 249 354 q 322 108 249 193 q 524 24 396 24 q 722 100 650 24 q 794 313 794 176 l 794 715 q 674 851 794 851 q 669 860 669 851 q 674 868 669 868 l 733 867 q 813 864 783 864 q 907 878 878 864 q 936 926 936 893 q 922 964 936 947 q 911 996 911 981 q 928 1035 911 1021 q 968 1050 946 1050 q 1008 1031 994 1050 q 1022 985 1022 1013 q 900 853 1022 904 q 848 813 868 840 q 828 715 828 785 l 828 314 m 515 -264 q 470 -249 486 -264 q 454 -206 454 -233 q 470 -162 454 -178 q 515 -147 486 -147 q 558 -162 543 -147 q 574 -206 574 -178 q 558 -249 574 -233 q 515 -264 543 -264 z "},"Ừ":{"ha":969,"x_min":38,"x_max":1022,"o":"m 828 314 q 737 69 828 157 q 493 -18 646 -18 q 249 69 339 -18 q 158 306 158 156 l 158 756 q 150 817 158 797 q 117 844 142 836 q 40 851 93 851 q 38 860 38 851 q 40 868 38 868 l 108 867 q 203 864 167 864 q 301 867 240 864 l 365 868 q 369 860 369 868 q 365 851 369 851 q 290 843 314 851 q 257 815 265 835 q 249 753 249 794 l 249 354 q 322 108 249 193 q 524 24 396 24 q 722 100 650 24 q 794 313 794 176 l 794 715 q 674 851 794 851 q 669 860 669 851 q 674 868 669 868 l 733 867 q 813 864 783 864 q 907 878 878 864 q 936 926 936 893 q 922 964 936 947 q 911 996 911 981 q 928 1035 911 1021 q 968 1050 946 1050 q 1008 1031 994 1050 q 1022 985 1022 1013 q 900 853 1022 904 q 848 813 868 840 q 828 715 828 785 l 828 314 m 657 943 q 347 1050 500 1013 q 356 1063 336 1051 q 403 1083 376 1074 q 436 1089 431 1092 l 474 1065 q 663 957 583 997 q 665 951 665 956 q 663 944 665 947 q 657 943 660 942 z "},"Ử":{"ha":969,"x_min":38,"x_max":1022,"o":"m 828 314 q 737 69 828 157 q 493 -18 646 -18 q 249 69 339 -18 q 158 306 158 156 l 158 756 q 150 817 158 797 q 117 844 142 836 q 40 851 93 851 q 38 860 38 851 q 40 868 38 868 l 108 867 q 203 864 167 864 q 301 867 240 864 l 365 868 q 369 860 369 868 q 365 851 369 851 q 290 843 314 851 q 257 815 265 835 q 249 753 249 794 l 249 354 q 322 108 249 193 q 524 24 396 24 q 722 100 650 24 q 794 313 794 176 l 794 715 q 674 851 794 851 q 669 860 669 851 q 674 868 669 868 l 733 867 q 813 864 783 864 q 907 878 878 864 q 936 926 936 893 q 922 964 936 947 q 911 996 911 981 q 928 1035 911 1021 q 968 1050 946 1050 q 1008 1031 994 1050 q 1022 985 1022 1013 q 900 853 1022 904 q 848 813 868 840 q 828 715 828 785 l 828 314 m 522 904 q 516 901 524 901 q 507 904 508 901 q 503 935 503 921 q 510 974 503 956 q 533 1015 518 993 q 553 1052 547 1038 q 560 1083 560 1067 q 542 1124 560 1110 q 500 1139 525 1139 q 461 1129 483 1139 l 460 1129 q 451 1134 456 1129 q 451 1140 447 1139 q 543 1169 494 1169 q 608 1149 585 1169 q 631 1097 631 1128 q 616 1051 631 1072 q 574 1003 601 1031 q 531 951 544 974 q 522 904 517 929 z "},"Ữ":{"ha":969,"x_min":38,"x_max":1022,"o":"m 828 314 q 737 69 828 157 q 493 -18 646 -18 q 249 69 339 -18 q 158 306 158 156 l 158 756 q 150 817 158 797 q 117 844 142 836 q 40 851 93 851 q 38 860 38 851 q 40 868 38 868 l 108 867 q 203 864 167 864 q 301 867 240 864 l 365 868 q 369 860 369 868 q 365 851 369 851 q 290 843 314 851 q 257 815 265 835 q 249 753 249 794 l 249 354 q 322 108 249 193 q 524 24 396 24 q 722 100 650 24 q 794 313 794 176 l 794 715 q 674 851 794 851 q 669 860 669 851 q 674 868 669 868 l 733 867 q 813 864 783 864 q 907 878 878 864 q 936 926 936 893 q 922 964 936 947 q 911 996 911 981 q 928 1035 911 1021 q 968 1050 946 1050 q 1008 1031 994 1050 q 1022 985 1022 1013 q 900 853 1022 904 q 848 813 868 840 q 828 715 828 785 l 828 314 m 625 1047 q 663 1057 649 1047 q 693 1085 676 1067 l 694 1085 q 702 1081 699 1085 q 703 1075 706 1078 q 643 1006 667 1024 q 593 989 619 989 q 508 1006 564 989 q 461 1018 486 1013 q 413 1024 436 1024 q 378 1017 390 1024 q 358 1000 367 1010 q 343 986 349 990 l 340 986 q 333 990 336 986 q 333 996 331 993 q 388 1054 357 1028 q 451 1081 419 1081 q 521 1067 471 1081 q 625 1047 585 1047 z "},"Ű":{"ha":969,"x_min":38,"x_max":942,"o":"m 794 715 q 674 851 794 851 q 669 860 669 851 q 674 868 669 868 l 733 867 q 813 864 783 864 q 881 867 836 864 l 939 868 q 942 860 942 868 q 939 851 942 851 q 828 715 828 851 l 828 321 q 739 72 828 161 q 500 -18 650 -18 q 320 22 397 -18 q 201 137 243 63 q 158 311 158 211 l 158 756 q 150 817 158 797 q 117 844 142 836 q 40 851 93 851 q 38 860 38 851 q 40 868 38 868 l 108 867 q 203 864 167 864 q 301 867 240 864 l 365 868 q 369 860 369 868 q 365 851 369 851 q 290 843 314 851 q 257 815 265 835 q 249 753 249 794 l 249 360 q 322 110 249 196 q 531 24 396 24 q 725 102 656 24 q 794 319 794 181 l 794 715 m 371 939 q 365 945 367 939 q 367 954 364 951 q 492 1086 431 1015 q 522 1085 496 1092 q 569 1067 549 1078 q 581 1053 590 1057 q 374 940 481 1011 l 371 939 m 543 939 q 538 945 539 939 q 539 954 536 951 q 664 1086 593 1006 q 694 1085 668 1092 q 740 1067 719 1078 q 750 1053 760 1057 q 546 940 658 1015 l 543 939 z "},"Ȗ":{"ha":969,"x_min":38,"x_max":942,"o":"m 794 715 q 674 851 794 851 q 669 860 669 851 q 674 868 669 868 l 733 867 q 813 864 783 864 q 881 867 836 864 l 939 868 q 942 860 942 868 q 939 851 942 851 q 828 715 828 851 l 828 321 q 739 72 828 161 q 500 -18 650 -18 q 320 22 397 -18 q 201 137 243 63 q 158 311 158 211 l 158 756 q 150 817 158 797 q 117 844 142 836 q 40 851 93 851 q 38 860 38 851 q 40 868 38 868 l 108 867 q 203 864 167 864 q 301 867 240 864 l 365 868 q 369 860 369 868 q 365 851 369 851 q 290 843 314 851 q 257 815 265 835 q 249 753 249 794 l 249 360 q 322 110 249 196 q 531 24 396 24 q 725 102 656 24 q 794 319 794 181 l 794 715 m 392 947 q 383 944 390 943 q 376 949 375 944 q 422 1059 386 1021 q 519 1097 458 1097 q 615 1060 579 1097 q 661 949 650 1022 q 655 944 663 944 q 646 947 647 943 q 599 1012 636 985 q 519 1039 563 1039 q 438 1012 475 1039 q 392 947 401 985 z "},"Ū":{"ha":969,"x_min":38,"x_max":942,"o":"m 794 715 q 674 851 794 851 q 669 860 669 851 q 674 868 669 868 l 733 867 q 813 864 783 864 q 881 867 836 864 l 939 868 q 942 860 942 868 q 939 851 942 851 q 828 715 828 851 l 828 321 q 739 72 828 161 q 500 -18 650 -18 q 320 22 397 -18 q 201 137 243 63 q 158 311 158 211 l 158 756 q 150 817 158 797 q 117 844 142 836 q 40 851 93 851 q 38 860 38 851 q 40 868 38 868 l 108 867 q 203 864 167 864 q 301 867 240 864 l 365 868 q 369 860 369 868 q 365 851 369 851 q 290 843 314 851 q 257 815 265 835 q 249 753 249 794 l 249 360 q 322 110 249 196 q 531 24 396 24 q 725 102 656 24 q 794 319 794 181 l 794 715 m 344 1003 q 336 1022 336 1003 q 344 1042 336 1042 l 693 1042 q 701 1022 701 1042 q 693 1003 701 1003 l 344 1003 z "},"Ų":{"ha":969,"x_min":38,"x_max":942,"o":"m 794 715 q 674 851 794 851 q 669 860 669 851 q 674 868 669 868 l 733 867 q 813 864 783 864 q 881 867 836 864 l 939 868 q 942 860 942 868 q 939 851 942 851 q 828 715 828 851 l 828 321 q 739 72 828 161 q 500 -18 650 -18 q 320 22 397 -18 q 201 137 243 63 q 158 311 158 211 l 158 756 q 150 817 158 797 q 117 844 142 836 q 40 851 93 851 q 38 860 38 851 q 40 868 38 868 l 108 867 q 203 864 167 864 q 301 867 240 864 l 365 868 q 369 860 369 868 q 365 851 369 851 q 290 843 314 851 q 257 815 265 835 q 249 753 249 794 l 249 360 q 322 110 249 196 q 531 24 396 24 q 725 102 656 24 q 794 319 794 181 l 794 715 m 606 1 q 523 -97 549 -50 q 497 -199 497 -144 q 531 -303 497 -265 q 626 -340 564 -340 q 718 -308 675 -340 l 721 -308 q 728 -312 725 -308 q 728 -319 732 -317 q 578 -382 656 -382 q 462 -344 503 -382 q 421 -244 421 -307 q 589 8 421 -122 l 606 1 z "},"Ů":{"ha":969,"x_min":38,"x_max":942,"o":"m 794 715 q 674 851 794 851 q 669 860 669 851 q 674 868 669 868 l 733 867 q 813 864 783 864 q 881 867 836 864 l 939 868 q 942 860 942 868 q 939 851 942 851 q 828 715 828 851 l 828 321 q 739 72 828 161 q 500 -18 650 -18 q 320 22 397 -18 q 201 137 243 63 q 158 311 158 211 l 158 756 q 150 817 158 797 q 117 844 142 836 q 40 851 93 851 q 38 860 38 851 q 40 868 38 868 l 108 867 q 203 864 167 864 q 301 867 240 864 l 365 868 q 369 860 369 868 q 365 851 369 851 q 290 843 314 851 q 257 815 265 835 q 249 753 249 794 l 249 360 q 322 110 249 196 q 531 24 396 24 q 725 102 656 24 q 794 319 794 181 l 794 715 m 507 982 q 418 1015 451 982 q 385 1092 385 1047 q 427 1171 385 1142 q 521 1200 469 1200 q 606 1167 569 1200 q 642 1089 642 1135 q 601 1011 642 1040 q 507 982 560 982 m 529 996 q 566 1013 554 996 q 578 1064 578 1029 q 553 1149 578 1114 q 493 1185 528 1185 q 458 1169 468 1185 q 447 1119 447 1153 q 469 1034 447 1072 q 529 996 492 996 z "},"Ũ":{"ha":969,"x_min":38,"x_max":942,"o":"m 794 715 q 674 851 794 851 q 669 860 669 851 q 674 868 669 868 l 733 867 q 813 864 783 864 q 881 867 836 864 l 939 868 q 942 860 942 868 q 939 851 942 851 q 828 715 828 851 l 828 321 q 739 72 828 161 q 500 -18 650 -18 q 320 22 397 -18 q 201 137 243 63 q 158 311 158 211 l 158 756 q 150 817 158 797 q 117 844 142 836 q 40 851 93 851 q 38 860 38 851 q 40 868 38 868 l 108 867 q 203 864 167 864 q 301 867 240 864 l 365 868 q 369 860 369 868 q 365 851 369 851 q 290 843 314 851 q 257 815 265 835 q 249 753 249 794 l 249 360 q 322 110 249 196 q 531 24 396 24 q 725 102 656 24 q 794 319 794 181 l 794 715 m 625 1047 q 663 1057 649 1047 q 694 1085 678 1067 l 696 1085 q 703 1081 700 1085 q 704 1075 707 1078 q 644 1007 668 1025 q 594 989 621 989 q 510 1006 565 989 q 474 1015 504 1007 q 413 1024 444 1024 q 378 1016 390 1024 q 358 999 367 1008 q 344 986 349 990 l 342 986 q 335 990 338 986 q 335 996 332 993 q 451 1081 396 1081 q 495 1074 471 1081 q 524 1067 519 1068 q 625 1047 585 1047 z "},"V":{"ha":925,"x_min":-6,"x_max":933,"o":"m 929 868 q 933 860 933 868 q 929 851 933 851 q 847 826 882 851 q 789 742 813 801 l 493 1 q 478 -4 492 -4 q 463 1 467 -4 l 117 753 q 67 829 93 807 q -1 851 40 851 q -6 860 -6 851 q -1 868 -6 868 l 51 867 q 114 864 90 864 q 232 867 168 864 l 290 868 q 294 860 294 868 q 290 851 294 851 q 204 804 204 851 q 217 758 204 786 l 517 101 l 474 38 l 757 750 q 768 794 768 776 q 742 838 768 824 q 660 851 715 851 q 656 860 656 851 q 660 868 656 868 l 719 867 q 806 864 767 864 q 871 867 835 864 l 929 868 z "},"W":{"ha":1293,"x_min":-6,"x_max":1301,"o":"m 493 1 q 478 -4 492 -4 q 463 1 467 -4 l 117 753 q 67 830 92 808 q -1 851 42 851 q -6 860 -6 851 q -1 868 -6 868 l 51 867 q 114 864 90 864 q 222 867 164 864 l 279 868 q 283 860 283 868 q 279 851 283 851 q 217 842 238 851 q 197 808 197 832 q 211 758 197 788 l 519 96 l 469 29 l 651 483 l 672 453 l 493 1 m 1299 868 q 1301 860 1301 868 q 1299 851 1301 851 q 1217 826 1251 851 q 1157 742 1182 801 l 861 1 q 846 -4 860 -4 q 831 1 835 -4 l 486 753 q 436 829 461 807 q 371 851 411 851 q 367 860 367 851 q 371 868 367 868 l 424 867 q 483 864 460 864 q 564 867 522 864 l 601 868 q 606 860 606 868 q 601 851 606 851 q 565 847 576 851 q 554 829 554 842 q 579 758 554 813 l 889 96 l 839 29 l 1126 747 q 1138 793 1138 776 q 1112 838 1138 824 q 1032 851 1086 851 q 1028 860 1028 851 q 1032 868 1028 868 l 1090 867 q 1175 864 1138 864 q 1239 867 1203 864 l 1299 868 m 764 750 q 781 811 781 788 q 721 851 781 851 q 717 860 717 851 q 721 868 717 868 l 753 867 q 811 864 781 864 q 875 867 839 864 l 932 868 q 935 860 935 868 q 932 851 935 851 q 852 827 885 851 q 794 742 819 803 l 679 453 l 658 483 l 764 750 z "},"Ẃ":{"ha":1293,"x_min":-6,"x_max":1301,"o":"m 493 1 q 478 -4 492 -4 q 463 1 467 -4 l 117 753 q 67 830 92 808 q -1 851 42 851 q -6 860 -6 851 q -1 868 -6 868 l 51 867 q 114 864 90 864 q 222 867 164 864 l 279 868 q 283 860 283 868 q 279 851 283 851 q 217 842 238 851 q 197 808 197 832 q 211 758 197 788 l 519 96 l 469 29 l 651 483 l 672 453 l 493 1 m 1299 868 q 1301 860 1301 868 q 1299 851 1301 851 q 1217 826 1251 851 q 1157 742 1182 801 l 861 1 q 846 -4 860 -4 q 831 1 835 -4 l 486 753 q 436 829 461 807 q 371 851 411 851 q 367 860 367 851 q 371 868 367 868 l 424 867 q 483 864 460 864 q 564 867 522 864 l 601 868 q 606 860 606 868 q 601 851 606 851 q 565 847 576 851 q 554 829 554 842 q 579 758 554 813 l 889 96 l 839 29 l 1126 747 q 1138 793 1138 776 q 1112 838 1138 824 q 1032 851 1086 851 q 1028 860 1028 851 q 1032 868 1028 868 l 1090 867 q 1175 864 1138 864 q 1239 867 1203 864 l 1299 868 m 764 750 q 781 811 781 788 q 721 851 781 851 q 717 860 717 851 q 721 868 717 868 l 753 867 q 811 864 781 864 q 875 867 839 864 l 932 868 q 935 860 935 868 q 932 851 935 851 q 852 827 885 851 q 794 742 819 803 l 679 453 l 658 483 l 764 750 m 514 942 q 507 948 508 942 q 510 957 506 954 q 601 1008 557 981 q 657 1042 646 1035 l 735 1089 q 769 1083 742 1092 q 816 1063 796 1074 q 825 1050 836 1051 q 667 1003 739 1029 q 517 943 596 978 l 514 942 z "},"Ŵ":{"ha":1293,"x_min":-6,"x_max":1301,"o":"m 493 1 q 478 -4 492 -4 q 463 1 467 -4 l 117 753 q 67 830 92 808 q -1 851 42 851 q -6 860 -6 851 q -1 868 -6 868 l 51 867 q 114 864 90 864 q 222 867 164 864 l 279 868 q 283 860 283 868 q 279 851 283 851 q 217 842 238 851 q 197 808 197 832 q 211 758 197 788 l 519 96 l 469 29 l 651 483 l 672 453 l 493 1 m 1299 868 q 1301 860 1301 868 q 1299 851 1301 851 q 1217 826 1251 851 q 1157 742 1182 801 l 861 1 q 846 -4 860 -4 q 831 1 835 -4 l 486 753 q 436 829 461 807 q 371 851 411 851 q 367 860 367 851 q 371 868 367 868 l 424 867 q 483 864 460 864 q 564 867 522 864 l 601 868 q 606 860 606 868 q 601 851 606 851 q 565 847 576 851 q 554 829 554 842 q 579 758 554 813 l 889 96 l 839 29 l 1126 747 q 1138 793 1138 776 q 1112 838 1138 824 q 1032 851 1086 851 q 1028 860 1028 851 q 1032 868 1028 868 l 1090 867 q 1175 864 1138 864 q 1239 867 1203 864 l 1299 868 m 764 750 q 781 811 781 788 q 721 851 781 851 q 717 860 717 851 q 721 868 717 868 l 753 867 q 811 864 781 864 q 875 867 839 864 l 932 868 q 935 860 935 868 q 932 851 935 851 q 852 827 885 851 q 794 742 819 803 l 679 453 l 658 483 l 764 750 m 636 1097 q 653 1104 643 1104 q 668 1097 661 1104 l 810 961 q 811 958 811 961 q 808 953 811 956 q 803 951 804 950 l 653 1032 l 501 951 q 494 955 499 950 q 493 961 490 960 l 636 1097 z "}}}
